# Blender v2.77 (sub 0) OBJ File: ''
# www.blender.org
g Bottom_Left_A
v -0.750000 -0.750000 -0.000000
v -0.289332 -0.133578 0.000001
v 0.750000 -0.750000 -0.000000
v 0.251083 -0.134713 -0.000000
v 0.096697 0.750000 0.000000
v -0.138589 0.750000 0.000000
v -0.527060 -0.750000 -0.000000
v 0.509089 -0.750000 -0.000000
v -0.352230 -0.302502 0.000000
v 0.319836 -0.298005 -0.000000
v -0.023866 0.594241 -0.000000
vt 0.223873 0.438476
vt 0.254013 0.399536
vt 0.282694 0.438476
vt 0.320380 0.217582
vt 0.185276 0.217297
vt 0.336104 0.175351
vt 0.060547 0.063476
vt 0.435547 0.063476
vt 0.379812 0.063476
vt 0.120775 0.063476
vt 0.168088 0.176475
vn 0.000000 0.000000 -1.000000
s 1
f 5/1/1 11/2/1 6/3/1
f 2/4/1 4/5/1 9/6/1
f 5/1/1 3/7/1 4/5/1
f 11/2/1 2/4/1 6/3/1
f 5/1/1 4/5/1 11/2/1
f 2/4/1 1/8/1 6/3/1
f 7/9/1 1/8/1 9/6/1
f 3/7/1 8/10/1 10/11/1
f 9/6/1 1/8/1 2/4/1
f 4/5/1 3/7/1 10/11/1
f 10/11/1 9/6/1 4/5/1
