# Blender v2.77 (sub 0) OBJ File: ''
# www.blender.org
g Bottom_Left_B
v -0.516468 -0.516468 0.065331
v -0.345374 -0.345374 0.065332
v -0.336246 -0.398521 0.065332
v -0.299335 -0.470831 0.065332
v -0.241146 -0.523495 0.065331
v -0.162076 -0.558387 0.065331
v -0.070951 -0.573697 0.065331
v 0.433720 -0.573978 0.065331
v 0.429468 -0.059436 0.065332
v -0.000400 -0.059057 0.065332
v -0.050739 -0.059701 0.065332
v -0.060865 -0.060865 0.065332
v 0.116719 0.116719 0.065332
v 0.431726 0.120002 0.065332
v 0.432531 0.432531 0.065332
v 0.642727 0.642727 0.065332
v 0.644348 -0.750000 0.065331
v -0.020870 -0.750000 0.065331
v -0.133722 -0.741497 0.065331
v -0.269013 -0.712460 0.065331
v -0.354773 -0.676838 0.065331
v -0.423756 -0.630647 0.065331
v -0.478068 -0.578233 0.065331
v 0.033773 0.750000 0.065332
v 0.642602 0.750000 0.065332
v 0.432893 0.573178 0.065332
v 0.041348 0.577038 0.065332
v -0.013283 0.573714 0.065332
v -0.076038 0.566762 0.065332
v -0.127927 0.557864 0.065332
v -0.178828 0.534126 0.065332
v -0.218845 0.504480 0.065332
v -0.249819 0.466920 0.065332
v -0.271941 0.413585 0.065332
v -0.278259 0.361450 0.065332
v -0.280798 0.304690 0.065332
v -0.264972 0.249376 0.065332
v -0.224561 0.191841 0.065332
v -0.160996 0.146506 0.065332
v -0.082560 0.125876 0.065332
v -0.008372 0.115416 0.065332
v -0.129855 -0.068797 0.065332
v -0.197462 -0.087964 0.065332
v -0.253429 -0.123445 0.065332
v -0.303771 -0.169398 0.065332
v -0.336035 -0.238125 0.065332
v -0.349822 -0.319473 0.065332
v -0.523555 -0.505070 0.065331
v -0.554260 -0.419821 0.065332
v -0.564076 -0.316572 0.065332
v -0.555912 -0.224370 0.065332
v -0.526096 -0.149043 0.065332
v -0.484756 -0.088292 0.065332
v -0.431784 -0.033866 0.065332
v -0.363311 0.010337 0.065332
v -0.303343 0.032428 0.065332
v -0.263452 0.046463 0.065332
v -0.302921 0.068237 0.065332
v -0.352077 0.101845 0.065332
v -0.400979 0.143264 0.065332
v -0.439658 0.194396 0.065332
v -0.473811 0.266818 0.065332
v -0.488152 0.336877 0.065332
v -0.482670 0.414234 0.065332
v -0.465822 0.475741 0.065332
v -0.439342 0.536904 0.065332
v -0.403377 0.593927 0.065332
v -0.360064 0.637434 0.065332
v -0.305420 0.675111 0.065332
v -0.245260 0.707018 0.065332
v -0.187318 0.725727 0.065332
v -0.139141 0.738795 0.065332
v -0.083368 0.746239 0.065332
v -0.008453 0.748070 0.065332
vt 0.267738 0.106576
vt 0.141570 0.106505
vt 0.255218 0.062500
vt 0.319565 0.340362
vt 0.370668 0.353559
vt 0.317985 0.353396
vt 0.369517 0.105442
vt 0.379117 0.120883
vt 0.324834 0.132292
vt 0.336343 0.163657
vt 0.334062 0.150370
vt 0.338693 0.080791
vt 0.355939 0.092338
vt 0.310286 0.119126
vt 0.283430 0.064626
vt 0.317253 0.071885
vt 0.290519 0.110403
vt 0.088913 0.062500
vt 0.141867 0.358133
vt 0.089318 0.410682
vt 0.142068 0.280001
vt 0.265216 0.234784
vt 0.220820 0.279180
vt 0.262685 0.235075
vt 0.142633 0.235141
vt 0.250100 0.235236
vt 0.252113 0.437017
vt 0.241557 0.437500
vt 0.239663 0.394259
vt 0.089350 0.437500
vt 0.141777 0.393295
vt 0.270842 0.436560
vt 0.253321 0.393428
vt 0.296830 0.431432
vt 0.284785 0.434699
vt 0.281982 0.389466
vt 0.326355 0.418778
vt 0.311315 0.426754
vt 0.294707 0.383532
vt 0.350844 0.398482
vt 0.340016 0.409359
vt 0.312455 0.366730
vt 0.366456 0.368935
vt 0.359836 0.384226
vt 0.372038 0.334219
vt 0.359915 0.298599
vt 0.320199 0.326172
vt 0.316243 0.312344
vt 0.338019 0.275461
vt 0.350245 0.285816
vt 0.315863 0.261616
vt 0.325730 0.267059
vt 0.306140 0.297960
vt 0.340828 0.252584
vt 0.325836 0.258107
vt 0.313357 0.219139
vt 0.371189 0.227927
vt 0.357946 0.241534
vt 0.325943 0.207651
vt 0.388978 0.193908
vt 0.381524 0.212739
vt 0.334009 0.190469
vt 0.388565 0.145045
vt 0.391019 0.170857
vt 0.380889 0.123732
vt 0.337455 0.170132
vt 0.299365 0.228009
vt 0.304711 0.376120
vt 0.269009 0.391691
vt 0.282464 0.232801
vt 0.252093 0.278854
vt 0.290249 0.286626
vt 0.270640 0.281469
vt 0.368453 0.316704
vn 0.000000 0.000000 -1.000000
s 1
f 7/1/1 8/2/1 18/3/1
f 35/4/1 64/5/1 34/6/1
f 23/7/1 1/8/1 4/9/1
f 1/8/1 2/10/1 3/11/1
f 21/12/1 22/13/1 5/14/1
f 19/15/1 20/16/1 6/17/1
f 17/18/1 18/3/1 8/2/1
f 15/19/1 16/20/1 14/21/1
f 12/22/1 13/23/1 11/24/1
f 14/21/1 16/20/1 9/25/1
f 18/3/1 19/15/1 7/1/1
f 22/13/1 23/7/1 4/9/1
f 1/8/1 3/11/1 4/9/1
f 11/24/1 13/23/1 10/26/1
f 10/26/1 13/23/1 9/25/1
f 22/13/1 4/9/1 5/14/1
f 21/12/1 5/14/1 20/16/1
f 9/25/1 13/23/1 14/21/1
f 8/2/1 9/25/1 17/18/1
f 20/16/1 5/14/1 6/17/1
f 19/15/1 6/17/1 7/1/1
f 9/25/1 16/20/1 17/18/1
f 74/27/1 24/28/1 27/29/1
f 25/30/1 16/20/1 26/31/1
f 16/20/1 15/19/1 26/31/1
f 73/32/1 74/27/1 28/33/1
f 71/34/1 72/35/1 30/36/1
f 69/37/1 70/38/1 31/39/1
f 67/40/1 68/41/1 33/42/1
f 65/43/1 66/44/1 34/6/1
f 63/45/1 64/5/1 35/4/1
f 61/46/1 36/47/1 37/48/1
f 59/49/1 60/50/1 37/48/1
f 57/51/1 58/52/1 38/53/1
f 55/54/1 56/55/1 44/56/1
f 53/57/1 54/58/1 45/59/1
f 51/60/1 52/61/1 46/62/1
f 49/63/1 50/64/1 2/10/1
f 1/8/1 48/65/1 2/10/1
f 47/66/1 2/10/1 50/64/1
f 46/62/1 47/66/1 51/60/1
f 48/65/1 49/63/1 2/10/1
f 52/61/1 53/57/1 46/62/1
f 58/52/1 59/49/1 38/53/1
f 54/58/1 55/54/1 45/59/1
f 47/66/1 50/64/1 51/60/1
f 45/59/1 46/62/1 53/57/1
f 59/49/1 37/48/1 38/53/1
f 45/59/1 55/54/1 44/56/1
f 44/56/1 56/55/1 43/67/1
f 61/46/1 37/48/1 60/50/1
f 66/44/1 67/40/1 33/42/1
f 70/38/1 30/36/1 31/39/1
f 24/28/1 25/30/1 26/31/1
f 24/28/1 26/31/1 27/29/1
f 68/41/1 69/37/1 32/68/1
f 43/67/1 56/55/1 57/51/1
f 74/27/1 27/29/1 28/33/1
f 73/32/1 28/33/1 29/69/1
f 43/67/1 57/51/1 42/70/1
f 13/23/1 12/22/1 41/71/1
f 42/70/1 57/51/1 39/72/1
f 73/32/1 29/69/1 72/35/1
f 29/69/1 30/36/1 72/35/1
f 41/71/1 12/22/1 40/73/1
f 40/73/1 12/22/1 42/70/1
f 71/34/1 30/36/1 70/38/1
f 69/37/1 31/39/1 32/68/1
f 39/72/1 40/73/1 42/70/1
f 38/53/1 39/72/1 57/51/1
f 68/41/1 32/68/1 33/42/1
f 66/44/1 33/42/1 34/6/1
f 62/74/1 36/47/1 61/46/1
f 62/74/1 63/45/1 36/47/1
f 65/43/1 34/6/1 64/5/1
f 36/47/1 63/45/1 35/4/1
