# Blender v2.77 (sub 0) OBJ File: ''
# www.blender.org
g Bottom_Left_C
v -0.009380 0.750000 0.000000
v -0.018172 0.750000 0.000000
v -0.498500 -0.219343 -0.000000
v -0.702363 -0.267630 -0.000000
v -0.671719 -0.367180 -0.000000
v -0.621994 -0.458583 -0.000000
v -0.561499 -0.537521 -0.000000
v -0.492324 -0.606043 0.000000
v -0.427096 -0.655481 -0.000000
v -0.342632 -0.696551 -0.000000
v -0.262178 -0.722677 -0.000000
v -0.164568 -0.740350 -0.000000
v -0.088047 -0.747197 -0.000000
v -0.002912 -0.747646 -0.000000
v 0.099382 -0.743884 -0.000000
v 0.186838 -0.729277 -0.000000
v 0.285009 -0.701798 0.000000
v 0.391685 -0.650671 0.000000
v 0.474787 -0.590835 0.000000
v 0.540629 -0.515928 -0.000000
v 0.599957 -0.436785 -0.000000
v 0.639946 -0.355544 -0.000000
v 0.671232 -0.263731 -0.000000
v 0.698150 -0.167821 -0.000000
v 0.709880 -0.050853 -0.000000
v 0.711262 0.029772 0.000000
v 0.706041 0.133490 0.000000
v 0.688102 0.234801 0.000000
v 0.651086 0.339986 0.000000
v 0.603737 0.428031 0.000000
v 0.548150 0.505331 0.000000
v 0.484331 0.574034 0.000000
v 0.410235 0.627925 0.000000
v 0.325846 0.673313 0.000000
v 0.231195 0.710234 -0.000000
v 0.155652 0.730584 -0.000000
v 0.078150 0.742602 0.000000
v -0.089060 0.743753 0.000000
v -0.172524 0.737088 0.000000
v -0.264249 0.724181 -0.000000
v -0.345536 0.696866 0.000000
v -0.428936 0.655073 0.000000
v -0.499902 0.605061 0.000000
v -0.564776 0.536407 -0.000000
v -0.621464 0.457346 0.000000
v -0.657373 0.384492 0.000000
v -0.676564 0.326163 0.000000
v -0.470490 0.284939 0.000000
v -0.445144 0.339255 -0.000000
v -0.417716 0.397691 -0.000000
v -0.369428 0.462375 0.000000
v -0.323348 0.506210 0.000000
v -0.264784 0.543846 -0.000000
v -0.185363 0.569106 0.000000
v -0.105908 0.588146 0.000000
v -0.026397 0.588494 -0.000000
v 0.069985 0.580594 -0.000000
v 0.164453 0.560175 0.000000
v 0.244435 0.522971 0.000000
v 0.328903 0.462711 0.000000
v 0.384043 0.402196 -0.000000
v 0.426640 0.339409 0.000000
v 0.456719 0.261736 0.000000
v 0.480618 0.167001 0.000000
v 0.491885 0.065657 0.000000
v 0.494664 -0.033840 -0.000000
v 0.484692 -0.135703 0.000000
v 0.461886 -0.233531 -0.000000
v 0.438919 -0.312360 -0.000000
v 0.400881 -0.372047 -0.000000
v 0.362787 -0.427513 0.000000
v 0.296967 -0.489354 -0.000000
v 0.233162 -0.527672 0.000000
v 0.154435 -0.561647 -0.000000
v 0.073583 -0.580605 -0.000000
v -0.017843 -0.586655 -0.000000
v -0.102789 -0.586305 -0.000000
v -0.193946 -0.564550 -0.000000
v -0.276439 -0.532195 -0.000000
v -0.343913 -0.482907 0.000000
v -0.400664 -0.427378 -0.000000
v -0.440387 -0.361400 -0.000000
v -0.475743 -0.282867 -0.000000
vt 0.072530 0.237287
vt 0.126334 0.241540
vt 0.072185 0.257443
vt 0.254543 0.437500
vt 0.252345 0.437500
vt 0.256599 0.397123
vt 0.230462 0.435650
vt 0.211087 0.432646
vt 0.232504 0.395148
vt 0.192201 0.427558
vt 0.188891 0.380743
vt 0.208887 0.390044
vt 0.147441 0.406981
vt 0.128917 0.393509
vt 0.167774 0.365678
vt 0.112962 0.376333
vt 0.143340 0.334852
vt 0.153989 0.350549
vt 0.087229 0.334997
vt 0.077975 0.308700
vt 0.135820 0.315434
vt 0.073490 0.283373
vt 0.127029 0.266415
vt 0.075462 0.208045
vt 0.128827 0.216075
vt 0.082192 0.184067
vt 0.090013 0.161114
vt 0.134529 0.191617
vt 0.100011 0.140804
vt 0.114843 0.121018
vt 0.149780 0.156988
vt 0.131304 0.102292
vt 0.152079 0.087332
vt 0.175758 0.127661
vt 0.178748 0.074551
vt 0.203291 0.067681
vt 0.211391 0.109588
vt 0.225155 0.064029
vt 0.250728 0.063088
vt 0.231604 0.104849
vt 0.272012 0.063201
vt 0.291142 0.064912
vt 0.275697 0.103424
vt 0.315545 0.069331
vt 0.319110 0.116951
vt 0.298487 0.108862
vt 0.356774 0.086130
vt 0.373081 0.098489
vt 0.335978 0.129273
vt 0.390375 0.115620
vt 0.405498 0.135355
vt 0.360097 0.159649
vt 0.417930 0.158205
vt 0.425591 0.183092
vt 0.374625 0.195165
vt 0.368936 0.179283
vt 0.350166 0.143156
vt 0.159304 0.143122
vt 0.129845 0.291750
vt 0.272265 0.435938
vt 0.316062 0.431045
vt 0.293131 0.434272
vt 0.296341 0.392276
vt 0.357234 0.413768
vt 0.336384 0.424217
vt 0.330837 0.376553
vt 0.391194 0.384102
vt 0.342357 0.365594
vt 0.354430 0.349422
vt 0.414343 0.346123
vt 0.405366 0.364336
vt 0.361286 0.334814
vt 0.367622 0.321235
vt 0.419141 0.331541
vt 0.316196 0.385961
vt 0.099066 0.357008
vt 0.140270 0.171910
vt 0.254461 0.103336
vt 0.276477 0.397036
vt 0.374975 0.401265
vt 0.335658 0.075862
vt 0.191710 0.118082
vt 0.168538 0.418328
vn -0.000000 0.000000 -1.000000
s 1
f 25/1/1 66/2/1 26/3/1
f 2/4/1 1/5/1 56/6/1
f 37/7/1 36/8/1 57/9/1
f 35/10/1 59/11/1 58/12/1
f 33/13/1 32/14/1 60/15/1
f 31/16/1 62/17/1 61/18/1
f 29/19/1 28/20/1 63/21/1
f 27/22/1 26/3/1 65/23/1
f 25/1/1 24/24/1 67/25/1
f 23/26/1 22/27/1 68/28/1
f 21/29/1 20/30/1 70/31/1
f 19/32/1 18/33/1 72/34/1
f 17/35/1 16/36/1 74/37/1
f 15/38/1 14/39/1 75/40/1
f 13/41/1 12/42/1 77/43/1
f 11/44/1 79/45/1 78/46/1
f 9/47/1 8/48/1 80/49/1
f 7/50/1 6/51/1 82/52/1
f 5/53/1 4/54/1 3/55/1
f 5/53/1 3/55/1 83/56/1
f 8/48/1 7/50/1 81/57/1
f 12/42/1 11/44/1 78/46/1
f 16/36/1 15/38/1 75/40/1
f 20/30/1 19/32/1 71/58/1
f 24/24/1 23/26/1 67/25/1
f 28/20/1 64/59/1 63/21/1
f 32/14/1 31/16/1 61/18/1
f 36/8/1 58/12/1 57/9/1
f 38/60/1 2/4/1 56/6/1
f 40/61/1 39/62/1 54/63/1
f 42/64/1 41/65/1 52/66/1
f 44/67/1 51/68/1 50/69/1
f 46/70/1 45/71/1 49/72/1
f 48/73/1 47/74/1 46/70/1
f 49/72/1 48/73/1 46/70/1
f 45/71/1 50/69/1 49/72/1
f 41/65/1 40/61/1 53/75/1
f 1/5/1 37/7/1 56/6/1
f 30/76/1 62/17/1 31/16/1
f 22/27/1 21/29/1 69/77/1
f 14/39/1 13/41/1 76/78/1
f 6/51/1 5/53/1 83/56/1
f 6/51/1 83/56/1 82/52/1
f 39/62/1 38/60/1 55/79/1
f 45/71/1 44/67/1 50/69/1
f 44/67/1 43/80/1 51/68/1
f 7/50/1 82/52/1 81/57/1
f 8/48/1 81/57/1 80/49/1
f 51/68/1 43/80/1 52/66/1
f 52/66/1 43/80/1 42/64/1
f 9/47/1 80/49/1 79/45/1
f 9/47/1 79/45/1 10/81/1
f 53/75/1 52/66/1 41/65/1
f 54/63/1 53/75/1 40/61/1
f 10/81/1 79/45/1 11/44/1
f 12/42/1 78/46/1 77/43/1
f 55/79/1 54/63/1 39/62/1
f 56/6/1 55/79/1 38/60/1
f 13/41/1 77/43/1 76/78/1
f 14/39/1 76/78/1 75/40/1
f 56/6/1 37/7/1 57/9/1
f 36/8/1 35/10/1 58/12/1
f 16/36/1 75/40/1 74/37/1
f 17/35/1 74/37/1 73/82/1
f 35/10/1 34/83/1 59/11/1
f 59/11/1 34/83/1 33/13/1
f 17/35/1 73/82/1 18/33/1
f 73/82/1 72/34/1 18/33/1
f 60/15/1 59/11/1 33/13/1
f 61/18/1 60/15/1 32/14/1
f 19/32/1 72/34/1 71/58/1
f 20/30/1 71/58/1 70/31/1
f 30/76/1 63/21/1 62/17/1
f 30/76/1 29/19/1 63/21/1
f 21/29/1 70/31/1 69/77/1
f 22/27/1 69/77/1 68/28/1
f 28/20/1 27/22/1 64/59/1
f 64/59/1 27/22/1 65/23/1
f 23/26/1 68/28/1 67/25/1
f 25/1/1 67/25/1 66/2/1
f 65/23/1 26/3/1 66/2/1
