# Blender v2.77 (sub 0) OBJ File: ''
# www.blender.org
mtllib BLDoubleArrow.mtl
o Plane.001
v -1.000000 0.293530 0.000100
v -1.000023 -0.999903 0.000100
v 0.293507 -0.999903 0.000100
v 0.234171 -0.927617 0.000100
v 0.187967 -0.841174 0.000100
v 0.159514 -0.747377 0.000100
v 0.149906 -0.649832 0.000100
v 0.159584 -0.552358 0.000100
v 0.188029 -0.458564 0.000100
v 0.234234 -0.372120 0.000100
v 0.296415 -0.296352 0.000100
v 0.372184 -0.234170 0.000100
v 0.458627 -0.187965 0.000100
v 0.552361 -0.159439 0.000100
v 0.649906 -0.149832 0.000100
v 0.747522 -0.159510 0.000100
v 0.841318 -0.187963 0.000100
v 0.927762 -0.234168 0.000100
v 0.999906 -0.293362 0.000100
v 0.999977 1.000097 0.000100
v -0.293455 1.000066 0.000100
v -0.234228 0.927923 0.000069
v -0.188016 0.841467 0.000069
v -0.159536 0.747560 0.000069
v -0.149927 0.650000 0.000069
v -0.159536 0.552441 0.000069
v -0.187993 0.458630 0.000069
v -0.234265 0.372215 0.000100
v -0.296447 0.296447 0.000100
v -0.372215 0.234265 0.000100
v -0.458615 0.187979 0.000139
v -0.552455 0.159607 0.000100
v -0.650000 0.150000 0.000100
v -0.747545 0.159607 0.000100
v -0.841342 0.188060 0.000100
v -0.927785 0.234265 0.000100
vt 0.501950 0.325300
vt 0.501955 0.001942
vt 0.178573 0.001942
vt 0.193407 0.020013
vt 0.204958 0.041624
vt 0.212071 0.065073
vt 0.214473 0.089460
vt 0.212054 0.113828
vt 0.204942 0.137277
vt 0.193391 0.158888
vt 0.177846 0.177830
vt 0.158904 0.193375
vt 0.137293 0.204926
vt 0.113860 0.212058
vt 0.089473 0.214460
vt 0.065069 0.212040
vt 0.041620 0.204927
vt 0.020009 0.193376
vt 0.001973 0.178577
vt 0.001955 0.501942
vt 0.325313 0.501934
vt 0.310507 0.483898
vt 0.298954 0.462284
vt 0.291834 0.438808
vt 0.289431 0.414418
vt 0.291834 0.390028
vt 0.298948 0.366575
vt 0.310516 0.344971
vt 0.326061 0.326029
vt 0.345003 0.310484
vt 0.366603 0.298912
vt 0.390063 0.291820
vt 0.414450 0.289418
vt 0.438836 0.291820
vt 0.462285 0.298933
vt 0.483896 0.310484
vn -0.000000 -0.000000 1.000000
usemtl Material.006
s 1
f 1/1/1 2/2/1 3/3/1 4/4/1 5/5/1 6/6/1 7/7/1 8/8/1 9/9/1 10/10/1 11/11/1 12/12/1 13/13/1 14/14/1 15/15/1 16/16/1 17/17/1 18/18/1 19/19/1 20/20/1 21/21/1 22/22/1 23/23/1 24/24/1 25/25/1 26/26/1 27/27/1 28/28/1 29/29/1 30/30/1 31/31/1 32/32/1 33/33/1 34/34/1 35/35/1 36/36/1
