# Blender v2.77 (sub 0) OBJ File: ''
# www.blender.org
g Bottom_Left_F
v 0.391591 0.750000 0.000000
v -0.403962 0.750000 0.000000
v 0.179960 -0.750000 -0.000000
v 0.390668 -0.750000 -0.000000
v 0.177294 -0.053874 -0.000000
v -0.400825 -0.049070 -0.000000
v -0.401499 0.141492 0.000000
v 0.176059 0.139823 0.000000
v 0.175953 0.551228 -0.000000
v -0.400512 0.552074 -0.000000
vt 0.152102 0.437500
vt 0.205677 0.236532
vt 0.205985 0.284956
vt 0.152333 0.062500
vt 0.350206 0.237732
vt 0.205010 0.062500
vt 0.350128 0.388018
vt 0.350990 0.437500
vt 0.206012 0.387807
vt 0.350375 0.285373
vn 0.000000 0.000000 -1.000000
s 1
f 1/1/1 5/2/1 8/3/1
f 1/1/1 4/4/1 5/2/1
f 5/2/1 6/5/1 8/3/1
f 4/4/1 3/6/1 5/2/1
f 10/7/1 2/8/1 9/9/1
f 9/9/1 2/8/1 1/1/1
f 6/5/1 7/10/1 8/3/1
f 8/3/1 9/9/1 1/1/1
