# Blender v2.77 (sub 0) OBJ File: ''
# www.blender.org
g Bottom_Left_G
v -0.098727 0.750000 0.000000
v -0.168684 -0.750000 -0.000000
v -0.620283 0.417850 0.000000
v -0.618779 0.622619 0.000000
v -0.536530 0.658807 0.000000
v -0.427927 0.692968 0.000000
v -0.331205 0.724691 -0.000000
v -0.227284 0.740108 0.000000
v -0.169131 0.747916 0.000000
v -0.006172 0.742949 0.000000
v 0.077080 0.732170 0.000000
v 0.175654 0.709618 -0.000000
v 0.270088 0.677275 0.000000
v 0.360654 0.622935 0.000000
v 0.439523 0.567955 0.000000
v 0.522164 0.492873 0.000000
v 0.590642 0.409428 0.000000
v 0.637001 0.317448 -0.000000
v 0.675952 0.229487 0.000000
v 0.697013 0.143182 -0.000000
v 0.708000 0.050958 0.000000
v 0.711304 -0.044689 -0.000000
v 0.699265 -0.154219 -0.000000
v 0.663782 -0.280496 -0.000000
v 0.608847 -0.391749 0.000000
v 0.524127 -0.500726 -0.000000
v 0.435580 -0.580440 -0.000000
v 0.346408 -0.641337 -0.000000
v 0.246318 -0.688448 0.000000
v 0.148761 -0.719198 -0.000000
v 0.056593 -0.741812 -0.000000
v -0.030117 -0.745376 -0.000000
v -0.301071 -0.733996 -0.000000
v -0.414207 -0.707217 0.000000
v -0.516258 -0.680853 -0.000000
v -0.592005 -0.649845 -0.000000
v -0.652403 -0.629972 -0.000000
v -0.648153 -0.009597 -0.000000
v -0.147832 -0.009476 -0.000000
v -0.151735 -0.201550 -0.000000
v -0.441954 -0.196290 -0.000000
v -0.440609 -0.493164 -0.000000
v -0.318793 -0.534956 0.000000
v -0.187845 -0.553223 0.000000
v -0.061044 -0.558127 -0.000000
v 0.045615 -0.541215 -0.000000
v 0.162943 -0.505643 -0.000000
v 0.277517 -0.443215 0.000000
v 0.365413 -0.361873 -0.000000
v 0.424091 -0.277877 0.000000
v 0.464098 -0.191542 -0.000000
v 0.487717 -0.084875 -0.000000
v 0.495263 0.033721 0.000000
v 0.474120 0.163713 0.000000
v 0.420369 0.279399 0.000000
v 0.337100 0.388437 -0.000000
v 0.247916 0.464118 0.000000
v 0.167509 0.505017 -0.000000
v 0.060507 0.540543 0.000000
v -0.070207 0.558733 -0.000000
v -0.187916 0.550533 -0.000000
v -0.300340 0.532830 -0.000000
v -0.412604 0.503209 0.000000
v -0.510221 0.468957 -0.000000
vt 0.084055 0.179876
vt 0.143977 0.180531
vt 0.133976 0.202115
vt 0.257529 0.063656
vt 0.292171 0.062500
vt 0.265261 0.110468
vt 0.325268 0.066501
vt 0.353552 0.073196
vt 0.329698 0.116261
vt 0.398001 0.087539
vt 0.413101 0.092507
vt 0.360152 0.126709
vt 0.235852 0.064547
vt 0.238596 0.114696
vt 0.188420 0.077888
vt 0.212810 0.070201
vt 0.209264 0.123589
vt 0.141105 0.104890
vt 0.163398 0.089666
vt 0.180621 0.139196
vt 0.097788 0.152063
vt 0.158647 0.159532
vt 0.075184 0.211445
vt 0.073000 0.262739
vt 0.072174 0.238828
vt 0.126184 0.258430
vt 0.081012 0.307372
vt 0.075747 0.285796
vt 0.131470 0.290928
vt 0.102340 0.352357
vt 0.090750 0.329362
vt 0.144908 0.319850
vt 0.140119 0.391989
vt 0.119459 0.373218
vt 0.165725 0.347109
vt 0.182478 0.419319
vt 0.159836 0.405734
vt 0.188021 0.366029
vt 0.230730 0.433043
vt 0.206086 0.427405
vt 0.234873 0.385136
vt 0.274682 0.437500
vt 0.251543 0.435737
vt 0.267552 0.389683
vt 0.306821 0.435027
vt 0.292283 0.436979
vt 0.296979 0.387633
vt 0.356982 0.423242
vt 0.332801 0.431173
vt 0.325085 0.383207
vt 0.404695 0.405655
vt 0.384133 0.414702
vt 0.377555 0.367239
vt 0.405071 0.354463
vt 0.353151 0.375802
vt 0.208123 0.376254
vt 0.128071 0.228781
vt 0.296961 0.111694
vt 0.412038 0.247601
vt 0.286958 0.247631
vt 0.360489 0.200928
vt 0.287934 0.199612
vt 0.379064 0.079787
vt 0.118968 0.124819
vn -0.000000 -0.000000 -1.000000
s 1
f 24/1/1 50/2/1 51/3/1
f 32/4/1 2/5/1 45/6/1
f 33/7/1 34/8/1 43/9/1
f 36/10/1 37/11/1 42/12/1
f 34/8/1 42/12/1 43/9/1
f 31/13/1 32/4/1 46/14/1
f 29/15/1 30/16/1 47/17/1
f 27/18/1 28/19/1 48/20/1
f 25/21/1 49/22/1 50/2/1
f 23/23/1 24/1/1 51/3/1
f 21/24/1 22/25/1 53/26/1
f 19/27/1 20/28/1 54/29/1
f 17/30/1 18/31/1 55/32/1
f 15/33/1 16/34/1 56/35/1
f 13/36/1 14/37/1 57/38/1
f 11/39/1 12/40/1 59/41/1
f 1/42/1 10/43/1 60/44/1
f 8/45/1 9/46/1 61/47/1
f 6/48/1 7/49/1 62/50/1
f 4/51/1 5/52/1 64/53/1
f 64/53/1 3/54/1 4/51/1
f 63/55/1 64/53/1 5/52/1
f 5/52/1 6/48/1 63/55/1
f 9/46/1 60/44/1 61/47/1
f 12/40/1 13/36/1 58/56/1
f 16/34/1 55/32/1 56/35/1
f 20/28/1 21/24/1 53/26/1
f 23/23/1 51/3/1 52/57/1
f 28/19/1 29/15/1 47/17/1
f 2/5/1 33/7/1 44/58/1
f 38/59/1 39/60/1 41/61/1
f 39/60/1 40/62/1 41/61/1
f 30/16/1 31/13/1 46/14/1
f 22/25/1 23/23/1 52/57/1
f 14/37/1 15/33/1 57/38/1
f 7/49/1 8/45/1 62/50/1
f 62/50/1 63/55/1 6/48/1
f 61/47/1 62/50/1 8/45/1
f 37/11/1 38/59/1 41/61/1
f 37/11/1 41/61/1 42/12/1
f 9/46/1 1/42/1 60/44/1
f 60/44/1 10/43/1 59/41/1
f 36/10/1 42/12/1 35/63/1
f 42/12/1 34/8/1 35/63/1
f 59/41/1 10/43/1 11/39/1
f 58/56/1 59/41/1 12/40/1
f 33/7/1 43/9/1 44/58/1
f 2/5/1 44/58/1 45/6/1
f 57/38/1 58/56/1 13/36/1
f 56/35/1 57/38/1 15/33/1
f 32/4/1 45/6/1 46/14/1
f 30/16/1 46/14/1 47/17/1
f 16/34/1 17/30/1 55/32/1
f 55/32/1 18/31/1 54/29/1
f 28/19/1 47/17/1 48/20/1
f 27/18/1 48/20/1 49/22/1
f 54/29/1 18/31/1 19/27/1
f 53/26/1 54/29/1 20/28/1
f 27/18/1 49/22/1 26/64/1
f 49/22/1 25/21/1 26/64/1
f 52/57/1 53/26/1 22/25/1
f 50/2/1 24/1/1 25/21/1
