# Blender v2.77 (sub 0) OBJ File: ''
# www.blender.org
g Bottom_Left_H
v 0.625096 0.750000 0.000000
v 0.412704 0.750000 0.000000
v -0.429115 0.750000 0.000000
v -0.638681 0.750000 0.000000
v -0.643808 -0.750000 -0.000000
v -0.430966 -0.750000 -0.000000
v 0.411392 -0.750000 -0.000000
v 0.626775 -0.750000 -0.000000
v 0.411980 -0.098645 0.000000
v -0.421655 -0.090352 -0.000000
v -0.428381 0.098487 0.000000
v 0.413109 0.100174 0.000000
vt 0.355414 0.227412
vt 0.357095 0.274622
vt 0.146723 0.275043
vt 0.146824 0.437500
vt 0.093726 0.437500
vt 0.093306 0.062500
vt 0.147152 0.062500
vt 0.147005 0.225339
vt 0.357742 0.062500
vt 0.410952 0.062500
vt 0.409670 0.437500
vt 0.357279 0.437500
vn 0.000000 0.000000 -1.000000
s 1
f 10/1/1 11/2/1 12/3/1
f 2/4/1 1/5/1 12/3/1
f 8/6/1 7/7/1 9/8/1
f 10/1/1 6/9/1 5/10/1
f 10/1/1 5/10/1 11/2/1
f 4/11/1 3/12/1 11/2/1
f 12/3/1 1/5/1 8/6/1
f 5/10/1 4/11/1 11/2/1
f 12/3/1 8/6/1 9/8/1
f 9/8/1 10/1/1 12/3/1
