# Blender v2.77 (sub 0) OBJ File: ''
# www.blender.org
g Bottom_Left_O
v 0.028544 0.750000 0.000000
v 0.115369 0.741974 0.000000
v 0.212404 0.721328 0.000000
v 0.300144 0.691215 0.000000
v 0.384711 0.651477 0.000000
v 0.470619 0.594244 -0.000000
v 0.539447 0.534497 0.000000
v 0.595424 0.464316 0.000000
v 0.650313 0.389270 0.000000
v 0.687775 0.309178 0.000000
v 0.722708 0.211541 -0.000000
v 0.740228 0.133029 0.000000
v 0.748511 0.070268 -0.000000
v 0.749718 -0.044475 -0.000000
v 0.741893 -0.120096 -0.000000
v 0.721030 -0.229883 -0.000000
v 0.685191 -0.314754 -0.000000
v 0.636246 -0.410032 -0.000000
v 0.566818 -0.509239 0.000000
v 0.482139 -0.591291 0.000000
v 0.388881 -0.653049 0.000000
v 0.294221 -0.698648 -0.000000
v 0.182878 -0.730150 0.000000
v 0.064084 -0.747308 -0.000000
v -0.064002 -0.745156 -0.000000
v -0.173947 -0.730884 -0.000000
v -0.272138 -0.702180 -0.000000
v -0.371557 -0.654495 -0.000000
v -0.478298 -0.585916 -0.000000
v -0.561343 -0.508723 -0.000000
v -0.633357 -0.409524 0.000000
v -0.688863 -0.309654 -0.000000
v -0.725255 -0.195923 -0.000000
v -0.745752 -0.080003 0.000000
v -0.749804 0.020900 -0.000000
v -0.739808 0.109597 0.000000
v -0.718385 0.215469 0.000000
v -0.694501 0.299156 0.000000
v -0.657127 0.373609 0.000000
v -0.607731 0.452976 0.000000
v -0.545122 0.527307 0.000000
v -0.463253 0.602528 0.000000
v -0.385393 0.652071 0.000000
v -0.286498 0.699248 0.000000
v -0.188829 0.727314 0.000000
v -0.105638 0.742186 0.000000
v -0.030610 0.749573 0.000000
v 0.002979 0.556066 0.000000
v 0.083326 0.548292 -0.000000
v 0.169878 0.534695 0.000000
v 0.224582 0.513309 -0.000000
v 0.283775 0.482071 0.000000
v 0.351704 0.440815 0.000000
v 0.412808 0.377380 -0.000000
v 0.464616 0.307177 0.000000
v 0.491522 0.254456 0.000000
v 0.519820 0.176509 0.000000
v 0.537876 0.101662 0.000000
v 0.542965 0.038526 0.000000
v 0.546715 -0.040315 -0.000000
v 0.534000 -0.131153 0.000000
v 0.507722 -0.212393 -0.000000
v 0.466395 -0.306027 0.000000
v 0.402127 -0.387539 0.000000
v 0.334299 -0.454066 0.000000
v 0.245521 -0.505106 -0.000000
v 0.166741 -0.537860 0.000000
v 0.071906 -0.554401 0.000000
v -0.036473 -0.556931 -0.000000
v -0.140297 -0.540710 0.000000
v -0.230364 -0.510521 -0.000000
v -0.319392 -0.457350 0.000000
v -0.404775 -0.384073 -0.000000
v -0.458571 -0.307128 -0.000000
v -0.506698 -0.215621 -0.000000
v -0.530779 -0.129855 -0.000000
v -0.545103 -0.025987 -0.000000
v -0.539573 0.090783 -0.000000
v -0.523415 0.168013 0.000000
v -0.483746 0.266650 0.000000
v -0.435399 0.341504 -0.000000
v -0.377790 0.407411 -0.000000
v -0.321330 0.456808 -0.000000
v -0.251431 0.497943 0.000000
v -0.178235 0.527117 -0.000000
v -0.109564 0.546465 0.000000
v -0.051230 0.556098 0.000000
vt 0.259118 0.110767
vt 0.232024 0.111400
vt 0.233979 0.063173
vt 0.242864 0.437500
vt 0.229168 0.387073
vt 0.249255 0.389017
vt 0.113321 0.239921
vt 0.062571 0.238881
vt 0.064527 0.219976
vt 0.069743 0.192529
vt 0.116500 0.217212
vt 0.078702 0.171311
vt 0.090939 0.147492
vt 0.133401 0.173493
vt 0.108295 0.122690
vt 0.129465 0.102177
vt 0.149468 0.153115
vt 0.152780 0.086738
vt 0.176445 0.075338
vt 0.188620 0.123723
vt 0.204281 0.067463
vt 0.266000 0.063711
vt 0.293487 0.067279
vt 0.285074 0.114823
vt 0.318035 0.074455
vt 0.342889 0.086376
vt 0.307591 0.122370
vt 0.369574 0.103521
vt 0.390335 0.122819
vt 0.351194 0.153982
vt 0.408339 0.147619
vt 0.422216 0.172586
vt 0.364643 0.173218
vt 0.431314 0.201019
vt 0.436438 0.229999
vt 0.382694 0.217537
vt 0.386276 0.243503
vt 0.208315 0.115535
vt 0.123070 0.196902
vt 0.166425 0.136484
vt 0.329848 0.135663
vt 0.376675 0.196095
vt 0.437451 0.255225
vt 0.434952 0.277399
vt 0.384893 0.272696
vt 0.429596 0.303867
vt 0.423625 0.324789
vt 0.380854 0.292003
vt 0.414282 0.343402
vt 0.401933 0.363244
vt 0.370937 0.316663
vt 0.386281 0.381827
vt 0.365813 0.400632
vt 0.344447 0.351853
vt 0.346348 0.413018
vt 0.321624 0.424812
vt 0.312858 0.374486
vt 0.297207 0.431828
vt 0.276409 0.435546
vt 0.277391 0.386616
vt 0.257653 0.437393
vt 0.221158 0.435493
vt 0.196899 0.430332
vt 0.207531 0.383673
vt 0.174964 0.422804
vt 0.179056 0.370518
vt 0.193854 0.378327
vt 0.132345 0.398561
vt 0.115138 0.383624
vt 0.162074 0.360204
vt 0.101144 0.366079
vt 0.087422 0.347317
vt 0.133846 0.326794
vt 0.078056 0.327295
vt 0.120045 0.294127
vt 0.127120 0.313614
vt 0.064943 0.283257
vt 0.062872 0.267567
vt 0.115531 0.275416
vt 0.114259 0.259632
vt 0.069323 0.302885
vt 0.146798 0.344345
vt 0.262808 0.389024
vt 0.330332 0.364202
vt 0.358850 0.335376
vt 0.153822 0.412869
vt 0.294559 0.381779
vn -0.000000 0.000000 -1.000000
s 1
f 69/1/1 68/2/1 24/3/1
f 1/4/1 49/5/1 48/6/1
f 60/7/1 14/8/1 15/9/1
f 15/9/1 16/10/1 61/11/1
f 17/12/1 18/13/1 63/14/1
f 19/15/1 20/16/1 64/17/1
f 21/18/1 22/19/1 66/20/1
f 23/21/1 24/3/1 68/2/1
f 25/22/1 26/23/1 70/24/1
f 27/25/1 28/26/1 71/27/1
f 29/28/1 30/29/1 73/30/1
f 31/31/1 32/32/1 74/33/1
f 33/34/1 34/35/1 76/36/1
f 34/35/1 77/37/1 76/36/1
f 30/29/1 74/33/1 73/30/1
f 26/23/1 27/25/1 70/24/1
f 22/19/1 67/38/1 66/20/1
f 18/13/1 19/15/1 63/14/1
f 60/7/1 15/9/1 61/11/1
f 61/11/1 16/10/1 62/39/1
f 20/16/1 21/18/1 65/40/1
f 28/26/1 29/28/1 72/41/1
f 33/34/1 76/36/1 75/42/1
f 33/34/1 75/42/1 32/32/1
f 62/39/1 16/10/1 17/12/1
f 63/14/1 62/39/1 17/12/1
f 75/42/1 74/33/1 32/32/1
f 74/33/1 30/29/1 31/31/1
f 64/17/1 63/14/1 19/15/1
f 65/40/1 64/17/1 20/16/1
f 29/28/1 73/30/1 72/41/1
f 28/26/1 72/41/1 71/27/1
f 65/40/1 21/18/1 66/20/1
f 22/19/1 23/21/1 67/38/1
f 27/25/1 71/27/1 70/24/1
f 25/22/1 70/24/1 69/1/1
f 67/38/1 23/21/1 68/2/1
f 25/22/1 69/1/1 24/3/1
f 77/37/1 34/35/1 35/43/1
f 35/43/1 36/44/1 78/45/1
f 37/46/1 38/47/1 79/48/1
f 39/49/1 40/50/1 80/51/1
f 41/52/1 42/53/1 82/54/1
f 43/55/1 44/56/1 84/57/1
f 45/58/1 46/59/1 86/60/1
f 47/61/1 1/4/1 48/6/1
f 2/62/1 3/63/1 50/64/1
f 4/65/1 52/66/1 51/67/1
f 6/68/1 7/69/1 53/70/1
f 8/71/1 9/72/1 55/73/1
f 10/74/1 57/75/1 56/76/1
f 12/77/1 13/78/1 58/79/1
f 14/8/1 60/7/1 59/80/1
f 14/8/1 59/80/1 13/78/1
f 11/81/1 57/75/1 10/74/1
f 7/69/1 8/71/1 54/82/1
f 3/63/1 4/65/1 50/64/1
f 46/59/1 47/61/1 87/83/1
f 42/53/1 83/84/1 82/54/1
f 38/47/1 39/49/1 80/51/1
f 77/37/1 35/43/1 78/45/1
f 78/45/1 36/44/1 37/46/1
f 40/50/1 81/85/1 80/51/1
f 1/4/1 2/62/1 49/5/1
f 9/72/1 10/74/1 56/76/1
f 59/80/1 58/79/1 13/78/1
f 58/79/1 11/81/1 12/77/1
f 79/48/1 78/45/1 37/46/1
f 80/51/1 79/48/1 38/47/1
f 58/79/1 57/75/1 11/81/1
f 9/72/1 56/76/1 55/73/1
f 40/50/1 41/52/1 81/85/1
f 81/85/1 41/52/1 82/54/1
f 8/71/1 55/73/1 54/82/1
f 7/69/1 54/82/1 53/70/1
f 42/53/1 43/55/1 83/84/1
f 83/84/1 43/55/1 84/57/1
f 6/68/1 53/70/1 5/86/1
f 53/70/1 52/66/1 5/86/1
f 84/57/1 44/56/1 85/87/1
f 85/87/1 44/56/1 45/58/1
f 5/86/1 52/66/1 4/65/1
f 4/65/1 51/67/1 50/64/1
f 86/60/1 85/87/1 45/58/1
f 87/83/1 86/60/1 46/59/1
f 2/62/1 50/64/1 49/5/1
f 48/6/1 87/83/1 47/61/1
