# Blender v2.77 (sub 0) OBJ File: ''
# www.blender.org
g Bottom_Left_S
v 0.034774 -0.750000 -0.000000
v 0.109454 -0.750000 -0.000000
v -0.312327 0.409052 0.000000
v -0.309712 0.643753 0.000000
v -0.232777 0.686716 0.000000
v -0.130684 0.724869 0.000000
v -0.041175 0.740528 0.000000
v -0.001216 0.742780 0.000000
v 0.059895 0.742822 0.000000
v 0.139959 0.733970 0.000000
v 0.232572 0.700477 0.000000
v 0.311855 0.659944 0.000000
v 0.370899 0.605327 0.000000
v 0.418619 0.550075 -0.000000
v 0.440642 0.487145 0.000000
v 0.456201 0.411500 -0.000000
v 0.461515 0.349176 0.000000
v 0.445786 0.261584 0.000000
v 0.411820 0.184931 0.000000
v 0.354759 0.107125 0.000000
v 0.288673 0.048648 0.000000
v 0.209057 -0.005304 -0.000000
v 0.123563 -0.062418 -0.000000
v 0.037108 -0.109591 -0.000000
v -0.047608 -0.173167 0.000000
v -0.120331 -0.232116 -0.000000
v -0.165406 -0.302672 -0.000000
v -0.177182 -0.385303 -0.000000
v -0.152034 -0.463642 -0.000000
v -0.096961 -0.514673 -0.000000
v -0.041259 -0.540420 0.000000
v 0.017379 -0.560558 0.000000
v 0.102775 -0.557833 -0.000000
v 0.190570 -0.540798 -0.000000
v 0.275021 -0.506733 -0.000000
v 0.345355 -0.461568 0.000000
v 0.409210 -0.400013 -0.000000
v 0.454610 -0.352911 -0.000000
v 0.452606 -0.621905 -0.000000
v 0.386641 -0.656725 -0.000000
v 0.293545 -0.703477 -0.000000
v 0.210160 -0.729883 -0.000000
v -0.044710 -0.738259 -0.000000
v -0.147390 -0.711461 0.000000
v -0.227483 -0.661429 -0.000000
v -0.300685 -0.583008 -0.000000
v -0.353439 -0.480261 0.000000
v -0.366642 -0.401723 0.000000
v -0.366146 -0.310634 -0.000000
v -0.352656 -0.218400 -0.000000
v -0.319721 -0.154268 0.000000
v -0.266367 -0.075190 -0.000000
v -0.201605 -0.020551 0.000000
v -0.124893 0.033523 0.000000
v -0.026338 0.097180 0.000000
v 0.073589 0.152565 0.000000
v 0.167389 0.214809 -0.000000
v 0.225883 0.261625 0.000000
v 0.256617 0.315311 0.000000
v 0.269206 0.394786 -0.000000
v 0.250517 0.458879 -0.000000
v 0.193709 0.515149 0.000000
v 0.116292 0.547657 0.000000
v 0.029923 0.554570 0.000000
v -0.058758 0.549913 0.000000
v -0.147913 0.517384 0.000000
v -0.213518 0.484654 0.000000
v -0.269999 0.446993 0.000000
vt 0.185846 0.328828
vt 0.147045 0.296233
vt 0.193529 0.315406
vt 0.222636 0.062500
vt 0.241306 0.062500
vt 0.224306 0.110542
vt 0.261177 0.065435
vt 0.286848 0.072135
vt 0.260315 0.114895
vt 0.306871 0.084643
vt 0.325171 0.104248
vt 0.288008 0.134090
vt 0.338360 0.129935
vt 0.341660 0.149569
vt 0.294296 0.153674
vt 0.341536 0.172342
vt 0.338164 0.195400
vt 0.291352 0.174332
vt 0.329930 0.211433
vt 0.316592 0.231202
vt 0.280083 0.191971
vt 0.300401 0.244862
vt 0.281223 0.258381
vt 0.261902 0.206708
vt 0.240723 0.222602
vt 0.245655 0.109861
vt 0.176613 0.074131
vt 0.197460 0.067529
vt 0.202357 0.114800
vt 0.136848 0.094524
vt 0.153340 0.085819
vt 0.163661 0.134608
vt 0.147697 0.149997
vt 0.136347 0.161772
vt 0.181245 0.123317
vt 0.274240 0.121332
vt 0.256585 0.274295
vt 0.219109 0.234395
vt 0.317500 0.361748
vt 0.328082 0.352263
vt 0.327428 0.410938
vt 0.308194 0.421679
vt 0.303380 0.371164
vt 0.282671 0.431217
vt 0.260294 0.435132
vt 0.264690 0.387478
vt 0.250304 0.435695
vt 0.235026 0.435705
vt 0.242519 0.388643
vt 0.215010 0.433492
vt 0.191857 0.425119
vt 0.220927 0.386914
vt 0.172036 0.414986
vt 0.157275 0.401332
vt 0.201573 0.378787
vt 0.145345 0.387519
vt 0.139840 0.371786
vt 0.187371 0.364720
vt 0.135950 0.352875
vt 0.134621 0.337294
vt 0.182698 0.348697
vt 0.138554 0.315396
vt 0.161310 0.276781
vt 0.208153 0.303702
vt 0.197736 0.248674
vt 0.177832 0.262162
vt 0.286978 0.379346
vt 0.231603 0.288141
vn 0.000000 -0.000000 -1.000000
s 1
f 59/1/1 19/2/1 58/3/1
f 2/4/1 1/5/1 33/6/1
f 43/7/1 44/8/1 31/9/1
f 45/10/1 46/11/1 29/12/1
f 47/13/1 48/14/1 28/15/1
f 49/16/1 50/17/1 27/18/1
f 51/19/1 52/20/1 26/21/1
f 53/22/1 54/23/1 25/24/1
f 54/23/1 24/25/1 25/24/1
f 50/17/1 51/19/1 27/18/1
f 46/11/1 47/13/1 29/12/1
f 1/5/1 43/7/1 32/26/1
f 41/27/1 42/28/1 34/29/1
f 39/30/1 40/31/1 36/32/1
f 37/33/1 38/34/1 39/30/1
f 36/32/1 37/33/1 39/30/1
f 40/31/1 35/35/1 36/32/1
f 44/8/1 45/10/1 30/36/1
f 52/20/1 53/22/1 26/21/1
f 55/37/1 24/25/1 54/23/1
f 40/31/1 41/27/1 35/35/1
f 35/35/1 41/27/1 34/29/1
f 23/38/1 24/25/1 55/37/1
f 34/29/1 42/28/1 33/6/1
f 33/6/1 42/28/1 2/4/1
f 68/39/1 3/40/1 4/41/1
f 4/41/1 5/42/1 67/43/1
f 6/44/1 7/45/1 65/46/1
f 8/47/1 9/48/1 64/49/1
f 10/50/1 11/51/1 63/52/1
f 12/53/1 13/54/1 62/55/1
f 14/56/1 15/57/1 61/58/1
f 16/59/1 17/60/1 60/61/1
f 18/62/1 19/2/1 59/1/1
f 20/63/1 57/64/1 58/3/1
f 22/65/1 57/64/1 21/66/1
f 20/63/1 58/3/1 19/2/1
f 17/60/1 59/1/1 60/61/1
f 13/54/1 14/56/1 61/58/1
f 9/48/1 10/50/1 63/52/1
f 5/42/1 6/44/1 66/67/1
f 67/43/1 68/39/1 4/41/1
f 66/67/1 67/43/1 5/42/1
f 7/45/1 64/49/1 65/46/1
f 15/57/1 60/61/1 61/58/1
f 65/46/1 66/67/1 6/44/1
f 64/49/1 7/45/1 8/47/1
f 32/26/1 33/6/1 1/5/1
f 63/52/1 64/49/1 9/48/1
f 31/9/1 32/26/1 43/7/1
f 63/52/1 11/51/1 62/55/1
f 30/36/1 31/9/1 44/8/1
f 62/55/1 11/51/1 12/53/1
f 29/12/1 30/36/1 45/10/1
f 61/58/1 62/55/1 13/54/1
f 29/12/1 47/13/1 28/15/1
f 28/15/1 48/14/1 49/16/1
f 27/18/1 28/15/1 49/16/1
f 26/21/1 27/18/1 51/19/1
f 25/24/1 26/21/1 53/22/1
f 56/68/1 23/38/1 55/37/1
f 56/68/1 22/65/1 23/38/1
f 57/64/1 22/65/1 56/68/1
f 15/57/1 16/59/1 60/61/1
f 17/60/1 18/62/1 59/1/1
f 57/64/1 20/63/1 21/66/1
