# Blender v2.77 (sub 0) OBJ File: ''
# www.blender.org
g Bottom_Left_T
v -0.113543 -0.750000 -0.000000
v -0.109026 0.535687 0.000000
v -0.620465 0.541039 0.000000
v -0.619523 0.730076 0.000000
v 0.607487 0.729873 -0.000000
v 0.606164 0.541583 -0.000000
v 0.103798 0.544615 -0.000000
v 0.099440 -0.739941 -0.000000
vt 0.224051 0.386154
vt 0.277256 0.383922
vt 0.404880 0.432519
vt 0.098128 0.432468
vt 0.225140 0.065015
vt 0.098459 0.385396
vt 0.405116 0.385260
vt 0.278386 0.062500
vn -0.000000 0.000000 -1.000000
s 1
f 7/1/1 2/2/1 4/3/1
f 4/3/1 5/4/1 7/1/1
f 7/1/1 8/5/1 2/2/1
f 5/4/1 6/6/1 7/1/1
f 2/2/1 3/7/1 4/3/1
f 8/5/1 1/8/1 2/2/1
