# Blender v2.77 (sub 0) OBJ File: ''
# www.blender.org
g Bottom_Left_U
v 0.615006 0.723400 -0.000000
v 0.411672 0.721108 0.000000
v 0.411737 -0.157964 0.000000
v 0.409177 -0.236948 -0.000000
v 0.396357 -0.313328 -0.000000
v 0.368163 -0.381947 -0.000000
v 0.314402 -0.447783 -0.000000
v 0.245411 -0.495597 -0.000000
v 0.166380 -0.535605 -0.000000
v 0.069766 -0.557614 0.000000
v -0.031619 -0.556734 -0.000000
v -0.107448 -0.548493 -0.000000
v -0.198205 -0.525000 -0.000000
v -0.286194 -0.481429 -0.000000
v -0.353906 -0.420490 -0.000000
v -0.401470 -0.332119 0.000000
v -0.423977 -0.226370 0.000000
v -0.423978 -0.181100 0.000000
v -0.424005 0.716718 0.000000
v -0.628297 0.714399 0.000000
v -0.628280 -0.188047 0.000000
v -0.625795 -0.280815 0.000000
v -0.598461 -0.371227 0.000000
v -0.558660 -0.469339 -0.000000
v -0.503854 -0.545101 -0.000000
v -0.408964 -0.636479 -0.000000
v -0.318806 -0.687766 0.000000
v -0.240965 -0.713829 -0.000000
v -0.162933 -0.734904 -0.000000
v -0.084709 -0.745918 -0.000000
v -0.016423 -0.746713 -0.000000
v 0.054548 -0.747541 0.000000
v 0.123133 -0.743266 -0.000000
v 0.209708 -0.726485 -0.000000
v 0.299074 -0.694425 -0.000000
v 0.373308 -0.651931 -0.000000
v 0.445144 -0.601664 0.000000
v 0.509417 -0.530803 0.000000
v 0.558349 -0.457137 -0.000000
v 0.594447 -0.355172 -0.000000
v 0.615089 -0.253035 -0.000000
v 0.617665 -0.189136 -0.000000
vt 0.219217 0.064183
vt 0.232558 0.110597
vt 0.208405 0.116099
vt 0.096248 0.430850
vt 0.095584 0.202716
vt 0.147066 0.210509
vt 0.096228 0.186741
vt 0.101388 0.161207
vt 0.147706 0.190763
vt 0.110413 0.135716
vt 0.122646 0.117299
vt 0.157959 0.154513
vt 0.138714 0.099584
vt 0.156673 0.087017
vt 0.171399 0.138054
vt 0.175231 0.076394
vt 0.197573 0.068379
vt 0.236363 0.063115
vt 0.254106 0.063322
vt 0.271177 0.063521
vt 0.257905 0.110817
vt 0.290733 0.066274
vt 0.310241 0.071543
vt 0.276862 0.112877
vt 0.329702 0.078059
vt 0.352241 0.090880
vt 0.321549 0.129643
vt 0.375963 0.113725
vt 0.389665 0.132665
vt 0.338477 0.144877
vt 0.399615 0.157193
vt 0.406449 0.179796
vt 0.355994 0.193407
vt 0.407070 0.202988
vt 0.407074 0.428600
vt 0.355995 0.204725
vt 0.356001 0.429179
vt 0.350368 0.166970
vt 0.299551 0.118750
vt 0.188647 0.126101
vt 0.150911 0.171668
vt 0.147082 0.430277
vn -0.000000 0.000000 -1.000000
s 1
f 33/1/1 10/2/1 9/3/1
f 1/4/1 42/5/1 3/6/1
f 41/7/1 40/8/1 4/9/1
f 39/10/1 38/11/1 6/12/1
f 37/13/1 36/14/1 7/15/1
f 35/16/1 34/17/1 9/3/1
f 33/1/1 32/18/1 10/2/1
f 31/19/1 30/20/1 11/21/1
f 29/22/1 28/23/1 12/24/1
f 27/25/1 26/26/1 14/27/1
f 25/28/1 24/29/1 15/30/1
f 23/31/1 22/32/1 17/33/1
f 21/34/1 20/35/1 18/36/1
f 19/37/1 18/36/1 20/35/1
f 21/34/1 18/36/1 17/33/1
f 24/29/1 23/31/1 16/38/1
f 28/23/1 27/25/1 13/39/1
f 32/18/1 31/19/1 10/2/1
f 36/14/1 8/40/1 7/15/1
f 40/8/1 39/10/1 5/41/1
f 2/42/1 1/4/1 3/6/1
f 3/6/1 42/5/1 4/9/1
f 38/11/1 37/13/1 7/15/1
f 30/20/1 29/22/1 12/24/1
f 22/32/1 21/34/1 17/33/1
f 23/31/1 17/33/1 16/38/1
f 4/9/1 42/5/1 41/7/1
f 5/41/1 4/9/1 40/8/1
f 24/29/1 16/38/1 15/30/1
f 25/28/1 15/30/1 26/26/1
f 6/12/1 5/41/1 39/10/1
f 7/15/1 6/12/1 38/11/1
f 26/26/1 15/30/1 14/27/1
f 27/25/1 14/27/1 13/39/1
f 36/14/1 35/16/1 8/40/1
f 8/40/1 35/16/1 9/3/1
f 28/23/1 13/39/1 12/24/1
f 30/20/1 12/24/1 11/21/1
f 9/3/1 34/17/1 33/1/1
f 31/19/1 11/21/1 10/2/1
