# Blender v2.77 (sub 0) OBJ File: ''
# www.blender.org
g Bottom_Left_V
v 0.641025 0.739382 0.000000
v 0.434472 0.741170 0.000000
v -0.006428 -0.285708 0.000000
v -0.453985 0.745783 0.000000
v -0.657969 0.745239 0.000000
v -0.027769 -0.739367 -0.000000
v 0.011955 -0.736780 -0.000000
vt 0.256942 0.065158
vt 0.414492 0.436310
vt 0.251607 0.178573
vt 0.141382 0.435292
vt 0.089744 0.434845
vt 0.247011 0.065805
vt 0.363496 0.436446
vn -0.000000 0.000000 -1.000000
s 1
f 6/1/1 5/2/1 3/3/1
f 2/4/1 1/5/1 3/3/1
f 7/6/1 6/1/1 3/3/1
f 5/2/1 4/7/1 3/3/1
f 3/3/1 1/5/1 7/6/1
