# Blender v2.77 (sub 0) OBJ File: ''
# www.blender.org
g Bottom_Left_X
v 0.412704 0.750000 0.000000
v -0.429115 0.750000 0.000000
v -0.430966 -0.750000 -0.000000
v 0.387405 -0.747284 -0.000000
v 0.296394 0.750000 0.000000
v -0.317171 0.750000 0.000000
v -0.509840 -0.750000 -0.000000
v 0.462907 0.750000 0.000000
v -0.344029 -0.750000 -0.000000
v 0.505192 -0.748166 -0.000000
v -0.480861 0.750000 0.000000
v 0.328991 -0.748076 -0.000000
v -0.011201 0.175239 -0.000000
v -0.094634 0.030984 -0.000000
v -0.008969 -0.128277 -0.000000
v 0.074466 0.030876 0.000000
vt 0.252800 0.293810
vt 0.231383 0.257719
vt 0.273658 0.257746
vt 0.357742 0.062500
vt 0.377460 0.062500
vt 0.370215 0.437500
vt 0.357279 0.437500
vt 0.329293 0.437500
vt 0.175901 0.437500
vt 0.146824 0.437500
vt 0.134273 0.437500
vt 0.123702 0.062958
vt 0.252242 0.217931
vt 0.153149 0.063179
vt 0.167752 0.062981
vt 0.336007 0.062500
vn 0.000000 -0.000000 -1.000000
s 1
f 13/1/1 16/2/1 14/3/1
f 3/4/1 7/5/1 14/3/1
f 14/3/1 11/6/1 2/7/1
f 2/7/1 6/8/1 13/1/1
f 13/1/1 5/9/1 1/10/1
f 1/10/1 8/11/1 16/2/1
f 16/2/1 10/12/1 15/13/1
f 4/14/1 12/15/1 15/13/1
f 15/13/1 9/16/1 3/4/1
f 14/3/1 2/7/1 13/1/1
f 15/13/1 3/4/1 14/3/1
f 10/12/1 4/14/1 15/13/1
f 13/1/1 1/10/1 16/2/1
f 15/13/1 14/3/1 16/2/1
