# Blender v2.77 (sub 0) OBJ File: ''
# www.blender.org
g Bottom_Left_Y
v 0.052681 0.231969 0.000000
v 0.479609 0.750000 0.000000
v 0.122780 0.046993 0.000000
v 0.034774 -0.750000 -0.000000
v -0.016918 -0.750000 -0.000000
v -0.019978 0.042455 0.000000
v -0.383280 0.750000 0.000000
v 0.311443 0.750000 0.000000
v 0.412704 0.750000 0.000000
v -0.212561 0.750000 0.000000
v 0.109454 -0.750000 -0.000000
v 0.120245 -0.750000 -0.000000
vt 0.236830 0.307993
vt 0.130098 0.437500
vt 0.219305 0.261748
vt 0.241306 0.062500
vt 0.254230 0.062500
vt 0.254994 0.260614
vt 0.345820 0.437500
vt 0.172139 0.437500
vt 0.146824 0.437500
vt 0.303140 0.437500
vt 0.222636 0.062500
vt 0.219939 0.062500
vn -0.000000 0.000000 -1.000000
s 1
f 1/1/1 2/2/1 3/3/1
f 4/4/1 5/5/1 6/6/1
f 6/6/1 7/7/1 1/1/1
f 1/1/1 8/8/1 9/9/1
f 7/7/1 10/10/1 1/1/1
f 11/11/1 4/4/1 3/3/1
f 3/3/1 12/12/1 11/11/1
f 9/9/1 2/2/1 1/1/1
f 6/6/1 1/1/1 3/3/1
f 3/3/1 4/4/1 6/6/1
