# Blender v2.77 (sub 0) OBJ File: ''
# www.blender.org
g Bottom_Left_Z
v -0.492873 0.750000 0.000000
v -0.429115 0.750000 0.000000
v -0.203121 0.554973 0.000000
v -0.430966 -0.750000 -0.000000
v -0.492354 -0.750000 -0.000000
v -0.489531 -0.557530 -0.000000
v 0.205095 -0.551923 -0.000000
v 0.034774 -0.750000 -0.000000
v 0.187224 -0.750000 -0.000000
v 0.109454 -0.750000 -0.000000
v 0.412704 0.750000 0.000000
v 0.450573 0.750000 0.000000
v 0.451107 0.553038 0.000000
v 0.492137 -0.748068 -0.000000
v 0.387405 -0.747284 -0.000000
vt 0.373218 0.437500
vt 0.357279 0.437500
vt 0.300780 0.388743
vt 0.357742 0.062500
vt 0.373088 0.062500
vt 0.372383 0.110618
vt 0.198726 0.112019
vt 0.241306 0.062500
vt 0.203194 0.062500
vt 0.222636 0.062500
vt 0.146824 0.437500
vt 0.137357 0.437500
vt 0.137223 0.388259
vt 0.126966 0.062983
vt 0.153149 0.063179
vn 0.000000 0.000000 -1.000000
s 1
f 1/1/1 2/2/1 3/3/1
f 4/4/1 5/5/1 6/6/1
f 7/7/1 1/1/1 3/3/1
f 4/4/1 6/6/1 8/8/1
f 9/9/1 10/10/1 7/7/1
f 8/8/1 6/6/1 7/7/1
f 2/2/1 11/11/1 3/3/1
f 12/12/1 13/13/1 11/11/1
f 3/3/1 14/14/1 7/7/1
f 15/15/1 9/9/1 7/7/1
f 10/10/1 8/8/1 7/7/1
f 11/11/1 13/13/1 3/3/1
f 14/14/1 15/15/1 7/7/1
