# Blender v2.77 (sub 0) OBJ File: ''
# www.blender.org
mtllib BRCircle.mtl
o Circle_Cylinder
v 0.000000 0.000000 -1.000000
v 0.195090 0.000000 -0.980785
v 0.382683 0.000000 -0.923880
v 0.555570 0.000000 -0.831470
v 0.707107 0.000000 -0.707107
v 0.831470 0.000000 -0.555570
v 0.923880 0.000000 -0.382683
v 0.980785 0.000000 -0.195090
v 1.000000 0.000000 -0.000000
v 0.980785 0.000000 0.195090
v 0.923880 0.000000 0.382683
v 0.831470 0.000000 0.555570
v 0.707107 0.000000 0.707107
v 0.555570 0.000000 0.831470
v 0.382683 0.000000 0.923880
v 0.195090 0.000000 0.980785
v -0.000000 0.000000 1.000000
v -0.195091 0.000000 0.980785
v -0.382684 0.000000 0.923879
v -0.555571 0.000000 0.831469
v -0.707107 0.000000 0.707106
v -0.831470 0.000000 0.555570
v -0.923880 0.000000 0.382683
v -0.980785 0.000000 0.195089
v -1.000000 0.000000 -0.000001
v -0.980785 0.000000 -0.195091
v -0.923879 0.000000 -0.382684
v -0.831469 0.000000 -0.555571
v -0.707106 0.000000 -0.707108
v -0.555569 0.000000 -0.831470
v -0.382682 0.000000 -0.923880
v -0.195089 0.000000 -0.980786
vt 0.795885 0.499517
vt 0.746875 0.504344
vt 0.697865 0.499517
vt 0.650738 0.485221
vt 0.607305 0.462006
vt 0.569237 0.430764
vt 0.537994 0.392695
vt 0.514779 0.349263
vt 0.500483 0.302136
vt 0.495656 0.253125
vt 0.500483 0.204115
vt 0.514779 0.156988
vt 0.537994 0.113555
vt 0.569236 0.075486
vt 0.607305 0.044244
vt 0.650738 0.021029
vt 0.697865 0.006733
vt 0.746875 0.001906
vt 0.795885 0.006733
vt 0.843012 0.021029
vt 0.886445 0.044244
vt 0.924514 0.075486
vt 0.955756 0.113555
vt 0.978971 0.156988
vt 0.993267 0.204115
vt 0.998094 0.253125
vt 0.993267 0.302135
vt 0.978971 0.349262
vt 0.955756 0.392695
vt 0.924514 0.430764
vt 0.886445 0.462006
vt 0.843012 0.485221
vn 0.000000 1.000000 0.000000
usemtl Material
s off
f 2/1/1 1/2/1 32/3/1 31/4/1 30/5/1 29/6/1 28/7/1 27/8/1 26/9/1 25/10/1 24/11/1 23/12/1 22/13/1 21/14/1 20/15/1 19/16/1 18/17/1 17/18/1 16/19/1 15/20/1 14/21/1 13/22/1 12/23/1 11/24/1 10/25/1 9/26/1 8/27/1 7/28/1 6/29/1 5/30/1 4/31/1 3/32/1
