# Blender v2.77 (sub 0) OBJ File: ''
# www.blender.org
mtllib BRDoubleArrow.mtl
g Bottom_Right_DoubleArrow
v 0.695821 0.175626 -0.000075
v 0.749983 -0.750073 -0.000075
v 0.630988 0.140972 -0.000075
v -0.695839 -0.175699 -0.000075
v -0.750000 -0.220147 -0.000075
v -0.750017 0.749927 -0.000075
v 0.220130 0.749927 -0.000075
v 0.175628 0.695713 -0.000075
v 0.140975 0.630880 -0.000075
v -0.631006 -0.141045 -0.000075
v -0.560659 -0.119705 -0.000075
v 0.119636 0.560533 -0.000075
v 0.112430 0.487374 -0.000075
v -0.487500 -0.112500 -0.000075
v -0.414341 -0.119705 -0.000075
v 0.119688 0.414268 -0.000075
v -0.343961 -0.140984 -0.000104
v -0.279161 -0.175699 -0.000075
v 0.175676 0.279090 -0.000075
v 0.141022 0.343923 -0.000075
v -0.222335 -0.222335 -0.000075
v -0.175699 -0.279161 -0.000075
v 0.222311 0.222264 -0.000075
v 0.279138 0.175627 -0.000075
v -0.140995 -0.343973 -0.000052
v 0.343970 0.140974 -0.000075
v -0.119652 -0.414331 -0.000052
v 0.414271 0.119579 -0.000075
v -0.112445 -0.487500 -0.000052
v -0.119652 -0.560670 -0.000052
v 0.487429 0.112374 -0.000075
v -0.141012 -0.631100 -0.000052
v 0.560642 0.119632 -0.000075
v -0.220091 -0.750050 -0.000075
v -0.175671 -0.695942 -0.000052
v 0.749929 0.220021 -0.000075
vt 0.575063 0.294147
vt 0.561451 0.061488
vt 0.591358 0.285437
vt 0.924834 0.205847
vt 0.938446 0.194676
vt 0.938451 0.438488
vt 0.694620 0.438488
vt 0.705805 0.424862
vt 0.714514 0.408568
vt 0.908539 0.214558
vt 0.890859 0.219921
vt 0.719878 0.390887
vt 0.721689 0.372500
vt 0.872471 0.221732
vt 0.854084 0.219921
vt 0.719865 0.354126
vt 0.836395 0.214573
vt 0.820109 0.205847
vt 0.705793 0.320151
vt 0.714503 0.336446
vt 0.805827 0.194126
vt 0.794105 0.179844
vt 0.694072 0.305869
vt 0.679790 0.294147
vt 0.785383 0.163555
vt 0.663495 0.285438
vt 0.780019 0.145872
vt 0.645826 0.280060
vt 0.778208 0.127482
vt 0.780019 0.109092
vt 0.627439 0.278250
vt 0.785388 0.091390
vt 0.609038 0.280074
vt 0.805263 0.061494
vt 0.794098 0.075093
vt 0.561464 0.305305
vn 0.000000 0.000000 -1.000000
vn -0.000100 0.000100 -1.000000
vn 0.000200 -0.000200 -1.000000
vn 0.000100 -0.000100 -1.000000
vn 0.000000 0.000400 -1.000000
vn -0.000000 0.000300 -1.000000
usemtl Material.011
s 1
f 1/1/1 2/2/1 3/3/1
f 4/4/1 5/5/1 6/6/1
f 6/6/1 7/7/1 8/8/1
f 6/6/1 8/8/1 9/9/1
f 10/10/1 4/4/1 6/6/1
f 11/11/1 10/10/1 6/6/1
f 6/6/1 9/9/1 12/12/1
f 6/6/1 12/12/1 13/13/1
f 14/14/1 11/11/1 6/6/1
f 15/15/2 14/14/1 6/6/1
f 6/6/1 13/13/1 16/16/1
f 6/6/1 16/16/1 15/15/2
f 17/17/2 15/15/2 16/16/1
f 18/18/3 17/17/2 19/19/1
f 16/16/1 20/20/1 17/17/2
f 20/20/1 19/19/1 17/17/2
f 21/21/1 18/18/3 19/19/1
f 22/22/4 21/21/1 23/23/1
f 19/19/1 23/23/1 21/21/1
f 22/22/4 23/23/1 24/24/1
f 25/25/4 22/22/4 24/24/1
f 25/25/4 24/24/1 26/26/1
f 27/27/1 25/25/4 28/28/1
f 25/25/4 26/26/1 28/28/1
f 29/29/1 27/27/1 2/2/1
f 27/27/1 28/28/1 2/2/1
f 30/30/1 29/29/1 2/2/1
f 28/28/1 31/31/1 2/2/1
f 32/32/1 30/30/1 2/2/1
f 31/31/1 33/33/1 2/2/1
f 2/2/1 34/34/5 35/35/6
f 35/35/6 32/32/1 2/2/1
f 1/1/1 36/36/1 2/2/1
f 33/33/1 3/3/1 2/2/1
