# Blender v2.77 (sub 0) OBJ File: ''
# www.blender.org
g BRJigsawPiece3x3(1)
v -0.669267 0.256448 -0.000000
v -0.681457 -0.153371 -0.000000
v -0.681457 0.256458 -0.000000
v -0.681457 -0.563201 -0.000000
v -0.271714 -0.563201 -0.000000
v -0.655660 0.256436 -0.000000
v -0.641109 0.256424 -0.000000
v -0.626086 0.256411 -0.000000
v -0.611064 0.256398 -0.000000
v -0.596513 0.256385 -0.000000
v -0.582906 0.256374 -0.000000
v -0.570715 0.256363 -0.000000
v -0.560411 0.256354 -0.000000
v -0.552467 0.256348 -0.000000
v -0.547354 0.256343 -0.000000
v -0.545545 0.256342 -0.000000
v -0.517120 0.256290 -0.000000
v -0.492075 0.256183 -0.000000
v -0.470219 0.256012 -0.000000
v -0.451359 0.255772 -0.000000
v -0.435305 0.255454 -0.000000
v -0.410762 0.111198 -0.000000
v -0.421863 0.255053 -0.000000
v -0.412906 0.127057 -0.000000
v -0.410843 0.254560 -0.000000
v -0.413471 0.151286 -0.000000
v -0.413604 0.143715 -0.000000
v -0.413098 0.158649 -0.000000
v -0.412479 0.165831 -0.000000
v -0.411608 0.172857 -0.000000
v -0.410480 0.179755 -0.000000
v -0.402054 0.253970 -0.000000
v -0.407203 0.096180 -0.000000
v -0.409087 0.186552 -0.000000
v -0.407424 0.193275 -0.000000
v -0.405485 0.199950 -0.000000
v -0.402258 0.082046 -0.000000
v -0.403265 0.206604 -0.000000
v -0.400755 0.213264 -0.000000
v -0.395958 0.068839 -0.000000
v -0.395303 0.253274 -0.000000
v -0.397952 0.219956 -0.000000
v -0.394849 0.226709 -0.000000
v -0.388333 0.056601 -0.000000
v -0.390399 0.252466 -0.000000
v -0.393403 0.229761 -0.000000
v -0.392038 0.232715 -0.000000
v -0.390765 0.235541 -0.000000
v -0.389596 0.238211 -0.000000
v -0.387149 0.251540 -0.000000
v -0.388542 0.240697 -0.000000
v -0.387615 0.242968 -0.000000
v -0.379413 0.045375 -0.000000
v -0.386827 0.244997 -0.000000
v -0.385364 0.250487 -0.000000
v -0.386188 0.246754 -0.000000
v -0.385711 0.248210 -0.000000
v -0.385407 0.249337 -0.000000
v -0.385287 0.250106 -0.000000
v -0.369227 0.035203 -0.000000
v -0.357806 0.026128 -0.000000
v -0.345180 0.018194 -0.000000
v -0.331379 0.011441 -0.000000
v -0.316433 0.005913 -0.000000
v -0.303189 0.002421 -0.000000
v -0.289747 0.000210 -0.000000
v -0.276218 -0.000746 -0.000000
v -0.262711 -0.000475 -0.000000
v 0.138030 -0.563201 0.000000
v -0.249336 0.000996 -0.000000
v -0.236203 0.003640 -0.000000
v -0.223422 0.007430 -0.000000
v -0.211101 0.012339 -0.000000
v -0.199352 0.018338 -0.000000
v -0.188284 0.025402 -0.000000
v -0.178006 0.033501 -0.000000
v -0.168629 0.042611 -0.000000
v -0.162504 0.049673 -0.000000
v -0.156890 0.057069 -0.000000
v -0.161183 0.250376 -0.000000
v -0.161792 0.248534 -0.000000
v -0.161913 0.248982 -0.000000
v -0.161439 0.247620 -0.000000
v -0.160872 0.246276 -0.000000
v -0.158848 0.251597 -0.000000
v -0.160104 0.244536 -0.000000
v -0.159153 0.242434 -0.000000
v -0.158035 0.240005 -0.000000
v -0.154695 0.252655 -0.000000
v -0.156766 0.237284 -0.000000
v -0.151793 0.064787 -0.000000
v -0.155361 0.234305 -0.000000
v -0.153837 0.231103 -0.000000
v -0.148508 0.253559 -0.000000
v -0.152211 0.227713 -0.000000
v -0.150497 0.224169 -0.000000
v -0.147214 0.072817 -0.000000
v -0.148712 0.220505 -0.000000
v -0.145261 0.213278 -0.000000
v -0.140073 0.254319 -0.000000
v -0.143160 0.081148 -0.000000
v -0.142221 0.206525 -0.000000
v -0.139633 0.089769 -0.000000
v -0.139571 0.200164 -0.000000
v -0.129175 0.254946 -0.000000
v -0.136638 0.098670 -0.000000
v -0.137289 0.194112 -0.000000
v -0.135356 0.188288 -0.000000
v -0.134179 0.107840 -0.000000
v -0.133749 0.182610 -0.000000
v -0.132259 0.117268 -0.000000
v -0.132447 0.176995 -0.000000
v -0.131429 0.171362 -0.000000
v -0.130882 0.126944 -0.000000
v -0.130675 0.165627 -0.000000
v -0.130054 0.136856 -0.000000
v -0.130162 0.159709 -0.000000
v -0.129869 0.153526 -0.000000
v -0.129777 0.146995 -0.000000
v -0.115600 0.255450 -0.000000
v -0.099132 0.255839 -0.000000
v -0.079557 0.256125 -0.000000
v -0.056661 0.256317 -0.000000
v -0.030228 0.256425 -0.000000
v -0.000044 0.256458 -0.000000
v 0.138030 0.256458 0.000000
v 0.138030 0.242897 0.000000
v 0.138030 0.227760 0.000000
v 0.138030 0.211574 0.000000
v 0.138030 0.194863 0.000000
v 0.138030 0.178152 0.000000
v 0.138030 0.161965 0.000000
v 0.138030 0.146829 0.000000
v 0.138030 0.133267 0.000000
v 0.138030 0.121806 0.000000
v 0.138030 0.112969 0.000000
v 0.138030 0.107282 0.000000
v 0.138030 0.105269 0.000000
v 0.138035 0.071275 0.000000
v 0.138030 -0.413112 0.000000
v 0.138037 -0.375711 0.000000
v 0.138064 0.042756 0.000000
v 0.138092 -0.344523 0.000000
v 0.138133 0.019194 0.000000
v 0.138249 -0.318934 0.000000
v 0.138262 0.000071 0.000000
v 0.138559 -0.298333 0.000000
v 0.138466 -0.015130 0.000000
v 0.138765 -0.026927 0.000000
v 0.139074 -0.282105 0.000000
v 0.139175 -0.035839 0.000000
v 0.139845 -0.269639 0.000000
v 0.139714 -0.042382 0.000000
v 0.140401 -0.047075 0.000000
v 0.140927 -0.260322 0.000000
v 0.141252 -0.050435 0.000000
v 0.142369 -0.253542 0.000000
v 0.142286 -0.052981 0.000000
v 0.143521 -0.055229 0.000000
v 0.144225 -0.248686 0.000000
v 0.146742 -0.060023 0.000000
v 0.146547 -0.245142 0.000000
v 0.149387 -0.242296 0.000000
v 0.150305 -0.064089 0.000000
v 0.152796 -0.239537 0.000000
v 0.154186 -0.067422 0.000000
v 0.155633 -0.237551 0.000000
v 0.158359 -0.070020 0.000000
v 0.158576 -0.235976 0.000000
v 0.162801 -0.071878 0.000000
v 0.161623 -0.234812 0.000000
v 0.164777 -0.234060 0.000000
v 0.167485 -0.072992 0.000000
v 0.168037 -0.233719 0.000000
v 0.172388 -0.073358 0.000000
v 0.171404 -0.233789 0.000000
v 0.174879 -0.234270 0.000000
v 0.177485 -0.072973 0.000000
v 0.178462 -0.235163 0.000000
v 0.182751 -0.071833 0.000000
v 0.182154 -0.236468 0.000000
v 0.185956 -0.238184 0.000000
v 0.188162 -0.069934 0.000000
v 0.189868 -0.240311 0.000000
v 0.193692 -0.067272 0.000000
v 0.193890 -0.242850 0.000000
v 0.199318 -0.063844 0.000000
v 0.200732 -0.247051 0.000000
v 0.212351 -0.056109 0.000000
v 0.208225 -0.250912 0.000000
v 0.216260 -0.254410 0.000000
v 0.225951 -0.049993 0.000000
v 0.224725 -0.257519 0.000000
v 0.233513 -0.260215 0.000000
v 0.239967 -0.045486 0.000000
v 0.242512 -0.262475 0.000000
v 0.254250 -0.042576 0.000000
v 0.251614 -0.264272 0.000000
v 0.260708 -0.265582 0.000000
v 0.268650 -0.041253 0.000000
v 0.269686 -0.266382 0.000000
v 0.283016 -0.041506 0.000000
v 0.278436 -0.266646 0.000000
v 0.286850 -0.266349 0.000000
v 0.297199 -0.043324 0.000000
v 0.294818 -0.265467 0.000000
v 0.300423 -0.264401 0.000000
v 0.311049 -0.046696 0.000000
v 0.306296 -0.262898 0.000000
v 0.312354 -0.261002 0.000000
v 0.324416 -0.051611 0.000000
v 0.318511 -0.258753 0.000000
v 0.324682 -0.256192 0.000000
v 0.337150 -0.058059 0.000000
v 0.330782 -0.253362 0.000000
v 0.336726 -0.250304 0.000000
v 0.342429 -0.247060 0.000000
v 0.349101 -0.066027 0.000000
v 0.347806 -0.243670 0.000000
v 0.352772 -0.240178 0.000000
v 0.360120 -0.075507 0.000000
v 0.357242 -0.236623 0.000000
v 0.361132 -0.233048 0.000000
v 0.363469 -0.078945 0.000000
v 0.362806 -0.231289 0.000000
v 0.364574 -0.229272 0.000000
v 0.366720 -0.082630 0.000000
v 0.366411 -0.227035 0.000000
v 0.368293 -0.224614 0.000000
v 0.369855 -0.086528 0.000000
v 0.370193 -0.222045 0.000000
v 0.372853 -0.090607 0.000000
v 0.372086 -0.219365 0.000000
v 0.373948 -0.216610 0.000000
v 0.375698 -0.094835 0.000000
v 0.375753 -0.213818 0.000000
v 0.378368 -0.099181 0.000000
v 0.377476 -0.211024 0.000000
v 0.379091 -0.208265 0.000000
v 0.380846 -0.103611 0.000000
v 0.380573 -0.205577 0.000000
v 0.381897 -0.202998 0.000000
v 0.383112 -0.108093 0.000000
v 0.383745 -0.199180 0.000000
v 0.385148 -0.112596 0.000000
v 0.385330 -0.195730 0.000000
v 0.386935 -0.117087 0.000000
v 0.386675 -0.192552 0.000000
v 0.387801 -0.189550 0.000000
v 0.388454 -0.121534 0.000000
v 0.388730 -0.186628 0.000000
v 0.389685 -0.125905 0.000000
v 0.389485 -0.183690 0.000000
v 0.390085 -0.180639 0.000000
v 0.390020 -0.127488 0.000000
v 0.390329 -0.129444 0.000000
v 0.390554 -0.177381 0.000000
v 0.390611 -0.131733 0.000000
v 0.390913 -0.173817 0.000000
v 0.390864 -0.134311 0.000000
v 0.391084 -0.137136 0.000000
v 0.391184 -0.169854 0.000000
v 0.391271 -0.140168 0.000000
v 0.391388 -0.165393 0.000000
v 0.391421 -0.143364 0.000000
v 0.391548 -0.160340 0.000000
v 0.391533 -0.146682 0.000000
v 0.391604 -0.150081 0.000000
v 0.391613 -0.156952 0.000000
v 0.391631 -0.153518 0.000000
vt 0.994308 0.325109
vt 0.998943 0.162486
vt 0.999149 0.325115
vt 0.998738 0.000049
vt 0.836252 0.000041
vt 0.988905 0.325102
vt 0.983127 0.325095
vt 0.977162 0.325088
vt 0.971197 0.325080
vt 0.965419 0.325073
vt 0.960016 0.325066
vt 0.955176 0.325060
vt 0.951085 0.325055
vt 0.947930 0.325051
vt 0.945901 0.325049
vt 0.945182 0.325048
vt 0.933896 0.325023
vt 0.923953 0.324977
vt 0.915275 0.324906
vt 0.907787 0.324807
vt 0.901413 0.324679
vt 0.891620 0.267416
vt 0.896077 0.324518
vt 0.892476 0.273710
vt 0.891702 0.324320
vt 0.892709 0.283326
vt 0.892759 0.280321
vt 0.892563 0.286248
vt 0.892320 0.289099
vt 0.891977 0.291887
vt 0.891531 0.294625
vt 0.888212 0.324085
vt 0.890202 0.261456
vt 0.890981 0.297323
vt 0.890323 0.299991
vt 0.889556 0.302640
vt 0.888235 0.255847
vt 0.888676 0.305281
vt 0.887682 0.307925
vt 0.885730 0.250605
vt 0.885531 0.323807
vt 0.886572 0.310581
vt 0.885342 0.313261
vt 0.882699 0.245748
vt 0.883584 0.323486
vt 0.884769 0.314473
vt 0.884228 0.315645
vt 0.883724 0.316767
vt 0.883261 0.317827
vt 0.882294 0.323118
vt 0.882843 0.318813
vt 0.882476 0.319715
vt 0.879155 0.241293
vt 0.882164 0.320520
vt 0.881585 0.322700
vt 0.881911 0.321218
vt 0.881722 0.321796
vt 0.881601 0.322243
vt 0.881554 0.322548
vt 0.875109 0.237256
vt 0.870574 0.233655
vt 0.865561 0.230505
vt 0.860082 0.227825
vt 0.854149 0.225630
vt 0.848893 0.224243
vt 0.843558 0.223365
vt 0.838189 0.222984
vt 0.832830 0.223090
vt 0.673819 0.000033
vt 0.827523 0.223672
vt 0.822312 0.224720
vt 0.817241 0.226222
vt 0.812354 0.228167
vt 0.807693 0.230546
vt 0.803303 0.233347
vt 0.799226 0.236559
vt 0.795507 0.240172
vt 0.793078 0.242973
vt 0.790852 0.245907
vt 0.792594 0.322622
vt 0.792836 0.321891
vt 0.792884 0.322069
vt 0.792696 0.321528
vt 0.792470 0.320994
vt 0.791668 0.323106
vt 0.792165 0.320304
vt 0.791787 0.319469
vt 0.791343 0.318505
vt 0.790020 0.323526
vt 0.790839 0.317424
vt 0.788831 0.248968
vt 0.790281 0.316242
vt 0.789675 0.314971
vt 0.787564 0.323884
vt 0.789029 0.313625
vt 0.788348 0.312217
vt 0.787016 0.252154
vt 0.787639 0.310763
vt 0.786268 0.307894
vt 0.784216 0.324184
vt 0.785409 0.255459
vt 0.785060 0.305213
vt 0.784011 0.258879
vt 0.784007 0.302688
vt 0.779891 0.324432
vt 0.782824 0.262410
vt 0.783100 0.300286
vt 0.782332 0.297974
vt 0.781850 0.266049
vt 0.781693 0.295720
vt 0.781089 0.269789
vt 0.781175 0.293492
vt 0.780770 0.291256
vt 0.780545 0.273629
vt 0.780470 0.288980
vt 0.780218 0.277562
vt 0.780265 0.286631
vt 0.780148 0.284177
vt 0.780110 0.281585
vt 0.774503 0.324629
vt 0.767967 0.324781
vt 0.760197 0.324892
vt 0.751110 0.324965
vt 0.740619 0.325003
vt 0.728640 0.325012
vt 0.673845 0.324992
vt 0.673845 0.319609
vt 0.673844 0.313601
vt 0.673844 0.307177
vt 0.673843 0.300545
vt 0.673843 0.293913
vt 0.673842 0.287490
vt 0.673842 0.281484
vt 0.673841 0.276103
vt 0.673841 0.271555
vt 0.673841 0.268049
vt 0.673841 0.265792
vt 0.673841 0.264994
vt 0.673837 0.251508
vt 0.673824 0.059479
vt 0.673823 0.074297
vt 0.673825 0.240194
vt 0.673801 0.086654
vt 0.673797 0.230848
vt 0.673740 0.096794
vt 0.673745 0.223263
vt 0.673618 0.104958
vt 0.673664 0.217234
vt 0.673545 0.212555
vt 0.673414 0.111389
vt 0.673382 0.209021
vt 0.673109 0.116329
vt 0.673168 0.206425
vt 0.672895 0.204564
vt 0.672680 0.120021
vt 0.672557 0.203232
vt 0.672108 0.122709
vt 0.672147 0.202222
vt 0.671658 0.201330
vt 0.671373 0.124633
vt 0.670379 0.199429
vt 0.670452 0.126038
vt 0.669326 0.127165
vt 0.668966 0.197816
vt 0.667974 0.128259
vt 0.667427 0.196494
vt 0.666849 0.129046
vt 0.665771 0.195463
vt 0.665682 0.129670
vt 0.664010 0.194726
vt 0.664474 0.130131
vt 0.663223 0.130429
vt 0.662152 0.194284
vt 0.661931 0.130564
vt 0.660207 0.194138
vt 0.660595 0.130536
vt 0.659218 0.130345
vt 0.658185 0.194291
vt 0.657797 0.129990
vt 0.656097 0.194742
vt 0.656333 0.129473
vt 0.654825 0.128793
vt 0.653951 0.195495
vt 0.653274 0.127949
vt 0.651757 0.196550
vt 0.651679 0.126942
vt 0.649526 0.197909
vt 0.648966 0.125277
vt 0.644356 0.200974
vt 0.645995 0.123746
vt 0.642809 0.122360
vt 0.638962 0.203398
vt 0.639452 0.121127
vt 0.635968 0.120057
vt 0.633403 0.205184
vt 0.632400 0.119161
vt 0.627738 0.206337
vt 0.628791 0.118449
vt 0.625185 0.117929
vt 0.622027 0.206860
vt 0.621626 0.117611
vt 0.616329 0.206758
vt 0.618156 0.117506
vt 0.614820 0.117623
vt 0.610704 0.206036
vt 0.611661 0.117972
vt 0.609439 0.118394
vt 0.605211 0.204697
vt 0.607110 0.118989
vt 0.604708 0.119740
vt 0.599910 0.202747
vt 0.602267 0.120631
vt 0.599820 0.121646
vt 0.594861 0.200189
vt 0.597402 0.122767
vt 0.595045 0.123978
vt 0.592783 0.125264
vt 0.590122 0.197028
vt 0.590651 0.126607
vt 0.588682 0.127991
vt 0.585753 0.193268
vt 0.586909 0.129399
vt 0.585367 0.130816
vt 0.584425 0.191904
vt 0.584703 0.131513
vt 0.584002 0.132312
vt 0.583136 0.190443
vt 0.583273 0.133199
vt 0.582527 0.134158
vt 0.581893 0.188897
vt 0.581773 0.135176
vt 0.580705 0.187280
vt 0.581022 0.136238
vt 0.580284 0.137330
vt 0.579577 0.185603
vt 0.579568 0.138436
vt 0.578519 0.183880
vt 0.578884 0.139544
vt 0.578244 0.140637
vt 0.577537 0.182123
vt 0.577656 0.141702
vt 0.577131 0.142724
vt 0.576638 0.180346
vt 0.576398 0.144238
vt 0.575832 0.178560
vt 0.575769 0.145605
vt 0.575124 0.176780
vt 0.575235 0.146864
vt 0.574788 0.148054
vt 0.574522 0.175017
vt 0.574419 0.149212
vt 0.574034 0.173284
vt 0.574120 0.150377
vt 0.573882 0.151586
vt 0.573901 0.172656
vt 0.573779 0.171880
vt 0.573695 0.152878
vt 0.573667 0.170973
vt 0.573553 0.154290
vt 0.573568 0.169951
vt 0.573480 0.168831
vt 0.573445 0.155861
vt 0.573407 0.167629
vt 0.573363 0.157629
vt 0.573348 0.166362
vt 0.573299 0.159632
vt 0.573304 0.165047
vt 0.573276 0.163699
vt 0.573273 0.160976
vt 0.573265 0.162337
vn 0.000000 0.000000 -1.000000
vn -1.000000 0.000000 0.000000
vn 1.000000 0.000000 0.000000
vn 1.000000 0.000200 0.000000
s 1
f 1/1/1 2/2/1 3/3/1
f 1/1/1 4/4/1 2/2/1
f 1/1/1 5/5/1 4/4/1
f 6/6/1 5/5/1 1/1/1
f 7/7/1 5/5/1 6/6/1
f 8/8/1 5/5/1 7/7/1
f 9/9/1 5/5/1 8/8/1
f 10/10/1 5/5/1 9/9/1
f 11/11/1 5/5/1 10/10/1
f 12/12/1 5/5/1 11/11/1
f 13/13/1 5/5/1 12/12/1
f 14/14/1 5/5/1 13/13/1
f 15/15/1 5/5/1 14/14/1
f 16/16/1 5/5/1 15/15/1
f 17/17/1 5/5/1 16/16/1
f 18/18/1 5/5/1 17/17/1
f 19/19/1 5/5/1 18/18/1
f 20/20/1 5/5/1 19/19/1
f 21/21/1 22/22/1 20/20/1
f 22/22/1 5/5/1 20/20/1
f 23/23/1 24/24/1 21/21/1
f 24/24/1 22/22/1 21/21/1
f 25/25/1 26/26/1 23/23/1
f 26/26/1 27/27/1 23/23/1
f 27/27/1 24/24/1 23/23/1
f 25/25/1 28/28/1 26/26/1
f 25/25/1 29/29/1 28/28/1
f 25/25/1 30/30/1 29/29/1
f 25/25/1 31/31/1 30/30/1
f 32/32/1 31/31/1 25/25/1
f 33/33/1 5/5/1 22/22/1
f 32/32/1 34/34/1 31/31/1
f 32/32/1 35/35/1 34/34/1
f 32/32/1 36/36/1 35/35/1
f 37/37/1 5/5/1 33/33/1
f 32/32/1 38/38/1 36/36/1
f 32/32/1 39/39/1 38/38/1
f 40/40/1 5/5/1 37/37/1
f 41/41/1 39/39/1 32/32/1
f 41/41/1 42/42/1 39/39/1
f 41/41/1 43/43/1 42/42/1
f 44/44/1 5/5/1 40/40/1
f 45/45/1 43/43/1 41/41/1
f 45/45/1 46/46/1 43/43/1
f 45/45/1 47/47/1 46/46/1
f 45/45/1 48/48/1 47/47/1
f 45/45/1 49/49/1 48/48/1
f 50/50/1 49/49/1 45/45/1
f 50/50/1 51/51/1 49/49/1
f 50/50/1 52/52/1 51/51/1
f 53/53/1 5/5/1 44/44/1
f 50/50/1 54/54/1 52/52/1
f 55/55/1 54/54/1 50/50/1
f 55/55/1 56/56/1 54/54/1
f 55/55/1 57/57/1 56/56/1
f 55/55/1 58/58/1 57/57/1
f 55/55/1 59/59/1 58/58/1
f 60/60/1 5/5/1 53/53/1
f 61/61/1 5/5/1 60/60/1
f 62/62/1 5/5/1 61/61/1
f 63/63/1 5/5/1 62/62/1
f 64/64/1 5/5/1 63/63/1
f 65/65/1 5/5/1 64/64/1
f 66/66/1 5/5/1 65/65/1
f 67/67/1 5/5/1 66/66/1
f 68/68/1 5/5/1 67/67/1
f 68/68/1 69/69/1 5/5/1
f 70/70/1 69/69/1 68/68/1
f 71/71/1 69/69/1 70/70/1
f 72/72/1 69/69/1 71/71/1
f 73/73/1 69/69/1 72/72/1
f 74/74/1 69/69/1 73/73/1
f 75/75/1 69/69/1 74/74/1
f 76/76/1 69/69/1 75/75/1
f 77/77/1 69/69/1 76/76/1
f 78/78/1 69/69/1 77/77/1
f 79/79/1 69/69/1 78/78/1
f 80/80/1 81/81/1 82/82/1
f 80/80/1 83/83/1 81/81/1
f 80/80/1 84/84/1 83/83/1
f 85/85/1 84/84/1 80/80/1
f 85/85/1 86/86/1 84/84/1
f 85/85/1 87/87/1 86/86/1
f 85/85/1 88/88/1 87/87/1
f 89/89/1 88/88/1 85/85/1
f 89/89/1 90/90/1 88/88/1
f 91/91/1 69/69/1 79/79/1
f 89/89/1 92/92/1 90/90/1
f 89/89/1 93/93/1 92/92/1
f 94/94/1 93/93/1 89/89/1
f 94/94/1 95/95/1 93/93/1
f 94/94/1 96/96/1 95/95/1
f 97/97/1 69/69/1 91/91/1
f 94/94/1 98/98/1 96/96/1
f 94/94/1 99/99/1 98/98/1
f 100/100/1 99/99/1 94/94/1
f 101/101/1 69/69/1 97/97/1
f 100/100/1 102/102/1 99/99/1
f 103/103/1 69/69/1 101/101/1
f 100/100/1 104/104/1 102/102/1
f 105/105/1 104/104/1 100/100/1
f 106/106/1 69/69/1 103/103/1
f 105/105/1 107/107/1 104/104/1
f 105/105/1 108/108/1 107/107/1
f 109/109/1 69/69/1 106/106/1
f 105/105/1 110/110/1 108/108/1
f 111/111/1 69/69/1 109/109/1
f 105/105/1 112/112/1 110/110/1
f 105/105/1 113/113/1 112/112/1
f 114/114/1 69/69/1 111/111/1
f 105/105/1 115/115/1 113/113/1
f 116/116/1 69/69/1 114/114/1
f 105/105/1 117/117/1 115/115/1
f 105/105/1 118/118/1 117/117/1
f 119/119/1 69/69/1 116/116/1
f 105/105/1 119/119/1 118/118/1
f 105/105/1 69/69/1 119/119/1
f 120/120/1 69/69/1 105/105/1
f 121/121/1 69/69/1 120/120/1
f 122/122/1 69/69/1 121/121/1
f 123/123/1 69/69/1 122/122/1
f 124/124/1 69/69/1 123/123/1
f 125/125/1 69/69/1 124/124/1
f 126/126/1 69/69/1 125/125/1
f 127/127/2 69/69/2 126/126/2
f 128/128/2 69/69/2 127/127/2
f 129/129/2 69/69/2 128/128/2
f 130/130/2 69/69/2 129/129/2
f 131/131/2 69/69/2 130/130/2
f 132/132/2 69/69/2 131/131/2
f 133/133/2 69/69/2 132/132/2
f 134/134/2 69/69/2 133/133/2
f 135/135/2 69/69/2 134/134/2
f 136/136/2 69/69/2 135/135/2
f 137/137/2 69/69/2 136/136/2
f 138/138/2 69/69/2 137/137/2
f 139/139/1 140/140/3 138/138/4
f 140/140/3 69/69/3 138/138/4
f 139/139/1 141/141/1 140/140/3
f 142/142/1 141/141/1 139/139/1
f 142/142/1 143/143/1 141/141/1
f 144/144/1 143/143/1 142/142/1
f 144/144/1 145/145/1 143/143/1
f 146/146/1 145/145/1 144/144/1
f 146/146/1 147/147/1 145/145/1
f 148/148/1 147/147/1 146/146/1
f 149/149/1 147/147/1 148/148/1
f 149/149/1 150/150/1 147/147/1
f 151/151/1 150/150/1 149/149/1
f 151/151/1 152/152/1 150/150/1
f 153/153/1 152/152/1 151/151/1
f 154/154/1 152/152/1 153/153/1
f 154/154/1 155/155/1 152/152/1
f 156/156/1 155/155/1 154/154/1
f 156/156/1 157/157/1 155/155/1
f 158/158/1 157/157/1 156/156/1
f 159/159/1 157/157/1 158/158/1
f 159/159/1 160/160/1 157/157/1
f 161/161/1 160/160/1 159/159/1
f 161/161/1 162/162/1 160/160/1
f 161/161/1 163/163/1 162/162/1
f 164/164/1 163/163/1 161/161/1
f 164/164/1 165/165/1 163/163/1
f 166/166/1 165/165/1 164/164/1
f 166/166/1 167/167/1 165/165/1
f 168/168/1 167/167/1 166/166/1
f 168/168/1 169/169/1 167/167/1
f 170/170/1 169/169/1 168/168/1
f 170/170/1 171/171/1 169/169/1
f 170/170/1 172/172/1 171/171/1
f 173/173/1 172/172/1 170/170/1
f 173/173/1 174/174/1 172/172/1
f 175/175/1 174/174/1 173/173/1
f 175/175/1 176/176/1 174/174/1
f 175/175/1 177/177/1 176/176/1
f 178/178/1 177/177/1 175/175/1
f 178/178/1 179/179/1 177/177/1
f 180/180/1 179/179/1 178/178/1
f 180/180/1 181/181/1 179/179/1
f 180/180/1 182/182/1 181/181/1
f 183/183/1 182/182/1 180/180/1
f 183/183/1 184/184/1 182/182/1
f 185/185/1 184/184/1 183/183/1
f 185/185/1 186/186/1 184/184/1
f 187/187/1 186/186/1 185/185/1
f 187/187/1 188/188/1 186/186/1
f 189/189/1 188/188/1 187/187/1
f 189/189/1 190/190/1 188/188/1
f 189/189/1 191/191/1 190/190/1
f 192/192/1 191/191/1 189/189/1
f 192/192/1 193/193/1 191/191/1
f 192/192/1 194/194/1 193/193/1
f 195/195/1 194/194/1 192/192/1
f 195/195/1 196/196/1 194/194/1
f 197/197/1 196/196/1 195/195/1
f 197/197/1 198/198/1 196/196/1
f 197/197/1 199/199/1 198/198/1
f 200/200/1 199/199/1 197/197/1
f 200/200/1 201/201/1 199/199/1
f 202/202/1 201/201/1 200/200/1
f 202/202/1 203/203/1 201/201/1
f 202/202/1 204/204/1 203/203/1
f 205/205/1 204/204/1 202/202/1
f 205/205/1 206/206/1 204/204/1
f 205/205/1 207/207/1 206/206/1
f 208/208/1 207/207/1 205/205/1
f 208/208/1 209/209/1 207/207/1
f 208/208/1 210/210/1 209/209/1
f 211/211/1 210/210/1 208/208/1
f 211/211/1 212/212/1 210/210/1
f 211/211/1 213/213/1 212/212/1
f 214/214/1 213/213/1 211/211/1
f 214/214/1 215/215/1 213/213/1
f 214/214/1 216/216/1 215/215/1
f 214/214/1 217/217/1 216/216/1
f 218/218/1 217/217/1 214/214/1
f 218/218/1 219/219/1 217/217/1
f 218/218/1 220/220/1 219/219/1
f 221/221/1 220/220/1 218/218/1
f 221/221/1 222/222/1 220/220/1
f 221/221/1 223/223/1 222/222/1
f 224/224/1 223/223/1 221/221/1
f 224/224/1 225/225/1 223/223/1
f 224/224/1 226/226/1 225/225/1
f 227/227/1 226/226/1 224/224/1
f 227/227/1 228/228/1 226/226/1
f 227/227/1 229/229/1 228/228/1
f 230/230/1 229/229/1 227/227/1
f 230/230/1 231/231/1 229/229/1
f 232/232/1 231/231/1 230/230/1
f 232/232/1 233/233/1 231/231/1
f 232/232/1 234/234/1 233/233/1
f 235/235/1 234/234/1 232/232/1
f 235/235/1 236/236/1 234/234/1
f 237/237/1 236/236/1 235/235/1
f 237/237/1 238/238/1 236/236/1
f 237/237/1 239/239/1 238/238/1
f 240/240/1 239/239/1 237/237/1
f 240/240/1 241/241/1 239/239/1
f 240/240/1 242/242/1 241/241/1
f 243/243/1 242/242/1 240/240/1
f 243/243/1 244/244/1 242/242/1
f 245/245/1 244/244/1 243/243/1
f 245/245/1 246/246/1 244/244/1
f 247/247/1 246/246/1 245/245/1
f 247/247/1 248/248/1 246/246/1
f 247/247/1 249/249/1 248/248/1
f 250/250/1 249/249/1 247/247/1
f 250/250/1 251/251/1 249/249/1
f 252/252/1 251/251/1 250/250/1
f 252/252/1 253/253/1 251/251/1
f 252/252/1 254/254/1 253/253/1
f 255/255/1 254/254/1 252/252/1
f 256/256/1 254/254/1 255/255/1
f 256/256/1 257/257/1 254/254/1
f 258/258/1 257/257/1 256/256/1
f 258/258/1 259/259/1 257/257/1
f 260/260/1 259/259/1 258/258/1
f 261/261/1 259/259/1 260/260/1
f 261/261/1 262/262/1 259/259/1
f 263/263/1 262/262/1 261/261/1
f 263/263/1 264/264/1 262/262/1
f 265/265/1 264/264/1 263/263/1
f 265/265/1 266/266/1 264/264/1
f 267/267/1 266/266/1 265/265/1
f 268/268/1 266/266/1 267/267/1
f 268/268/1 269/269/1 266/266/1
f 270/270/1 269/269/1 268/268/1
