# Blender v2.77 (sub 0) OBJ File: ''
# www.blender.org
mtllib TRBlob.mtl
o Blob
v -0.252037 0.805477 -0.000100
v 0.608621 -0.203269 -0.000100
v -0.489555 -0.498165 -0.000100
v 0.051037 -0.773870 -0.000100
v -0.024001 -0.796633 -0.000100
v 0.053245 -0.772690 -0.000100
v -0.102037 -0.804319 -0.000100
v -0.180072 -0.796633 -0.000100
v -0.255110 -0.773871 -0.000100
v -0.324264 -0.736907 -0.000100
v -0.384879 -0.687162 -0.000100
v -0.434624 -0.626547 -0.000100
v -0.552037 -0.504319 -0.000100
v -0.630072 -0.496633 -0.000100
v -0.471588 -0.557392 -0.000100
v 0.125736 -0.836907 -0.000100
v 0.065121 -0.787162 -0.000100
v 0.269928 -0.896633 -0.000100
v 0.194890 -0.873871 -0.000100
v 0.425999 -0.896633 -0.000100
v 0.347963 -0.904319 -0.000100
v 0.570191 -0.836906 -0.000100
v 0.501037 -0.873870 -0.000100
v 0.680551 -0.726547 -0.000100
v 0.630806 -0.787161 -0.000100
v 0.740277 -0.582355 -0.000100
v 0.717515 -0.657392 -0.000100
v 0.740277 -0.426283 -0.000100
v 0.747963 -0.504319 -0.000100
v 0.680551 -0.282090 -0.000100
v 0.717515 -0.351245 -0.000100
v 0.630806 -0.221476 -0.000100
v 0.667515 -0.107392 -0.000100
v 0.630551 -0.176547 -0.000100
v 0.697963 0.045681 -0.000100
v 0.690277 -0.032355 -0.000100
v 0.671122 0.186865 -0.000100
v 0.690277 0.123717 -0.000100
v 0.780806 0.262839 -0.000100
v 0.720191 0.213094 -0.000100
v 0.867515 0.392608 -0.000100
v 0.830551 0.323453 -0.000100
v 0.897963 0.545681 -0.000100
v 0.890277 0.467645 -0.000100
v 0.867515 0.698755 -0.000100
v 0.890277 0.623717 -0.000100
v 0.780806 0.828524 -0.000100
v 0.830551 0.767910 -0.000100
v 0.651037 0.915233 -0.000100
v 0.720191 0.878269 -0.000100
v 0.497963 0.945681 -0.000100
v 0.575999 0.937996 -0.000100
v 0.344890 0.915233 -0.000100
v 0.419927 0.937995 -0.000100
v 0.216932 0.830011 -0.000100
v 0.275735 0.878269 -0.000100
v 0.075999 0.887995 -0.000100
v 0.151037 0.865233 -0.000100
v -0.080073 0.887995 -0.000100
v -0.002037 0.895681 -0.000100
v -0.224265 0.828269 -0.000100
v -0.155110 0.865233 -0.000100
v -0.348963 0.865233 -0.000100
v -0.279809 0.828269 -0.000100
v -0.424001 0.887995 -0.000100
v -0.502037 0.895681 -0.000100
v -0.655110 0.865233 -0.000100
v -0.580073 0.887995 -0.000100
v -0.784880 0.778524 -0.000100
v -0.724265 0.828269 -0.000100
v -0.871589 0.648754 -0.000100
v -0.834625 0.717909 -0.000100
v -0.902037 0.495681 -0.000100
v -0.894351 0.573717 -0.000100
v -0.788175 0.216854 -0.000100
v -0.871588 0.342608 -0.000100
v -0.894351 0.417645 -0.000100
v -0.834624 0.273453 -0.000100
v -0.884625 0.117909 -0.000100
v -0.834880 0.178524 -0.000100
v -0.944351 -0.026283 -0.000100
v -0.921589 0.048754 -0.000100
v -0.944351 -0.182355 -0.000100
v -0.952037 -0.104319 -0.000100
v -0.884624 -0.326547 -0.000100
v -0.921588 -0.257392 -0.000100
v -0.774264 -0.436907 -0.000100
v -0.834879 -0.387162 -0.000100
v -0.705110 -0.473871 -0.000100
v -0.784879 0.212838 -0.000100
vt 0.812249 0.949586
vt 0.597084 0.697399
vt 0.871628 0.623675
vt 0.736480 0.554749
vt 0.755240 0.549058
vt 0.735928 0.555044
vt 0.774749 0.547137
vt 0.794258 0.549058
vt 0.813017 0.554749
vt 0.830306 0.563990
vt 0.845459 0.576426
vt 0.857896 0.591579
vt 0.887249 0.622137
vt 0.906758 0.624058
vt 0.867137 0.608868
vt 0.717806 0.538990
vt 0.732959 0.551426
vt 0.681758 0.524058
vt 0.700517 0.529749
vt 0.642740 0.524058
vt 0.662249 0.522137
vt 0.606692 0.538990
vt 0.623980 0.529749
vt 0.579102 0.566579
vt 0.591538 0.551426
vt 0.564170 0.602628
vt 0.569861 0.583868
vt 0.564170 0.641646
vt 0.562249 0.622137
vt 0.579102 0.677694
vt 0.569861 0.660405
vt 0.591538 0.692847
vt 0.582361 0.721368
vt 0.591602 0.704080
vt 0.574749 0.759637
vt 0.576670 0.740128
vt 0.581459 0.794933
vt 0.576670 0.779146
vt 0.554038 0.813926
vt 0.569192 0.801490
vt 0.532361 0.846368
vt 0.541602 0.829080
vt 0.524749 0.884637
vt 0.526670 0.865128
vt 0.532361 0.922905
vt 0.526670 0.904146
vt 0.554038 0.955347
vt 0.541602 0.940194
vt 0.586480 0.977025
vt 0.569192 0.967784
vt 0.624749 0.984637
vt 0.605240 0.982715
vt 0.663017 0.977025
vt 0.644258 0.982715
vt 0.695006 0.955719
vt 0.680306 0.967784
vt 0.730240 0.970215
vt 0.711480 0.964525
vt 0.769258 0.970215
vt 0.749749 0.972137
vt 0.805306 0.955283
vt 0.788017 0.964524
vt 0.836480 0.964525
vt 0.819192 0.955284
vt 0.855240 0.970215
vt 0.874749 0.972137
vt 0.913017 0.964524
vt 0.894258 0.970215
vt 0.945459 0.942847
vt 0.930306 0.955283
vt 0.967137 0.910405
vt 0.957896 0.927694
vt 0.974749 0.872137
vt 0.972827 0.891646
vt 0.946283 0.802430
vt 0.967137 0.833868
vt 0.972827 0.852627
vt 0.957896 0.816579
vt 0.970396 0.777694
vt 0.957959 0.792847
vt 0.985327 0.741646
vt 0.979637 0.760405
vt 0.985327 0.702627
vt 0.987249 0.722137
vt 0.970396 0.666579
vt 0.979637 0.683868
vt 0.942806 0.638990
vt 0.957959 0.651426
vt 0.925517 0.629749
vn 0.000000 0.000000 -1.000000
usemtl Material.001
s 1
f 1/1/1 2/2/1 3/3/1
f 4/4/1 5/5/1 6/6/1
f 7/7/1 8/8/1 6/6/1
f 9/9/1 10/10/1 3/3/1
f 11/11/1 12/12/1 3/3/1
f 3/3/1 13/13/1 14/14/1
f 12/12/1 15/15/1 3/3/1
f 8/8/1 9/9/1 3/3/1
f 6/6/1 5/5/1 7/7/1
f 16/16/1 17/17/1 6/6/1
f 18/18/1 19/19/1 6/6/1
f 20/20/1 21/21/1 6/6/1
f 22/22/1 23/23/1 6/6/1
f 24/24/1 25/25/1 2/2/1
f 26/26/1 27/27/1 2/2/1
f 28/28/1 29/29/1 2/2/1
f 30/30/1 31/31/1 2/2/1
f 2/2/1 32/32/1 30/30/1
f 33/33/1 34/34/1 2/2/1
f 35/35/1 36/36/1 2/2/1
f 37/37/1 38/38/1 35/35/1
f 39/39/1 40/40/1 37/37/1
f 41/41/1 42/42/1 37/37/1
f 43/43/1 44/44/1 37/37/1
f 45/45/1 46/46/1 37/37/1
f 47/47/1 48/48/1 37/37/1
f 49/49/1 50/50/1 37/37/1
f 51/51/1 52/52/1 37/37/1
f 53/53/1 54/54/1 55/55/1
f 55/55/1 56/56/1 53/53/1
f 57/57/1 58/58/1 55/55/1
f 59/59/1 60/60/1 1/1/1
f 61/61/1 62/62/1 1/1/1
f 63/63/1 64/64/1 1/1/1
f 1/1/1 62/62/1 59/59/1
f 60/60/1 57/57/1 1/1/1
f 55/55/1 54/54/1 51/51/1
f 52/52/1 49/49/1 37/37/1
f 48/48/1 45/45/1 37/37/1
f 44/44/1 41/41/1 37/37/1
f 37/37/1 35/35/1 2/2/1
f 42/42/1 39/39/1 37/37/1
f 50/50/1 47/47/1 37/37/1
f 1/1/1 57/57/1 55/55/1
f 55/55/1 51/51/1 37/37/1
f 36/36/1 33/33/1 2/2/1
f 46/46/1 43/43/1 37/37/1
f 65/65/1 63/63/1 1/1/1
f 1/1/1 55/55/1 37/37/1
f 2/2/1 31/31/1 28/28/1
f 1/1/1 37/37/1 2/2/1
f 66/66/1 65/65/1 1/1/1
f 67/67/1 68/68/1 1/1/1
f 69/69/1 70/70/1 1/1/1
f 71/71/1 72/72/1 1/1/1
f 73/73/1 74/74/1 75/75/1
f 76/76/1 77/77/1 75/75/1
f 75/75/1 78/78/1 76/76/1
f 79/79/1 80/80/1 75/75/1
f 81/81/1 82/82/1 75/75/1
f 83/83/1 84/84/1 75/75/1
f 85/85/1 86/86/1 3/3/1
f 87/87/1 88/88/1 3/3/1
f 14/14/1 89/89/1 3/3/1
f 10/10/1 11/11/1 3/3/1
f 3/3/1 89/89/1 87/87/1
f 88/88/1 85/85/1 3/3/1
f 84/84/1 81/81/1 75/75/1
f 75/75/1 77/77/1 73/73/1
f 82/82/1 79/79/1 75/75/1
f 3/3/1 86/86/1 75/75/1
f 6/6/1 8/8/1 3/3/1
f 19/19/1 16/16/1 6/6/1
f 23/23/1 20/20/1 6/6/1
f 27/27/1 24/24/1 2/2/1
f 2/2/1 29/29/1 26/26/1
f 66/66/1 1/1/1 68/68/1
f 70/70/1 67/67/1 1/1/1
f 74/74/1 71/71/1 1/1/1
f 86/86/1 83/83/1 75/75/1
f 75/75/1 74/74/1 1/1/1
f 69/69/1 1/1/1 72/72/1
f 2/2/1 25/25/1 22/22/1
f 21/21/1 18/18/1 6/6/1
f 6/6/1 3/3/1 2/2/1
f 75/75/1 1/1/1 3/3/1
f 2/2/1 22/22/1 6/6/1
l 75 90
