# Blender v2.77 (sub 0) OBJ File: ''
# www.blender.org
mtllib TRBlob.mtl
g Top_Right_Blob
v -0.207852 0.664267 -0.000082
v 0.501922 -0.167633 -0.000082
v -0.403730 -0.410830 -0.000083
v 0.042090 -0.638201 -0.000083
v -0.019793 -0.656973 -0.000083
v 0.043910 -0.637228 -0.000083
v -0.084149 -0.663312 -0.000083
v -0.148503 -0.656973 -0.000083
v -0.210386 -0.638201 -0.000083
v -0.267416 -0.607718 -0.000083
v -0.317405 -0.566694 -0.000083
v -0.358429 -0.516705 -0.000083
v -0.455258 -0.415905 -0.000083
v -0.519612 -0.409567 -0.000083
v -0.388913 -0.459674 -0.000083
v 0.103693 -0.690187 -0.000083
v 0.053704 -0.649162 -0.000083
v 0.222606 -0.739442 -0.000083
v 0.160723 -0.720670 -0.000083
v 0.351316 -0.739442 -0.000083
v 0.286961 -0.745780 -0.000083
v 0.470229 -0.690186 -0.000083
v 0.413199 -0.720669 -0.000083
v 0.561242 -0.599174 -0.000083
v 0.520218 -0.649162 -0.000083
v 0.610497 -0.480261 -0.000083
v 0.591725 -0.542143 -0.000083
v 0.610497 -0.351550 -0.000083
v 0.616836 -0.415905 -0.000083
v 0.561242 -0.232636 -0.000083
v 0.591725 -0.289667 -0.000083
v 0.520218 -0.182648 -0.000082
v 0.550491 -0.088565 -0.000082
v 0.520007 -0.145596 -0.000082
v 0.575601 0.037673 -0.000082
v 0.569263 -0.026683 -0.000082
v 0.553466 0.154105 -0.000082
v 0.569263 0.102028 -0.000082
v 0.643921 0.216760 -0.000082
v 0.593932 0.175736 -0.000082
v 0.715429 0.323779 -0.000082
v 0.684945 0.266748 -0.000082
v 0.740539 0.450016 -0.000082
v 0.734200 0.385661 -0.000082
v 0.715429 0.576254 -0.000082
v 0.734200 0.514371 -0.000082
v 0.643921 0.683273 -0.000082
v 0.684945 0.633286 -0.000082
v 0.536902 0.754781 -0.000082
v 0.593932 0.724297 -0.000082
v 0.410664 0.779891 -0.000082
v 0.475019 0.773553 -0.000082
v 0.284426 0.754781 -0.000082
v 0.346308 0.773552 -0.000082
v 0.178901 0.684499 -0.000082
v 0.227395 0.724297 -0.000082
v 0.062675 0.732318 -0.000082
v 0.124558 0.713547 -0.000082
v -0.066035 0.732318 -0.000082
v -0.001680 0.738657 -0.000082
v -0.184948 0.683063 -0.000082
v -0.127917 0.713547 -0.000082
v -0.287785 0.713547 -0.000082
v -0.230755 0.683063 -0.000082
v -0.349668 0.732318 -0.000082
v -0.414023 0.738657 -0.000082
v -0.540261 0.713547 -0.000082
v -0.478379 0.732318 -0.000082
v -0.647280 0.642039 -0.000082
v -0.597292 0.683063 -0.000082
v -0.718788 0.535019 -0.000082
v -0.688305 0.592050 -0.000082
v -0.743898 0.408782 -0.000082
v -0.737560 0.473137 -0.000082
v -0.649998 0.178837 -0.000082
v -0.718787 0.282544 -0.000082
v -0.737560 0.344426 -0.000082
v -0.688304 0.225513 -0.000082
v -0.729539 0.097238 -0.000082
v -0.688515 0.147226 -0.000082
v -0.778794 -0.021675 -0.000082
v -0.760023 0.040207 -0.000082
v -0.778794 -0.150386 -0.000082
v -0.785133 -0.086031 -0.000082
v -0.729538 -0.269299 -0.000083
v -0.760022 -0.212268 -0.000083
v -0.638526 -0.360312 -0.000083
v -0.688514 -0.319288 -0.000083
v -0.581495 -0.390795 -0.000083
v -0.647280 0.175525 -0.000082
vt 0.802405 0.915251
vt 0.624894 0.707197
vt 0.851393 0.646375
vt 0.739896 0.589511
vt 0.755373 0.584816
vt 0.739440 0.589754
vt 0.771468 0.583231
vt 0.787563 0.584816
vt 0.803039 0.589511
vt 0.817302 0.597134
vt 0.829803 0.607394
vt 0.840064 0.619895
vt 0.864280 0.645106
vt 0.880375 0.646691
vt 0.847688 0.634159
vt 0.724490 0.576510
vt 0.736991 0.586769
vt 0.694750 0.564191
vt 0.710226 0.568886
vt 0.662560 0.564191
vt 0.678655 0.562606
vt 0.632821 0.576510
vt 0.647083 0.568886
vt 0.610059 0.599270
vt 0.620319 0.586769
vt 0.597740 0.629011
vt 0.602435 0.613534
vt 0.597740 0.661201
vt 0.596155 0.645106
vt 0.610059 0.690940
vt 0.602435 0.676677
vt 0.620319 0.703442
vt 0.612748 0.726971
vt 0.620372 0.712709
vt 0.606468 0.758543
vt 0.608053 0.742448
vt 0.612004 0.787663
vt 0.608053 0.774638
vt 0.589381 0.803332
vt 0.601883 0.793072
vt 0.571498 0.830096
vt 0.579122 0.815834
vt 0.565218 0.861668
vt 0.566803 0.845573
vt 0.571498 0.893239
vt 0.566803 0.877763
vt 0.589381 0.920004
vt 0.579122 0.907503
vt 0.616146 0.937888
vt 0.601883 0.930265
vt 0.647718 0.944168
vt 0.631623 0.942583
vt 0.679289 0.937888
vt 0.663813 0.942583
vt 0.705680 0.920311
vt 0.693552 0.930265
vt 0.734748 0.932270
vt 0.719271 0.927576
vt 0.766938 0.932270
vt 0.750843 0.933856
vt 0.796677 0.919951
vt 0.782414 0.927575
vt 0.822396 0.927576
vt 0.808133 0.919952
vt 0.837873 0.932270
vt 0.853968 0.933856
vt 0.885539 0.927575
vt 0.870063 0.932270
vt 0.912304 0.909692
vt 0.899802 0.919951
vt 0.930188 0.882927
vt 0.922564 0.897190
vt 0.936468 0.851356
vt 0.934882 0.867451
vt 0.912983 0.793848
vt 0.930188 0.819784
vt 0.934882 0.835260
vt 0.922564 0.805520
vt 0.932877 0.773440
vt 0.922616 0.785941
vt 0.945195 0.743701
vt 0.940500 0.759177
vt 0.945195 0.711510
vt 0.946780 0.727606
vt 0.932877 0.681770
vt 0.940500 0.696034
vt 0.910115 0.659009
vt 0.922616 0.669269
vt 0.895851 0.651386
vn 0.000000 0.000000 -1.000000
usemtl Material.001
s 1
f 1/1/1 2/2/1 3/3/1
f 4/4/1 5/5/1 6/6/1
f 7/7/1 8/8/1 6/6/1
f 9/9/1 10/10/1 3/3/1
f 11/11/1 12/12/1 3/3/1
f 3/3/1 13/13/1 14/14/1
f 12/12/1 15/15/1 3/3/1
f 8/8/1 9/9/1 3/3/1
f 6/6/1 5/5/1 7/7/1
f 16/16/1 17/17/1 6/6/1
f 18/18/1 19/19/1 6/6/1
f 20/20/1 21/21/1 6/6/1
f 22/22/1 23/23/1 6/6/1
f 24/24/1 25/25/1 2/2/1
f 26/26/1 27/27/1 2/2/1
f 28/28/1 29/29/1 2/2/1
f 30/30/1 31/31/1 2/2/1
f 2/2/1 32/32/1 30/30/1
f 33/33/1 34/34/1 2/2/1
f 35/35/1 36/36/1 2/2/1
f 37/37/1 38/38/1 35/35/1
f 39/39/1 40/40/1 37/37/1
f 41/41/1 42/42/1 37/37/1
f 43/43/1 44/44/1 37/37/1
f 45/45/1 46/46/1 37/37/1
f 47/47/1 48/48/1 37/37/1
f 49/49/1 50/50/1 37/37/1
f 51/51/1 52/52/1 37/37/1
f 53/53/1 54/54/1 55/55/1
f 55/55/1 56/56/1 53/53/1
f 57/57/1 58/58/1 55/55/1
f 59/59/1 60/60/1 1/1/1
f 61/61/1 62/62/1 1/1/1
f 63/63/1 64/64/1 1/1/1
f 1/1/1 62/62/1 59/59/1
f 60/60/1 57/57/1 1/1/1
f 55/55/1 54/54/1 51/51/1
f 52/52/1 49/49/1 37/37/1
f 48/48/1 45/45/1 37/37/1
f 44/44/1 41/41/1 37/37/1
f 37/37/1 35/35/1 2/2/1
f 42/42/1 39/39/1 37/37/1
f 50/50/1 47/47/1 37/37/1
f 1/1/1 57/57/1 55/55/1
f 55/55/1 51/51/1 37/37/1
f 36/36/1 33/33/1 2/2/1
f 46/46/1 43/43/1 37/37/1
f 65/65/1 63/63/1 1/1/1
f 1/1/1 55/55/1 37/37/1
f 2/2/1 31/31/1 28/28/1
f 1/1/1 37/37/1 2/2/1
f 66/66/1 65/65/1 1/1/1
f 67/67/1 68/68/1 1/1/1
f 69/69/1 70/70/1 1/1/1
f 71/71/1 72/72/1 1/1/1
f 73/73/1 74/74/1 75/75/1
f 76/76/1 77/77/1 75/75/1
f 75/75/1 78/78/1 76/76/1
f 79/79/1 80/80/1 75/75/1
f 81/81/1 82/82/1 75/75/1
f 83/83/1 84/84/1 75/75/1
f 85/85/1 86/86/1 3/3/1
f 87/87/1 88/88/1 3/3/1
f 14/14/1 89/89/1 3/3/1
f 10/10/1 11/11/1 3/3/1
f 3/3/1 89/89/1 87/87/1
f 88/88/1 85/85/1 3/3/1
f 84/84/1 81/81/1 75/75/1
f 75/75/1 77/77/1 73/73/1
f 82/82/1 79/79/1 75/75/1
f 3/3/1 86/86/1 75/75/1
f 6/6/1 8/8/1 3/3/1
f 19/19/1 16/16/1 6/6/1
f 23/23/1 20/20/1 6/6/1
f 27/27/1 24/24/1 2/2/1
f 2/2/1 29/29/1 26/26/1
f 66/66/1 1/1/1 68/68/1
f 70/70/1 67/67/1 1/1/1
f 74/74/1 71/71/1 1/1/1
f 86/86/1 83/83/1 75/75/1
f 75/75/1 74/74/1 1/1/1
f 69/69/1 1/1/1 72/72/1
f 2/2/1 25/25/1 22/22/1
f 21/21/1 18/18/1 6/6/1
f 6/6/1 3/3/1 2/2/1
f 75/75/1 1/1/1 3/3/1
f 2/2/1 22/22/1 6/6/1
l 75 90
