# Blender v2.77 (sub 0) OBJ File: ''
# www.blender.org
g Top_Right_Bone
v 0.028677 -0.609422 -0.000000
v 0.063842 -0.661804 -0.000000
v 0.125763 -0.710321 0.000000
v 0.192146 -0.725607 0.000000
v 0.246983 -0.709490 -0.000000
v 0.296878 -0.678986 -0.000000
v 0.328073 -0.622342 -0.000000
v 0.332990 -0.573012 -0.000000
v 0.328703 -0.510170 -0.000000
v 0.289985 -0.447785 0.000000
v 0.247969 -0.404251 -0.000000
v 0.209032 -0.385864 -0.000000
v 0.208170 0.376803 0.000000
v 0.254756 0.403679 0.000000
v 0.292829 0.443677 0.000000
v 0.316655 0.490825 -0.000000
v 0.328518 0.539325 0.000000
v 0.328589 0.589103 0.000000
v 0.313222 0.640065 0.000000
v 0.275134 0.690291 0.000000
v 0.224763 0.720308 0.000000
v 0.190403 0.728961 -0.000000
v 0.141313 0.719773 0.000000
v 0.098083 0.692800 0.000000
v 0.067970 0.663976 0.000000
v 0.045314 0.635028 0.000000
v 0.028256 0.607754 0.000000
v 0.012875 0.645681 -0.000000
v -0.013732 0.686774 0.000000
v -0.058923 0.723797 -0.000000
v -0.107646 0.741118 0.000000
v -0.169495 0.742460 -0.000000
v -0.216676 0.726302 0.000000
v -0.251282 0.694238 0.000000
v -0.284504 0.653034 0.000000
v -0.295161 0.615208 -0.000000
v -0.293180 0.558870 -0.000000
v -0.271875 0.505578 0.000000
v -0.238518 0.459140 0.000000
v -0.204535 0.423513 0.000000
v -0.172130 0.391373 0.000000
v -0.168605 0.370409 -0.000000
v -0.167313 -0.391611 -0.000000
v -0.219183 -0.443007 0.000000
v -0.265009 -0.490362 -0.000000
v -0.296505 -0.547513 0.000000
v -0.304785 -0.610230 -0.000000
v -0.284897 -0.671709 0.000000
v -0.259615 -0.702939 -0.000000
v -0.223025 -0.724937 0.000000
v -0.179587 -0.742324 -0.000000
v -0.111603 -0.743238 -0.000000
v -0.067546 -0.722191 -0.000000
v -0.021432 -0.701236 0.000000
v 0.007013 -0.663477 -0.000000
vt 0.742674 0.901783
vt 0.686033 0.850754
vt 0.697683 0.844037
vt 0.820976 0.581995
vt 0.825949 0.597367
vt 0.805505 0.568677
vt 0.823879 0.613041
vt 0.816004 0.627320
vt 0.804545 0.639148
vt 0.766628 0.569331
vt 0.814654 0.574184
vt 0.794643 0.564322
vt 0.777644 0.564079
vt 0.747985 0.583993
vt 0.755097 0.574559
vt 0.718292 0.572257
vt 0.733775 0.584399
vt 0.666475 0.606543
vt 0.742568 0.597501
vt 0.701693 0.568422
vt 0.687981 0.572440
vt 0.791575 0.651986
vt 0.677228 0.637861
vt 0.667705 0.594211
vt 0.675505 0.580055
vt 0.667547 0.622256
vt 0.687734 0.648753
vt 0.697470 0.653357
vt 0.792784 0.847702
vt 0.800888 0.855737
vt 0.791903 0.842461
vt 0.676512 0.860753
vt 0.670554 0.872539
vt 0.809386 0.864644
vt 0.817728 0.876253
vt 0.823056 0.889574
vt 0.812579 0.923410
vt 0.823552 0.903656
vt 0.820887 0.913111
vt 0.803925 0.931424
vt 0.792127 0.935462
vt 0.776660 0.935125
vt 0.764476 0.930794
vt 0.753174 0.921538
vt 0.738408 0.908601
vt 0.746521 0.911265
vt 0.667587 0.884665
vt 0.671412 0.909853
vt 0.667569 0.897111
vt 0.732743 0.915837
vt 0.693533 0.929916
vt 0.680937 0.922411
vt 0.725212 0.923042
vt 0.714402 0.929784
vt 0.702126 0.932080
vn 0.000000 -0.000000 -1.000000
s 1
f 27/1/1 14/2/1 13/3/1
f 48/4/1 47/5/1 50/6/1
f 46/7/1 45/8/1 50/6/1
f 45/8/1 44/9/1 53/10/1
f 49/11/1 48/4/1 50/6/1
f 51/12/1 50/6/1 53/10/1
f 53/10/1 52/13/1 51/12/1
f 55/14/1 54/15/1 53/10/1
f 3/16/1 2/17/1 8/18/1
f 1/19/1 55/14/1 53/10/1
f 53/10/1 50/6/1 45/8/1
f 47/5/1 46/7/1 50/6/1
f 53/10/1 44/9/1 1/19/1
f 4/20/1 3/16/1 5/21/1
f 1/19/1 44/9/1 43/22/1
f 10/23/1 8/18/1 2/17/1
f 5/21/1 3/16/1 8/18/1
f 7/24/1 6/25/1 5/21/1
f 9/26/1 8/18/1 10/23/1
f 11/27/1 10/23/1 12/28/1
f 12/28/1 10/23/1 1/19/1
f 8/18/1 7/24/1 5/21/1
f 1/19/1 43/22/1 12/28/1
f 41/29/1 40/30/1 27/1/1
f 43/22/1 42/31/1 12/28/1
f 10/23/1 2/17/1 1/19/1
f 15/32/1 14/2/1 27/1/1
f 12/28/1 42/31/1 13/3/1
f 16/33/1 15/32/1 27/1/1
f 13/3/1 42/31/1 41/29/1
f 40/30/1 39/34/1 27/1/1
f 38/35/1 37/36/1 34/37/1
f 36/38/1 35/39/1 34/37/1
f 34/37/1 33/40/1 32/41/1
f 32/41/1 31/42/1 34/37/1
f 30/43/1 29/44/1 38/35/1
f 27/1/1 26/45/1 16/33/1
f 29/44/1 28/46/1 38/35/1
f 34/37/1 31/42/1 38/35/1
f 37/36/1 36/38/1 34/37/1
f 13/3/1 41/29/1 27/1/1
f 17/47/1 16/33/1 26/45/1
f 19/48/1 18/49/1 25/50/1
f 21/51/1 20/52/1 24/53/1
f 23/54/1 22/55/1 21/51/1
f 25/50/1 24/53/1 19/48/1
f 31/42/1 30/43/1 38/35/1
f 26/45/1 25/50/1 17/47/1
f 23/54/1 21/51/1 24/53/1
f 18/49/1 17/47/1 25/50/1
f 39/34/1 28/46/1 27/1/1
f 24/53/1 20/52/1 19/48/1
f 38/35/1 28/46/1 39/34/1
