# Blender v2.77 (sub 0) OBJ File: ''
# www.blender.org
mtllib TRCircle.mtl
o Circle_Cylinder.004
v -0.195090 0.980785 0.000000
v 0.000000 1.000000 -0.000000
v 0.195089 0.980786 -0.000000
v 0.382682 0.923880 -0.000000
v 0.555569 0.831470 -0.000000
v 0.707106 0.707108 -0.000000
v 0.831469 0.555571 -0.000000
v 0.923879 0.382684 -0.000000
v 0.980785 0.195091 -0.000000
v 1.000000 0.000001 -0.000000
v 0.980785 -0.195089 -0.000000
v 0.923880 -0.382683 -0.000000
v 0.831470 -0.555570 -0.000000
v 0.707107 -0.707106 -0.000000
v 0.555571 -0.831469 -0.000000
v 0.382684 -0.923879 -0.000000
v 0.195091 -0.980785 -0.000000
v -0.000000 -1.000000 0.000000
v -0.195090 -0.980785 0.000000
v -0.382683 -0.923880 0.000000
v -0.555570 -0.831470 0.000000
v -0.707107 -0.707107 0.000000
v -0.831470 -0.555570 0.000000
v -0.923880 -0.382683 0.000000
v -0.980785 -0.195090 0.000000
v -1.000000 0.000000 0.000000
v -0.980785 0.195090 0.000000
v -0.923880 0.382683 0.000000
v -0.831470 0.555570 0.000000
v -0.707107 0.707107 0.000000
v -0.555570 0.831470 0.000000
v -0.382683 0.923880 0.000000
vt 0.795885 0.993267
vt 0.746875 0.998094
vt 0.697865 0.993267
vt 0.650738 0.978971
vt 0.607305 0.955756
vt 0.569237 0.924514
vt 0.537994 0.886445
vt 0.514779 0.843013
vt 0.500483 0.795886
vt 0.495656 0.746875
vt 0.500483 0.697865
vt 0.514779 0.650738
vt 0.537994 0.607305
vt 0.569236 0.569236
vt 0.607305 0.537994
vt 0.650738 0.514779
vt 0.697865 0.500483
vt 0.746875 0.495656
vt 0.795885 0.500483
vt 0.843012 0.514779
vt 0.886445 0.537994
vt 0.924514 0.569236
vt 0.955756 0.607305
vt 0.978971 0.650738
vt 0.993267 0.697865
vt 0.998094 0.746875
vt 0.993267 0.795885
vt 0.978971 0.843012
vt 0.955756 0.886445
vt 0.924514 0.924514
vt 0.886445 0.955756
vt 0.843012 0.978971
vn -0.000000 0.000000 -1.000000
usemtl Material.015
s 1
f 1/1/1 2/2/1 3/3/1 4/4/1 5/5/1 6/6/1 7/7/1 8/8/1 9/9/1 10/10/1 11/11/1 12/12/1 13/13/1 14/14/1 15/15/1 16/16/1 17/17/1 18/18/1 19/19/1 20/20/1 21/21/1 22/22/1 23/23/1 24/24/1 25/25/1 26/26/1 27/27/1 28/28/1 29/29/1 30/30/1 31/31/1 32/32/1
