# Blender v2.77 (sub 0) OBJ File: ''
# www.blender.org
mtllib TRCircle.mtl
g Top_Right_Circle
v -0.195090 0.980785 0.000000
v 0.000000 1.000000 0.000000
v 0.195089 0.980786 0.000000
v 0.382682 0.923880 0.000000
v 0.555569 0.831470 0.000000
v 0.707106 0.707108 0.000000
v 0.831469 0.555571 0.000000
v 0.923879 0.382684 0.000000
v 0.980785 0.195091 0.000000
v 1.000000 0.000001 0.000000
v 0.980785 -0.195089 -0.000000
v 0.923880 -0.382683 -0.000000
v 0.831470 -0.555570 -0.000000
v 0.707107 -0.707106 -0.000000
v 0.555571 -0.831469 -0.000000
v 0.382684 -0.923879 -0.000000
v 0.195091 -0.980785 -0.000000
v 0.000000 -1.000000 -0.000000
v -0.195090 -0.980785 -0.000000
v -0.382683 -0.923880 -0.000000
v -0.555570 -0.831470 -0.000000
v -0.707107 -0.707107 -0.000000
v -0.831470 -0.555570 -0.000000
v -0.923880 -0.382683 -0.000000
v -0.980785 -0.195090 -0.000000
v -1.000000 0.000000 0.000000
v -0.980785 0.195090 0.000000
v -0.923880 0.382683 0.000000
v -0.831470 0.555570 0.000000
v -0.707107 0.707107 0.000000
v -0.555570 0.831470 0.000000
v -0.382683 0.923880 0.000000
vt 0.654329 0.519030
vt 0.980970 0.654329
vt 0.519030 0.845671
vt 0.845671 0.980970
vt 0.798772 0.995196
vt 0.995196 0.798772
vt 0.750000 1.000000
vt 0.701228 0.995196
vt 0.654329 0.980970
vt 0.611108 0.957867
vt 0.573223 0.926777
vt 0.542133 0.888893
vt 0.504804 0.798773
vt 0.500000 0.750000
vt 0.504804 0.701228
vt 0.519030 0.654329
vt 0.542132 0.611107
vt 0.573223 0.573223
vt 0.611107 0.542133
vt 0.701227 0.504804
vt 0.750000 0.500000
vt 0.798772 0.504804
vt 0.845671 0.519030
vt 0.888892 0.542132
vt 0.926777 0.573223
vt 0.957867 0.611107
vt 0.995196 0.701227
vt 1.000000 0.750000
vt 0.980970 0.845671
vt 0.957867 0.888892
vt 0.926777 0.926777
vt 0.888892 0.957867
vn -0.000000 0.000000 -1.000000
usemtl Material.007
s 1
f 16/1/1 24/2/1 8/3/1
f 32/4/1 1/5/1 27/6/1
f 2/7/1 3/8/1 4/9/1
f 4/9/1 5/10/1 8/3/1
f 6/11/1 7/12/1 8/3/1
f 8/3/1 9/13/1 10/14/1
f 10/14/1 11/15/1 8/3/1
f 12/16/1 13/17/1 14/18/1
f 14/18/1 15/19/1 16/1/1
f 16/1/1 17/20/1 18/21/1
f 18/21/1 19/22/1 16/1/1
f 20/23/1 21/24/1 22/25/1
f 22/25/1 23/26/1 20/23/1
f 24/2/1 25/27/1 1/5/1
f 26/28/1 27/6/1 25/27/1
f 28/29/1 29/30/1 30/31/1
f 30/31/1 31/32/1 28/29/1
f 1/5/1 2/7/1 4/9/1
f 5/10/1 6/11/1 8/3/1
f 8/3/1 11/15/1 16/1/1
f 12/16/1 14/18/1 11/15/1
f 16/1/1 19/22/1 24/2/1
f 20/23/1 23/26/1 24/2/1
f 25/27/1 27/6/1 1/5/1
f 28/29/1 31/32/1 32/4/1
f 1/5/1 4/9/1 8/3/1
f 11/15/1 14/18/1 16/1/1
f 19/22/1 20/23/1 24/2/1
f 27/6/1 28/29/1 32/4/1
f 1/5/1 8/3/1 24/2/1
