# Blender v2.77 (sub 0) OBJ File: ''
# www.blender.org
mtllib TRDoubleArrow.mtl
g Top_Right_DoubleArrow
v 0.293530 -1.000000 -0.000100
v -0.999903 -1.000023 -0.000100
v -0.999903 0.293507 -0.000100
v -0.927617 0.234171 -0.000100
v -0.841174 0.187967 -0.000100
v -0.747377 0.159514 -0.000100
v -0.649832 0.149906 -0.000100
v -0.552358 0.159584 -0.000100
v -0.458564 0.188029 -0.000100
v -0.372120 0.234234 -0.000100
v -0.296352 0.296415 -0.000100
v -0.234170 0.372184 -0.000100
v -0.187965 0.458627 -0.000100
v -0.159439 0.552361 -0.000100
v -0.149832 0.649906 -0.000100
v -0.159510 0.747522 -0.000100
v -0.187963 0.841318 -0.000100
v -0.234168 0.927762 -0.000100
v -0.293362 0.999906 -0.000100
v 1.000097 0.999977 -0.000100
v 1.000066 -0.293455 -0.000100
v 0.927923 -0.234228 -0.000069
v 0.841467 -0.188016 -0.000069
v 0.747560 -0.159536 -0.000069
v 0.650000 -0.149927 -0.000069
v 0.552441 -0.159536 -0.000069
v 0.458630 -0.187993 -0.000069
v 0.372215 -0.234265 -0.000100
v 0.296447 -0.296447 -0.000100
v 0.234265 -0.372215 -0.000100
v 0.187979 -0.458615 -0.000139
v 0.159607 -0.552455 -0.000100
v 0.150000 -0.650000 -0.000100
v 0.159607 -0.747545 -0.000100
v 0.188060 -0.841342 -0.000100
v 0.234265 -0.927785 -0.000100
vt 0.808518 0.981935
vt 0.499951 0.999988
vt 0.796966 0.960324
vt 0.691409 0.518048
vt 0.676593 0.499994
vt 0.999951 0.499988
vt 0.999951 0.823371
vt 0.981880 0.808537
vt 0.960269 0.796986
vt 0.702961 0.539659
vt 0.710074 0.563108
vt 0.936820 0.789873
vt 0.912434 0.787471
vt 0.712476 0.587494
vt 0.710074 0.611880
vt 0.888065 0.789890
vt 0.702981 0.635341
vt 0.691409 0.656940
vt 0.843006 0.808553
vt 0.864617 0.797001
vt 0.675864 0.675882
vt 0.656922 0.691428
vt 0.824064 0.824098
vt 0.808518 0.843040
vt 0.635318 0.702996
vt 0.796967 0.864651
vt 0.611866 0.710110
vt 0.789835 0.888085
vt 0.587476 0.712512
vt 0.563086 0.710110
vt 0.787434 0.912471
vt 0.539609 0.702990
vt 0.789853 0.936875
vt 0.499959 0.676630
vt 0.517995 0.691437
vt 0.823316 0.999971
vn 0.000000 0.000000 -1.000000
vn -0.000100 -0.000100 -1.000000
vn 0.000200 0.000200 -1.000000
vn 0.000100 0.000100 -1.000000
vn -0.000400 0.000000 -1.000000
vn -0.000300 -0.000000 -1.000000
usemtl Material.016
s 1
f 18/1/1 20/2/1 17/3/1
f 36/4/1 1/5/1 2/6/1
f 2/6/1 3/7/1 4/8/1
f 2/6/1 4/8/1 5/9/1
f 35/10/1 36/4/1 2/6/1
f 34/11/1 35/10/1 2/6/1
f 2/6/1 5/9/1 6/12/1
f 2/6/1 6/12/1 7/13/1
f 33/14/1 34/11/1 2/6/1
f 32/15/2 33/14/1 2/6/1
f 2/6/1 7/13/1 8/16/1
f 2/6/1 8/16/1 32/15/2
f 31/17/2 32/15/2 8/16/1
f 30/18/3 31/17/2 10/19/1
f 8/16/1 9/20/1 31/17/2
f 9/20/1 10/19/1 31/17/2
f 29/21/1 30/18/3 10/19/1
f 28/22/4 29/21/1 11/23/1
f 10/19/1 11/23/1 29/21/1
f 28/22/4 11/23/1 12/24/1
f 27/25/4 28/22/4 12/24/1
f 27/25/4 12/24/1 13/26/1
f 26/27/1 27/25/4 14/28/1
f 27/25/4 13/26/1 14/28/1
f 25/29/1 26/27/1 20/2/1
f 26/27/1 14/28/1 20/2/1
f 24/30/1 25/29/1 20/2/1
f 14/28/1 15/31/1 20/2/1
f 23/32/1 24/30/1 20/2/1
f 15/31/1 16/33/1 20/2/1
f 20/2/1 21/34/5 22/35/6
f 22/35/6 23/32/1 20/2/1
f 18/1/1 19/36/1 20/2/1
f 16/33/1 17/3/1 20/2/1
