# Blender v2.77 (sub 0) OBJ File: ''
# www.blender.org
mtllib TRDoubleArrow.mtl
o Plane.004
v 0.293530 -1.000000 -0.000100
v -0.999903 -1.000023 -0.000100
v -0.999903 0.293507 -0.000100
v -0.927617 0.234171 -0.000100
v -0.841174 0.187967 -0.000100
v -0.747377 0.159514 -0.000100
v -0.649832 0.149906 -0.000100
v -0.552358 0.159584 -0.000100
v -0.458564 0.188029 -0.000100
v -0.372120 0.234234 -0.000100
v -0.296352 0.296415 -0.000100
v -0.234170 0.372184 -0.000100
v -0.187965 0.458627 -0.000100
v -0.159439 0.552361 -0.000100
v -0.149832 0.649906 -0.000100
v -0.159510 0.747522 -0.000100
v -0.187963 0.841318 -0.000100
v -0.234168 0.927762 -0.000100
v -0.293362 0.999906 -0.000100
v 1.000097 0.999977 -0.000100
v 1.000066 -0.293455 -0.000100
v 0.927923 -0.234228 -0.000069
v 0.841467 -0.188016 -0.000069
v 0.747560 -0.159536 -0.000069
v 0.650000 -0.149927 -0.000069
v 0.552441 -0.159536 -0.000069
v 0.458630 -0.187993 -0.000069
v 0.372215 -0.234265 -0.000100
v 0.296447 -0.296447 -0.000100
v 0.234265 -0.372215 -0.000100
v 0.187979 -0.458615 -0.000139
v 0.159607 -0.552455 -0.000100
v 0.150000 -0.650000 -0.000100
v 0.159607 -0.747545 -0.000100
v 0.188060 -0.841342 -0.000100
v 0.234265 -0.927785 -0.000100
vt 0.676593 0.499994
vt 0.999951 0.499988
vt 0.999951 0.823371
vt 0.981880 0.808537
vt 0.960269 0.796986
vt 0.936820 0.789873
vt 0.912434 0.787471
vt 0.888065 0.789890
vt 0.864617 0.797001
vt 0.843006 0.808553
vt 0.824064 0.824098
vt 0.808518 0.843040
vt 0.796967 0.864651
vt 0.789835 0.888085
vt 0.787434 0.912471
vt 0.789853 0.936875
vt 0.796966 0.960324
vt 0.808518 0.981935
vt 0.823316 0.999971
vt 0.499951 0.999988
vt 0.499959 0.676630
vt 0.517995 0.691437
vt 0.539609 0.702990
vt 0.563086 0.710110
vt 0.587476 0.712512
vt 0.611866 0.710110
vt 0.635318 0.702996
vt 0.656922 0.691428
vt 0.675864 0.675882
vt 0.691409 0.656940
vt 0.702981 0.635341
vt 0.710074 0.611880
vt 0.712476 0.587494
vt 0.710074 0.563108
vt 0.702961 0.539659
vt 0.691409 0.518048
vn -0.000000 -0.000000 -1.000000
usemtl Material.016
s 1
f 1/1/1 2/2/1 3/3/1 4/4/1 5/5/1 6/6/1 7/7/1 8/8/1 9/9/1 10/10/1 11/11/1 12/12/1 13/13/1 14/14/1 15/15/1 16/16/1 17/17/1 18/18/1 19/19/1 20/20/1 21/21/1 22/22/1 23/23/1 24/24/1 25/25/1 26/26/1 27/27/1 28/28/1 29/29/1 30/30/1 31/31/1 32/32/1 33/33/1 34/34/1 35/35/1 36/36/1
