# Blender v2.77 (sub 0) OBJ File: ''
# www.blender.org
g TopRightJigsaw2x2
v 0.434190 0.064496 0.000001
v -0.276280 -0.876569 0.000000
v -0.910953 1.061224 -0.000000
v -0.908215 -0.876584 0.000000
v 1.030476 1.061420 -0.000000
v 1.028148 0.406631 -0.000000
v 0.868701 0.392744 -0.000000
v 1.021879 0.374261 -0.000000
v 1.017707 0.350492 -0.000000
v 1.000522 0.337625 -0.000000
v 0.970272 0.344358 -0.000000
v 0.927008 0.370666 -0.000000
v -0.178248 -0.892992 0.000002
v -0.211688 -0.888257 0.000000
v -0.245025 -0.879035 0.000000
v -0.200227 -1.077898 0.000000
v -0.171870 -1.012468 0.000002
v 0.313461 -1.065421 0.000001
v -0.218960 -1.211918 0.000000
v -0.219727 -1.145874 0.000000
v -0.185541 -1.333305 0.000000
v -0.211168 -1.266760 0.000000
v -0.143679 -1.384046 -0.000000
v -0.101456 -1.421073 0.000001
v 0.217253 -1.418257 0.000002
v 0.031104 -1.472484 0.000001
v -0.043246 -1.453632 0.000002
v 0.101311 -1.468248 0.000001
v 0.171597 -1.454813 0.000001
v 0.262823 -1.381765 0.000001
v 0.334255 -1.226720 0.000001
v 0.324693 -1.283689 0.000001
v 0.299390 -1.336136 0.000001
v 0.334703 -1.181206 0.000001
v 0.330825 -1.119877 0.000001
v 0.265272 -0.972566 0.000001
v 0.291616 -1.015584 0.000001
v -0.144072 -0.969762 0.000001
v 0.258938 -0.941016 0.000001
v -0.141224 -0.940493 0.000001
v 0.265972 -0.911842 0.000001
v -0.151844 -0.913411 0.000001
v 0.297400 -0.894107 0.000001
v 0.476868 -0.068114 0.000001
v 0.524617 -0.126001 0.000001
v 0.335393 -0.885401 0.000001
v 1.025437 -0.217892 0.000001
v 1.024942 -0.874618 -0.000004
v 0.854827 -0.210196 0.000001
v 0.384501 -0.876775 0.000001
v 0.576908 -0.172931 0.000001
v 0.803968 0.408380 -0.000000
v 0.704718 0.406981 -0.000000
v 0.793568 -0.225401 0.000001
v 1.011990 -0.160064 0.000001
v 1.023090 -0.191202 0.000001
v 0.961778 -0.161974 0.000001
v 0.992269 -0.146641 0.000001
v 0.916007 -0.190552 0.000001
v 0.642058 0.388010 -0.000000
v 0.590115 0.366755 -0.000000
v 0.708165 -0.220444 0.000001
v 0.544542 0.334575 -0.000000
v 0.640301 -0.204454 0.000001
v 0.503125 0.287077 -0.000000
v 0.470265 0.237222 -0.000000
v 0.448121 0.178426 -0.000000
v 0.436780 0.117176 0.000001
v 0.451116 -0.003882 0.000001
vt 0.504455 0.989568
vt 0.561098 0.826338
vt 0.585898 0.825957
vt 0.533073 0.676590
vt 0.521635 0.683732
vt 0.505716 0.669744
vt 0.514007 0.687563
vt 0.509066 0.684211
vt 0.506306 0.676403
vt 0.505839 0.505555
vt 0.548366 0.671665
vt 0.585026 0.669065
vt 0.563690 0.667876
vt 0.665949 0.505018
vt 0.601999 0.673106
vt 0.617847 0.680981
vt 0.678227 0.502862
vt 0.630948 0.692751
vt 0.687724 0.500685
vt 0.642855 0.707208
vt 0.806635 0.500963
vt 0.649306 0.723221
vt 0.823331 0.504453
vt 0.653531 0.740337
vt 0.831144 0.505069
vt 0.695581 0.496251
vt 0.652875 0.753500
vt 0.989812 0.989516
vt 0.695757 0.481071
vt 0.689170 0.470316
vt 0.798092 0.481771
vt 0.683708 0.457856
vt 0.805042 0.471095
vt 0.679369 0.444243
vt 0.678398 0.428910
vt 0.678510 0.417532
vt 0.680898 0.403287
vt 0.687227 0.390178
vt 0.696369 0.378771
vt 0.707760 0.369646
vt 0.719175 0.360509
vt 0.736747 0.357150
vt 0.754297 0.356091
vt 0.772885 0.360804
vt 0.787437 0.368943
vt 0.797994 0.378200
vt 0.808459 0.390885
vt 0.814867 0.407521
vt 0.816814 0.421232
vt 0.817006 0.437743
vt 0.812131 0.454737
vt 0.697340 0.488957
vt 0.797382 0.489089
vt 0.800034 0.495859
vt 0.650049 0.768826
vt 0.814995 0.502147
vt 0.644505 0.783525
vt 0.989132 0.505068
vt 0.614534 0.815885
vt 0.506604 0.817780
vt 0.507645 0.811841
vt 0.511946 0.808618
vt 0.544896 0.822411
vt 0.636397 0.796152
vt 0.519507 0.810286
vt 0.530321 0.816884
vt 0.625940 0.807841
vt 0.505037 0.825863
vt 0.601563 0.821231
vn 0.000000 -0.000000 -1.000000
vn -0.000000 -0.000100 -1.000000
vn 0.000100 0.000200 -1.000000
s 1
f 5/1/1 52/2/1 53/3/1
f 59/4/1 57/5/1 47/6/1
f 58/7/1 55/8/1 57/5/1
f 56/9/1 47/6/1 57/5/1
f 47/6/1 48/10/1 49/11/1
f 57/5/1 55/8/1 56/9/1
f 49/11/1 59/4/1 47/6/1
f 48/10/1 62/12/1 54/13/1
f 50/14/1 62/12/1 48/10/1
f 54/13/1 49/11/1 48/10/1
f 50/14/1 64/15/1 62/12/1
f 51/16/1 64/15/1 50/14/1
f 46/17/1 51/16/1 50/14/1
f 46/17/1 45/18/1 51/16/1
f 46/17/1 43/19/1 45/18/1
f 45/18/1 43/19/1 44/20/1
f 44/20/1 43/19/1 13/21/1
f 69/22/1 44/20/1 15/23/1
f 1/24/1 69/22/1 2/25/1
f 43/19/1 41/26/1 13/21/1
f 68/27/1 1/24/1 3/28/1
f 36/29/1 37/30/1 38/31/1
f 37/30/1 18/32/1 17/33/1
f 35/34/1 34/35/1 18/32/1
f 31/36/1 32/37/1 33/38/1
f 33/38/1 30/39/1 31/36/1
f 25/40/1 29/41/1 28/42/1
f 28/42/1 26/43/1 27/44/2
f 27/44/2 24/45/1 28/42/1
f 23/46/1 21/47/1 22/48/1
f 22/48/1 19/49/1 23/46/1
f 20/50/1 16/51/1 19/49/1
f 16/51/1 17/33/1 18/32/1
f 23/46/1 19/49/1 25/40/1
f 28/42/1 24/45/1 25/40/1
f 30/39/1 25/40/1 31/36/1
f 34/35/1 25/40/1 19/49/1
f 18/32/1 34/35/1 16/51/1
f 25/40/1 24/45/1 23/46/1
f 19/49/1 16/51/1 34/35/1
f 17/33/1 38/31/1 37/30/1
f 31/36/1 25/40/1 34/35/1
f 39/52/1 36/29/1 38/31/1
f 39/52/1 38/31/1 40/53/1
f 41/26/1 40/53/1 42/54/1
f 39/52/1 40/53/1 41/26/1
f 67/55/1 68/27/1 3/28/1
f 13/21/1 14/56/3 15/23/1
f 41/26/1 42/54/1 13/21/1
f 66/57/1 67/55/1 3/28/1
f 44/20/1 13/21/1 15/23/1
f 69/22/1 15/23/1 2/25/1
f 2/25/1 4/58/1 3/28/1
f 3/28/1 5/1/1 61/59/1
f 8/60/1 9/61/1 10/62/1
f 5/1/1 7/63/1 52/2/1
f 1/24/1 2/25/1 3/28/1
f 65/64/1 66/57/1 3/28/1
f 8/60/1 10/62/1 11/65/1
f 8/60/1 11/65/1 12/66/1
f 63/67/1 65/64/1 3/28/1
f 61/59/1 63/67/1 3/28/1
f 8/60/1 12/66/1 6/68/1
f 12/66/1 7/63/1 6/68/1
f 60/69/1 61/59/1 5/1/1
f 53/3/1 60/69/1 5/1/1
f 6/68/1 7/63/1 5/1/1
