# Blender v2.77 (sub 0) OBJ File: ''
# www.blender.org
g Top_Right_Pie
v -0.004710 0.004710 0.000000
v 0.523531 -0.523531 -0.000000
v -0.737967 0.002946 0.000000
v -0.741269 -0.031428 0.000000
v -0.736849 -0.089687 -0.000000
v -0.726412 -0.161326 0.000000
v -0.707157 -0.229081 0.000000
v -0.671116 -0.317189 -0.000000
v -0.627872 -0.392721 -0.000000
v -0.571229 -0.468882 -0.000000
v -0.524551 -0.523030 -0.000000
v -0.449230 -0.584437 -0.000000
v -0.377613 -0.634838 0.000000
v -0.294381 -0.674155 0.000000
v -0.212868 -0.704470 -0.000000
v -0.137596 -0.721056 -0.000000
v -0.057647 -0.730808 -0.000000
v 0.020250 -0.731346 -0.000000
v 0.089325 -0.729518 -0.000000
v 0.167324 -0.716222 0.000000
v 0.249686 -0.691445 0.000000
v 0.336292 -0.655235 -0.000000
v 0.422549 -0.607644 -0.000000
v 0.495011 -0.550996 -0.000000
v -0.002721 0.725320 0.000000
v -0.001319 0.004718 0.000000
v 0.525550 -0.521586 -0.000000
v 0.566604 -0.469643 0.000000
v 0.609778 -0.420161 -0.000000
v 0.650206 -0.357391 0.000000
v 0.683611 -0.288213 -0.000000
v 0.712290 -0.214974 -0.000000
v 0.731729 -0.133355 -0.000000
v 0.742421 -0.056656 0.000000
v 0.740095 0.015201 0.000000
v 0.739887 0.088754 0.000000
v 0.724237 0.170375 -0.000000
v 0.700206 0.247116 -0.000000
v 0.670030 0.319063 0.000000
v 0.631616 0.386289 -0.000000
v 0.587114 0.450957 -0.000000
v 0.536678 0.508956 -0.000000
v 0.480286 0.562450 -0.000000
v 0.424493 0.601274 0.000000
v 0.371127 0.635844 0.000000
v 0.313832 0.666173 0.000000
v 0.250528 0.690258 0.000000
v 0.189561 0.710220 0.000000
v 0.132995 0.722055 0.000000
v 0.082822 0.729857 -0.000000
v 0.036902 0.735653 0.000000
v 0.003542 0.735457 -0.000000
v -0.002550 0.736405 -0.000000
vt 0.880903 0.619193
vt 0.892576 0.632735
vt 0.750928 0.750960
vt 0.564090 0.735598
vt 0.566765 0.716417
vt 0.750080 0.750962
vt 0.618835 0.618845
vt 0.625966 0.611988
vt 0.644084 0.597848
vt 0.665651 0.585974
vt 0.687306 0.576944
vt 0.707900 0.570770
vt 0.727403 0.567464
vt 0.744675 0.567022
vt 0.764153 0.567173
vt 0.784144 0.569627
vt 0.802965 0.573787
vt 0.823348 0.581380
vt 0.844160 0.591223
vt 0.862069 0.603833
vt 0.906740 0.651778
vt 0.917554 0.670662
vt 0.926568 0.692687
vt 0.931383 0.709622
vt 0.933994 0.727526
vt 0.935100 0.742086
vt 0.934275 0.750675
vt 0.750421 0.931172
vt 0.716482 0.930352
vt 0.748855 0.933707
vt 0.740512 0.933755
vt 0.750378 0.933944
vt 0.618330 0.619332
vt 0.608063 0.632321
vt 0.587155 0.660392
vt 0.597266 0.644695
vt 0.729029 0.932305
vt 0.702337 0.927391
vt 0.687091 0.922398
vt 0.671260 0.916374
vt 0.656933 0.908788
vt 0.643588 0.900142
vt 0.629636 0.890431
vt 0.615534 0.877052
vt 0.602922 0.862547
vt 0.591794 0.846374
vt 0.582189 0.829561
vt 0.574643 0.811567
vt 0.568635 0.792375
vt 0.564671 0.753569
vt 0.564722 0.771963
vt 0.578800 0.677691
vt 0.571628 0.696006
vn 0.000000 0.000000 -1.000000
s 1
f 11/1/1 10/2/1 1/3/1
f 34/4/1 33/5/1 26/6/1
f 1/3/1 2/7/1 24/8/1
f 24/8/1 23/9/1 1/3/1
f 22/10/1 21/11/1 1/3/1
f 20/12/1 19/13/1 1/3/1
f 18/14/1 17/15/1 1/3/1
f 16/16/1 15/17/1 1/3/1
f 14/18/1 13/19/1 1/3/1
f 12/20/1 11/1/1 1/3/1
f 10/2/1 9/21/1 1/3/1
f 8/22/1 7/23/1 1/3/1
f 6/24/1 5/25/1 1/3/1
f 4/26/1 3/27/1 5/25/1
f 1/3/1 23/9/1 22/10/1
f 21/11/1 20/12/1 1/3/1
f 17/15/1 16/16/1 1/3/1
f 13/19/1 12/20/1 1/3/1
f 9/21/1 8/22/1 1/3/1
f 5/25/1 3/27/1 1/3/1
f 1/3/1 19/13/1 18/14/1
f 15/17/1 14/18/1 1/3/1
f 7/23/1 6/24/1 1/3/1
f 2/7/1 1/3/1 26/6/1
f 26/6/1 25/28/1 49/29/1
f 52/30/1 51/31/1 25/28/1
f 25/28/1 53/32/1 52/30/1
f 27/33/1 2/7/1 28/34/1
f 30/35/1 29/36/1 26/6/1
f 28/34/1 2/7/1 26/6/1
f 25/28/1 51/31/1 50/37/1
f 50/37/1 49/29/1 25/28/1
f 48/38/1 47/39/1 26/6/1
f 46/40/1 45/41/1 26/6/1
f 44/42/1 43/43/1 26/6/1
f 42/44/1 41/45/1 26/6/1
f 40/46/1 39/47/1 26/6/1
f 38/48/1 37/49/1 26/6/1
f 35/50/1 34/4/1 26/6/1
f 37/49/1 36/51/1 26/6/1
f 41/45/1 40/46/1 26/6/1
f 45/41/1 44/42/1 26/6/1
f 49/29/1 48/38/1 26/6/1
f 28/34/1 26/6/1 29/36/1
f 31/52/1 30/35/1 26/6/1
f 33/5/1 32/53/1 26/6/1
f 36/51/1 35/50/1 26/6/1
f 43/43/1 42/44/1 26/6/1
f 26/6/1 47/39/1 46/40/1
f 32/53/1 31/52/1 26/6/1
f 39/47/1 38/48/1 26/6/1
