# Blender v2.77 (sub 0) OBJ File: ''
# www.blender.org
g Top_Right_QuatrefoilOne
v 0.004512 -0.750000 -0.020625
v 0.750000 -0.009442 -0.020625
v 0.750000 0.020663 -0.020625
v 0.075589 -0.742613 -0.020625
v 0.144917 -0.721635 -0.020625
v 0.204523 -0.694724 -0.020625
v 0.260383 -0.656024 -0.020625
v 0.306502 -0.611290 -0.020625
v 0.340791 -0.566360 -0.020625
v 0.365182 -0.521256 -0.020625
v 0.389726 -0.468124 -0.020625
v 0.400192 -0.424674 -0.020625
v 0.404513 -0.394978 -0.020625
v 0.442734 -0.393069 -0.020625
v 0.503338 -0.375317 -0.020625
v 0.554157 -0.345575 -0.020625
v 0.603151 -0.311762 -0.020625
v 0.654548 -0.263853 -0.020625
v 0.692064 -0.207734 -0.020625
v 0.723769 -0.143340 -0.020625
v 0.741362 -0.076668 -0.020625
v 0.748158 0.061494 -0.020625
v 0.730935 0.124776 -0.020625
v 0.705518 0.192334 -0.020625
v 0.665440 0.249751 -0.020625
v 0.618964 0.299020 -0.020625
v 0.578361 0.333935 -0.020624
v 0.519195 0.368793 -0.020625
v 0.468013 0.387150 -0.020625
v 0.427039 0.399349 -0.020625
v 0.400369 0.403342 -0.020624
v 0.390578 0.453064 -0.020625
v 0.366479 0.517398 -0.020625
v 0.331963 0.577674 -0.020624
v 0.287024 0.635932 -0.020625
v 0.237726 0.671190 -0.020625
v 0.186315 0.706466 -0.020624
v 0.128640 0.731200 -0.020624
v 0.062699 0.749552 -0.020625
v 0.000911 0.748999 -0.020625
v -0.048462 0.746456 -0.020625
v -0.099814 0.737595 -0.020625
v -0.146978 0.726686 -0.020624
v -0.191958 0.705334 -0.020625
v -0.226620 0.684112 -0.020625
v -0.273371 0.650303 -0.020625
v -0.311782 0.610405 -0.020624
v -0.347914 0.558184 -0.020624
v -0.373698 0.500011 -0.020625
v -0.395360 0.444137 -0.020625
v -0.400915 0.400877 -0.020625
v -0.461472 0.392317 -0.020625
v -0.527697 0.365284 -0.020625
v -0.587493 0.326089 -0.020625
v -0.635005 0.285039 -0.020625
v -0.682003 0.225834 -0.020625
v -0.720560 0.154767 -0.020625
v -0.740873 0.078039 -0.020625
v -0.749208 0.003694 -0.020624
v -0.743620 -0.070315 -0.020625
v -0.724106 -0.147996 -0.020625
v -0.699228 -0.201595 -0.020625
v -0.648483 -0.266936 -0.020625
v -0.598157 -0.316333 -0.020625
v -0.554142 -0.347917 -0.020625
v -0.502295 -0.377520 -0.020625
v -0.448720 -0.391383 -0.020625
v -0.403096 -0.401302 -0.020625
v -0.384420 -0.473945 -0.020625
v -0.354023 -0.542454 -0.020625
v -0.313954 -0.602998 -0.020625
v -0.260255 -0.657622 -0.020625
v -0.204805 -0.696653 -0.020625
v -0.143579 -0.722125 -0.020625
v -0.084368 -0.739844 -0.020625
v -0.035033 -0.747841 -0.020625
vt 0.843191 0.874866
vt 0.749513 0.937093
vt 0.690291 0.917636
vt 0.562194 0.754934
vt 0.562195 0.747406
vt 0.566960 0.780973
vt 0.564355 0.730595
vt 0.568756 0.713923
vt 0.576684 0.697824
vt 0.586066 0.683795
vt 0.598919 0.671821
vt 0.611171 0.663373
vt 0.623878 0.655944
vt 0.639033 0.651515
vt 0.648590 0.651044
vt 0.649670 0.643620
vt 0.658425 0.619477
vt 0.652288 0.632757
vt 0.664524 0.608205
vt 0.673098 0.596978
vt 0.684630 0.585804
vt 0.698598 0.576140
vt 0.713502 0.569425
vt 0.730837 0.564195
vt 0.758498 0.562912
vt 0.748610 0.562364
vt 0.770834 0.564921
vt 0.785639 0.569363
vt 0.800949 0.575743
vt 0.814814 0.585511
vt 0.828242 0.599176
vt 0.838261 0.614317
vt 0.850533 0.649605
vt 0.861942 0.652092
vt 0.849996 0.850090
vt 0.845862 0.631446
vt 0.562654 0.765146
vt 0.573315 0.797871
vt 0.583336 0.812234
vt 0.594958 0.824559
vt 0.619906 0.842015
vt 0.605111 0.833293
vt 0.632705 0.846608
vt 0.642951 0.849661
vt 0.649620 0.850662
vt 0.658094 0.879181
vt 0.652068 0.863094
vt 0.875338 0.655565
vt 0.888303 0.662972
vt 0.899310 0.670871
vt 0.911895 0.683223
vt 0.924585 0.699558
vt 0.930807 0.712955
vt 0.935688 0.732369
vt 0.937086 0.750864
vt 0.935003 0.769441
vt 0.929925 0.788612
vt 0.920284 0.806368
vt 0.908533 0.821158
vt 0.896652 0.831413
vt 0.881700 0.841203
vt 0.848607 0.860902
vt 0.865139 0.847955
vt 0.666726 0.894253
vt 0.677963 0.908820
vt 0.717571 0.932641
vt 0.703148 0.926457
vt 0.734061 0.937230
vt 0.774701 0.934244
vt 0.761860 0.936458
vt 0.797744 0.926182
vt 0.786496 0.931518
vt 0.818103 0.912428
vt 0.806412 0.920878
vt 0.827708 0.902456
vt 0.836744 0.889405
vn -0.000000 0.000000 -1.000000
vn -0.000000 -0.000100 -1.000000
s 1
f 49/1/1 40/2/1 36/3/1
f 3/4/1 2/5/1 23/6/1
f 21/7/1 20/8/1 19/9/1
f 19/9/1 18/10/1 17/11/1
f 17/11/1 16/12/1 19/9/1
f 15/13/1 14/14/1 13/15/1
f 13/15/1 12/16/1 10/17/1
f 11/18/1 10/17/1 12/16/1
f 9/19/1 8/20/1 10/17/1
f 7/21/1 6/22/1 5/23/1
f 5/23/1 4/24/1 76/25/1
f 1/26/1 76/25/1 4/24/1
f 75/27/1 74/28/1 5/23/1
f 73/29/1 72/30/1 74/28/1
f 71/31/1 70/32/1 74/28/1
f 68/33/1 67/34/1 51/35/1
f 70/32/1 69/36/1 74/28/1
f 74/28/1 72/30/1 71/31/1
f 5/23/1 76/25/1 75/27/1
f 8/20/1 7/21/1 10/17/1
f 13/15/1 69/36/1 68/33/1
f 16/12/1 15/13/1 13/15/1
f 21/7/1 19/9/1 13/15/1
f 22/37/1 3/4/1 23/6/1
f 24/38/1 23/6/1 25/39/1
f 26/40/1 25/39/1 23/6/1
f 28/41/1 27/42/1 29/43/1
f 30/44/2 29/43/1 31/45/1
f 33/46/1 32/47/1 31/45/1
f 31/45/1 29/43/1 13/15/1
f 27/42/1 26/40/1 29/43/1
f 23/6/1 2/5/1 21/7/1
f 19/9/1 16/12/1 13/15/1
f 10/17/1 7/21/1 5/23/1
f 5/23/1 74/28/1 69/36/1
f 67/34/1 66/48/1 65/49/1
f 5/23/1 69/36/1 10/17/1
f 23/6/1 21/7/1 26/40/1
f 10/17/1 69/36/1 13/15/1
f 67/34/1 65/49/1 64/50/1
f 64/50/1 63/51/1 67/34/1
f 62/52/1 61/53/1 63/51/1
f 60/54/1 59/55/1 63/51/1
f 58/56/1 57/57/1 56/58/1
f 56/58/1 55/59/1 54/60/1
f 54/60/1 53/61/1 51/35/1
f 51/35/1 50/62/1 49/1/1
f 53/61/1 52/63/1 51/35/1
f 58/56/1 56/58/1 51/35/1
f 61/53/1 60/54/1 63/51/1
f 67/34/1 63/51/1 58/56/1
f 21/7/1 13/15/1 26/40/1
f 29/43/1 26/40/1 13/15/1
f 34/64/1 33/46/1 36/3/1
f 36/3/1 35/65/1 34/64/1
f 38/66/1 37/67/1 36/3/1
f 40/2/1 39/68/1 38/66/1
f 42/69/1 41/70/1 49/1/1
f 44/71/1 43/72/1 42/69/1
f 46/73/1 45/74/1 47/75/1
f 48/76/1 47/75/1 49/1/1
f 51/35/1 49/1/1 36/3/1
f 56/58/1 54/60/1 51/35/1
f 63/51/1 59/55/1 58/56/1
f 31/45/1 13/15/1 51/35/1
f 36/3/1 33/46/1 31/45/1
f 40/2/1 38/66/1 36/3/1
f 44/71/1 42/69/1 45/74/1
f 47/75/1 45/74/1 49/1/1
f 67/34/1 58/56/1 51/35/1
f 49/1/1 45/74/1 42/69/1
f 41/70/1 40/2/1 49/1/1
f 36/3/1 31/45/1 51/35/1
f 68/33/1 51/35/1 13/15/1
