# Blender v2.77 (sub 0) OBJ File: ''
# www.blender.org
g Top_Right_QuatrefoilTwo
v 0.003515 0.578644 -0.000000
v 0.035278 0.611707 0.000000
v 0.076872 0.644688 0.000000
v 0.132206 0.679522 0.000000
v 0.187536 0.696938 0.000000
v 0.260596 0.714353 0.000000
v 0.347683 0.714475 0.000000
v 0.405307 0.703011 0.000000
v 0.475229 0.676127 -0.000000
v 0.529537 0.645284 0.000000
v 0.590598 0.591052 0.000000
v 0.654485 0.518954 0.000000
v 0.686717 0.446347 -0.000000
v 0.704704 0.385141 0.000000
v 0.714663 0.325583 0.000000
v 0.718741 0.261702 0.000000
v 0.708976 0.187378 0.000000
v 0.690574 0.126753 0.000000
v 0.668058 0.063768 0.000000
v 0.632869 0.010666 -0.000000
v 0.585450 -0.050909 -0.000000
v 0.531084 -0.090088 -0.000000
v 0.470376 -0.129399 -0.000000
v 0.421383 -0.146003 0.000000
v 0.396825 -0.152238 -0.000000
v 0.407753 -0.187552 -0.000000
v 0.415328 -0.262702 -0.000000
v 0.410438 -0.334129 0.000000
v 0.401284 -0.401755 -0.000000
v 0.371341 -0.476171 -0.000000
v 0.332749 -0.544621 -0.000000
v 0.283314 -0.602683 -0.000000
v 0.231404 -0.648036 -0.000000
v 0.168698 -0.682705 -0.000000
v 0.107864 -0.706596 0.000000
v 0.046880 -0.717470 -0.000000
v -0.033096 -0.717468 0.000000
v -0.102501 -0.706594 -0.000000
v -0.171734 -0.680540 -0.000000
v -0.232298 -0.641571 -0.000000
v -0.288445 -0.600580 -0.000000
v -0.327537 -0.549005 -0.000000
v -0.358122 -0.497658 0.000000
v -0.392528 -0.433790 0.000000
v -0.409957 -0.357602 -0.000000
v -0.417093 -0.290291 -0.000000
v -0.413929 -0.225447 -0.000000
v -0.404896 -0.177566 -0.000000
v -0.394184 -0.150586 -0.000000
v -0.431023 -0.144390 -0.000000
v -0.473712 -0.123719 -0.000000
v -0.534478 -0.090721 0.000000
v -0.596646 -0.039336 -0.000000
v -0.641955 0.022038 -0.000000
v -0.684401 0.103370 0.000000
v -0.706386 0.182127 -0.000000
v -0.716189 0.258355 0.000000
v -0.714239 0.322162 0.000000
v -0.702042 0.393532 0.000000
v -0.677992 0.462507 0.000000
v -0.644347 0.523268 0.000000
v -0.611288 0.568150 -0.000000
v -0.572500 0.608988 0.000000
v -0.515972 0.651636 -0.000000
v -0.455884 0.684507 -0.000000
v -0.388250 0.705767 0.000000
v -0.309030 0.715486 0.000000
v -0.231971 0.711749 0.000000
v -0.174746 0.694518 0.000000
v -0.099661 0.659914 0.000000
v -0.050141 0.629039 0.000000
v -0.020362 0.601934 0.000000
vt 0.577053 0.781472
vt 0.650510 0.711741
vt 0.748861 0.894507
vt 0.926381 0.795448
vt 0.928833 0.814498
vt 0.928347 0.830443
vt 0.925298 0.848276
vt 0.919285 0.865510
vt 0.910872 0.880692
vt 0.902606 0.891906
vt 0.892907 0.902111
vt 0.878771 0.912768
vt 0.863745 0.920982
vt 0.846832 0.926294
vt 0.827021 0.928722
vt 0.793440 0.923478
vt 0.807750 0.927786
vt 0.774663 0.914826
vt 0.762279 0.907107
vt 0.754832 0.900330
vt 0.740918 0.902771
vt 0.730517 0.911015
vt 0.920882 0.775765
vt 0.910267 0.755436
vt 0.898936 0.740093
vt 0.883389 0.727244
vt 0.868194 0.718990
vt 0.848307 0.712264
vt 0.857519 0.713818
vt 0.853244 0.693558
vt 0.850985 0.705523
vt 0.852249 0.660528
vt 0.854034 0.677352
vt 0.839287 0.625514
vt 0.847890 0.641483
vt 0.821863 0.599775
vt 0.831638 0.612674
vt 0.807823 0.589518
vt 0.792679 0.579764
vt 0.775368 0.573237
vt 0.758014 0.570504
vt 0.722767 0.573192
vt 0.738016 0.570487
vt 0.707556 0.579152
vt 0.691876 0.587807
vt 0.678896 0.599135
vt 0.666535 0.613642
vt 0.656885 0.630749
vt 0.649397 0.649350
vt 0.647108 0.666258
vt 0.645885 0.684117
vt 0.647778 0.702910
vt 0.632118 0.717442
vt 0.644370 0.713297
vt 0.616937 0.727265
vt 0.603342 0.737055
vt 0.591484 0.752448
vt 0.582684 0.765723
vt 0.572451 0.796631
vt 0.571027 0.831193
vt 0.570008 0.815217
vt 0.578014 0.861396
vt 0.573517 0.846088
vt 0.602048 0.897588
vt 0.586073 0.879556
vt 0.630898 0.918865
vt 0.617318 0.911151
vt 0.662794 0.928455
vt 0.648384 0.925588
vt 0.702843 0.924075
vt 0.684572 0.928427
vt 0.716679 0.919722
vn 0.000000 -0.000000 -1.000000
vn -0.000000 0.000100 -1.000000
s 1
f 18/1/1 25/2/1 1/3/1
f 56/4/1 57/5/1 1/3/1
f 58/6/1 59/7/1 1/3/1
f 60/8/1 61/9/1 1/3/1
f 62/10/1 63/11/2 64/12/1
f 64/12/1 65/13/1 66/14/1
f 66/14/1 67/15/1 69/16/1
f 68/17/1 69/16/1 67/15/1
f 70/18/1 71/19/1 72/20/1
f 1/3/1 2/21/1 3/22/1
f 70/18/1 61/9/1 62/10/1
f 66/14/1 69/16/1 64/12/1
f 62/10/1 64/12/1 70/18/1
f 59/7/1 60/8/1 1/3/1
f 55/23/1 56/4/1 54/24/1
f 53/25/1 54/24/1 52/26/1
f 51/27/1 52/26/1 54/24/1
f 49/28/1 50/29/1 51/27/1
f 47/30/1 48/31/1 49/28/1
f 45/32/1 46/33/1 49/28/1
f 43/34/1 44/35/1 45/32/1
f 41/36/1 42/37/1 40/38/1
f 39/39/1 40/38/1 38/40/1
f 37/41/1 38/40/1 40/38/1
f 35/42/1 36/43/1 34/44/1
f 33/45/1 34/44/1 32/46/1
f 31/47/1 40/38/1 30/48/1
f 29/49/1 30/48/1 28/50/1
f 27/51/1 28/50/1 25/2/1
f 25/2/1 26/52/1 27/51/1
f 23/53/1 24/54/1 22/55/1
f 21/56/1 22/55/1 20/57/1
f 19/58/1 20/57/1 18/1/1
f 17/59/1 18/1/1 15/60/1
f 15/60/1 16/61/1 17/59/1
f 13/62/1 14/63/1 11/64/1
f 11/64/1 12/65/1 13/62/1
f 9/66/1 10/67/1 11/64/1
f 7/68/1 8/69/1 5/70/1
f 5/70/1 6/71/1 7/68/1
f 3/22/1 4/72/1 5/70/1
f 69/16/1 70/18/1 64/12/1
f 1/3/1 3/22/1 5/70/1
f 5/70/1 8/69/1 9/66/1
f 9/66/1 11/64/1 5/70/1
f 14/63/1 15/60/1 1/3/1
f 18/1/1 20/57/1 22/55/1
f 22/55/1 24/54/1 25/2/1
f 25/2/1 28/50/1 49/28/1
f 30/48/1 43/34/1 28/50/1
f 34/44/1 36/43/1 37/41/1
f 40/38/1 32/46/1 34/44/1
f 42/37/1 43/34/1 40/38/1
f 46/33/1 47/30/1 49/28/1
f 49/28/1 51/27/1 54/24/1
f 54/24/1 56/4/1 49/28/1
f 61/9/1 72/20/1 1/3/1
f 1/3/1 5/70/1 11/64/1
f 70/18/1 72/20/1 61/9/1
f 49/28/1 56/4/1 1/3/1
f 31/47/1 32/46/1 40/38/1
f 37/41/1 40/38/1 34/44/1
f 28/50/1 45/32/1 49/28/1
f 18/1/1 22/55/1 25/2/1
f 11/64/1 14/63/1 1/3/1
f 58/6/1 1/3/1 57/5/1
f 43/34/1 30/48/1 40/38/1
f 49/28/1 1/3/1 25/2/1
f 15/60/1 18/1/1 1/3/1
f 43/34/1 45/32/1 28/50/1
