# Blender v2.77 (sub 0) OBJ File: ''
# www.blender.org
mtllib TRTorus.mtl
o Circle_Circle.002
v 0.382683 0.923880 0.000000
v 0.195090 0.980785 0.000000
v -0.382682 0.923880 0.000000
v 0.555570 0.831470 0.000000
v 0.000000 1.000000 0.000000
v -0.195089 0.980786 0.000000
v 0.707107 0.707107 0.000000
v -0.707106 0.707108 0.000000
v 0.831470 0.555570 0.000000
v -0.831469 0.555571 0.000000
v -0.225512 0.555571 0.000000
v -0.117053 0.588471 0.000000
v 0.000000 0.600000 0.000000
v 0.117054 0.588471 0.000000
v 0.229610 0.554328 0.000000
v -0.923879 0.382684 0.000000
v -0.413702 0.432932 0.000000
v -0.333341 0.498882 0.000000
v 0.321293 0.505322 0.000000
v 0.923880 0.382683 0.000000
v 0.333342 0.498882 0.000000
v 0.424264 0.424264 0.000000
v 0.458388 0.382684 0.000000
v -0.458388 0.382684 0.000000
v -0.980785 0.195091 0.000000
v -0.554327 0.229611 0.000000
v -0.498881 0.333343 0.000000
v -0.424264 0.424265 0.000000
v 0.498882 0.333342 0.000000
v 0.980785 0.195090 0.000000
v 0.554328 0.229610 0.000000
v 0.564799 0.195091 0.000000
v -0.564799 0.195091 0.000000
v -1.000000 0.000001 0.000000
v -0.596082 0.039783 0.000000
v -0.588471 0.117055 0.000000
v 0.576867 0.155308 0.000000
v 1.000000 0.000000 0.000000
v 0.588471 0.117054 0.000000
v 0.600000 0.000000 0.000000
v -0.600000 0.000001 0.000000
v -0.980785 -0.195089 -0.000000
v -0.576867 -0.155307 -0.000000
v -0.588471 -0.117054 -0.000000
v 0.596082 -0.039782 -0.000000
v 0.980785 -0.195090 -0.000000
v 0.588471 -0.117054 -0.000000
v 0.564799 -0.195090 -0.000000
v -0.564799 -0.195090 -0.000000
v -0.923880 -0.382683 -0.000000
v -0.493201 -0.340265 -0.000000
v -0.554328 -0.229610 -0.000000
v 0.550106 -0.237508 -0.000000
v 0.923880 -0.382683 -0.000000
v 0.498882 -0.333342 -0.000000
v 0.458389 -0.382683 -0.000000
v -0.458389 -0.382683 -0.000000
v -0.831470 -0.555570 -0.000000
v -0.321294 -0.505322 -0.000000
v -0.333342 -0.498882 -0.000000
v -0.424264 -0.424264 -0.000000
v 0.424264 -0.424264 -0.000000
v 0.413703 -0.432931 -0.000000
v 0.831470 -0.555570 -0.000000
v 0.333342 -0.498882 -0.000000
v 0.229610 -0.554328 -0.000000
v 0.117054 -0.588471 -0.000000
v 0.000000 -0.600000 -0.000000
v -0.117054 -0.588471 -0.000000
v -0.225515 -0.555570 -0.000000
v -0.707107 -0.707106 -0.000000
v 0.707107 -0.707107 -0.000000
v -0.555571 -0.831469 -0.000000
v 0.555570 -0.831470 -0.000000
v -0.382684 -0.923879 -0.000000
v 0.382683 -0.923880 -0.000000
v 0.195090 -0.980785 -0.000000
v -0.195091 -0.980785 -0.000000
v 0.000000 -1.000000 -0.000000
v -0.555569 0.831470 0.000000
vt 0.649831 0.983994
vt 0.696341 0.999443
vt 0.841107 0.989003
vt 0.607229 0.959768
vt 0.744972 1.005522
vt 0.793853 1.001997
vt 0.570172 0.927697
vt 0.923604 0.936952
vt 0.540083 0.889012
vt 0.955676 0.899895
vt 0.804239 0.895929
vt 0.776918 0.903442
vt 0.747589 0.905557
vt 0.718411 0.901909
vt 0.691521 0.892978
vt 0.979902 0.857292
vt 0.852072 0.866511
vt 0.831557 0.882468
vt 0.690505 0.892640
vt 0.667913 0.879793
vt 0.518121 0.845200
vt 0.664944 0.878104
vt 0.642710 0.858861
vt 0.634454 0.848246
vt 0.863569 0.854246
vt 0.995351 0.810783
vt 0.887440 0.818565
vt 0.874012 0.842180
vt 0.854769 0.864414
vt 0.626031 0.837417
vt 0.505127 0.797946
vt 0.624656 0.835651
vt 0.611479 0.809364
vt 0.609087 0.800668
vt 0.891391 0.808060
vt 1.001430 0.762152
vt 0.900224 0.769451
vt 0.897817 0.788713
vt 0.606332 0.790646
vt 0.501602 0.749064
vt 0.603682 0.781011
vt 0.601567 0.751681
vt 0.901464 0.759535
vt 0.997905 0.713271
vt 0.896700 0.720569
vt 0.899349 0.730206
vt 0.602806 0.741765
vt 0.507680 0.700434
vt 0.605214 0.722504
vt 0.611641 0.703156
vt 0.893944 0.710549
vt 0.984911 0.666016
vt 0.878375 0.675566
vt 0.891553 0.701853
vt 0.615590 0.692651
vt 0.523129 0.653924
vt 0.629019 0.669036
vt 0.639462 0.656970
vt 0.868578 0.662970
vt 0.962947 0.622205
vt 0.835118 0.631424
vt 0.838087 0.633112
vt 0.860322 0.652355
vt 0.877000 0.673799
vt 0.648263 0.646802
vt 0.650959 0.644705
vt 0.547355 0.611321
vt 0.671473 0.628749
vt 0.698792 0.615288
vt 0.726113 0.607774
vt 0.755442 0.605659
vt 0.784620 0.609306
vt 0.811511 0.618239
vt 0.932860 0.583519
vt 0.812526 0.618576
vt 0.579427 0.574264
vt 0.895802 0.551448
vt 0.618112 0.544176
vt 0.853200 0.527221
vt 0.661924 0.522213
vt 0.709178 0.509219
vt 0.806691 0.511773
vt 0.758060 0.505694
vt 0.884919 0.967040
vn 0.000000 -0.000000 1.000000
usemtl Material.004
s 1
f 1/1/1 2/2/1 3/3/1
f 4/4/1 1/1/1 3/3/1
f 2/2/1 5/5/1 6/6/1 3/3/1
f 7/7/1 4/4/1 8/8/1
f 9/9/1 7/7/1 8/8/1
f 10/10/1 11/11/1 12/12/1 13/13/1 14/14/1 15/15/1 9/9/1 8/8/1
f 11/11/1 10/10/1 16/16/1 17/17/1 18/18/1
f 9/9/1 15/19/1 19/20/1
f 20/21/1 9/9/1 19/20/1 21/22/1 22/23/1 23/24/1
f 24/25/1 16/16/1 25/26/1 26/27/1 27/28/1
f 17/17/1 16/16/1 24/25/1 28/29/1
f 20/21/1 23/24/1 29/30/1
f 30/31/1 20/21/1 29/32/1 31/33/1 32/34/1
f 33/35/1 25/26/1 34/36/1 35/37/1 36/38/1
f 26/27/1 25/26/1 33/35/1
f 30/31/1 32/34/1 37/39/1
f 38/40/1 30/31/1 37/39/1 39/41/1 40/42/1
f 41/43/1 34/36/1 42/44/1 43/45/1 44/46/1
f 35/37/1 34/36/1 41/43/1
f 38/40/1 40/42/1 45/47/1
f 46/48/1 38/40/1 45/47/1 47/49/1 48/50/1
f 49/51/1 42/44/1 50/52/1 51/53/1 52/54/1
f 43/45/1 42/44/1 49/51/1
f 46/48/1 48/50/1 53/55/1
f 54/56/1 46/48/1 53/55/1 55/57/1 56/58/1
f 57/59/1 50/52/1 58/60/1 59/61/1 60/62/1 61/63/1
f 51/64/1 50/52/1 57/59/1
f 54/56/1 56/58/1 62/65/1 63/66/1
f 64/67/1 54/56/1 63/66/1 65/68/1 66/69/1
f 64/67/1 66/69/1 67/70/1 68/71/1 69/72/1 70/73/1 58/60/1 71/74/1
f 59/61/1 58/60/1 70/75/1
f 72/76/1 64/67/1 71/74/1
f 72/76/1 71/74/1 73/77/1
f 74/78/1 72/76/1 73/77/1
f 74/78/1 73/77/1 75/79/1
f 76/80/1 74/78/1 77/81/1
f 78/82/1 77/81/1 75/79/1
f 77/81/1 74/78/1 75/79/1
f 77/81/1 78/82/1 79/83/1
f 4/4/1 3/3/1 80/84/1 8/8/1
