# Blender v2.77 (sub 0) OBJ File: ''
# www.blender.org
g Top_Right_Wave
v 0.704752 -0.407960 -0.000000
v 0.704562 0.394533 0.000000
v 0.667626 0.433359 0.000000
v 0.621007 0.475842 0.000000
v 0.580831 0.504783 0.000000
v 0.539792 0.525616 0.000000
v 0.493550 0.542347 0.000000
v 0.450580 0.548515 0.000000
v 0.362516 0.548963 0.000000
v 0.326986 0.542046 0.000000
v 0.284668 0.532436 0.000000
v 0.241099 0.516236 0.000000
v 0.196137 0.500016 0.000000
v 0.158005 0.482526 0.000000
v 0.114400 0.459680 -0.000000
v 0.067997 0.435452 0.000000
v 0.032465 0.415256 0.000000
v -0.005856 0.395011 -0.000000
v -0.046983 0.370714 0.000000
v -0.090890 0.350374 0.000000
v -0.143127 0.323255 0.000000
v -0.185765 0.304211 0.000000
v -0.233912 0.285123 0.000000
v -0.276492 0.272790 0.000000
v -0.318978 0.264505 -0.000000
v -0.355992 0.256249 0.000000
v -0.394199 0.253388 -0.000000
v -0.443104 0.254529 0.000000
v -0.486244 0.262419 0.000000
v -0.531759 0.275643 0.000000
v -0.567614 0.290202 -0.000000
v -0.601650 0.312717 -0.000000
v -0.638149 0.336441 -0.000000
v -0.666456 0.360101 -0.000000
v -0.704686 0.395420 -0.000000
v -0.705449 -0.415037 -0.000000
v -0.664856 -0.452295 -0.000000
v -0.644228 -0.465827 -0.000000
v -0.601513 -0.495990 -0.000000
v -0.548394 -0.521947 -0.000000
v -0.493293 -0.540553 -0.000000
v -0.451971 -0.548540 -0.000000
v -0.401701 -0.549116 0.000000
v -0.336851 -0.546845 -0.000000
v -0.277431 -0.533953 0.000000
v -0.214972 -0.513562 -0.000000
v -0.148098 -0.484220 -0.000000
v -0.084199 -0.453396 -0.000000
v -0.018948 -0.416676 -0.000000
v 0.038922 -0.387412 -0.000000
v 0.090906 -0.358155 -0.000000
v 0.138483 -0.333356 0.000000
v 0.194671 -0.308654 -0.000000
v 0.245066 -0.288359 -0.000000
v 0.306987 -0.266680 -0.000000
v 0.357501 -0.255221 -0.000000
v 0.419938 -0.254104 -0.000000
v 0.471031 -0.258805 -0.000000
v 0.519582 -0.270877 0.000000
v 0.565859 -0.296302 0.000000
v 0.610962 -0.323337 -0.000000
v 0.650588 -0.354959 -0.000000
v 0.676835 -0.380643 -0.000000
vt 0.582788 0.858150
vt 0.573552 0.848437
vt 0.644732 0.686267
vt 0.915986 0.636905
vt 0.926137 0.646221
vt 0.910828 0.633520
vt 0.925959 0.848748
vt 0.916399 0.839919
vt 0.886864 0.619479
vt 0.900146 0.625975
vt 0.848315 0.813228
vt 0.909320 0.834004
vt 0.900192 0.828072
vt 0.873085 0.614819
vt 0.850183 0.612661
vt 0.862753 0.612814
vt 0.819110 0.616427
vt 0.833967 0.613216
vt 0.786770 0.628834
vt 0.803492 0.621512
vt 0.838761 0.813940
vt 0.754477 0.645694
vt 0.818881 0.818068
vt 0.740006 0.653000
vt 0.727008 0.660305
vt 0.808233 0.821147
vt 0.891681 0.822443
vt 0.882714 0.818801
vt 0.829505 0.816001
vt 0.871333 0.815493
vt 0.860545 0.813517
vt 0.715111 0.666496
vt 0.796193 0.825915
vt 0.701061 0.672663
vt 0.785531 0.830673
vt 0.770792 0.636527
vt 0.688459 0.677729
vt 0.761489 0.842530
vt 0.672976 0.683140
vt 0.660344 0.685997
vt 0.732736 0.858707
vt 0.689448 0.878896
vt 0.772468 0.837448
vt 0.631956 0.685084
vt 0.751204 0.848602
vt 0.619815 0.682058
vt 0.741621 0.853660
vt 0.608244 0.675693
vt 0.721132 0.864762
vt 0.710228 0.870472
vt 0.700692 0.874843
vt 0.678553 0.882945
vt 0.667970 0.885345
vt 0.659085 0.887074
vt 0.637063 0.886958
vt 0.626318 0.885414
vt 0.614754 0.881228
vt 0.604492 0.876017
vt 0.594445 0.868777
vt 0.573514 0.647750
vt 0.580495 0.654585
vt 0.587057 0.661012
vt 0.596966 0.668926
vn -0.000000 0.000000 -1.000000
s 1
f 3/1/1 2/2/1 57/3/1
f 37/4/1 36/5/1 38/6/1
f 36/5/1 35/7/1 34/8/1
f 40/9/1 39/10/1 38/6/1
f 38/6/1 36/5/1 27/11/1
f 33/12/1 32/13/1 36/5/1
f 36/5/1 34/8/1 33/12/1
f 41/14/1 40/9/1 43/15/1
f 43/15/1 42/16/1 41/14/1
f 45/17/1 44/18/1 43/15/1
f 47/19/1 46/20/1 26/21/1
f 49/22/1 24/23/1 50/24/1
f 51/25/1 50/24/1 23/26/1
f 50/24/1 24/23/1 23/26/1
f 46/20/1 27/11/1 26/21/1
f 43/15/1 40/9/1 38/6/1
f 36/5/1 32/13/1 31/27/1
f 36/5/1 31/27/1 30/28/1
f 45/17/1 27/11/1 46/20/1
f 25/29/1 24/23/1 49/22/1
f 36/5/1 30/28/1 29/30/1
f 36/5/1 29/30/1 28/31/1
f 52/32/1 51/25/1 22/33/1
f 53/34/1 52/32/1 21/35/1
f 36/5/1 28/31/1 27/11/1
f 26/21/1 48/36/1 47/19/1
f 38/6/1 27/11/1 43/15/1
f 54/37/1 53/34/1 19/38/1
f 55/39/1 54/37/1 19/38/1
f 27/11/1 45/17/1 43/15/1
f 25/29/1 48/36/1 26/21/1
f 56/40/1 55/39/1 16/41/1
f 25/29/1 49/22/1 48/36/1
f 51/25/1 23/26/1 22/33/1
f 57/3/1 56/40/1 12/42/1
f 21/35/1 20/43/1 53/34/1
f 52/32/1 22/33/1 21/35/1
f 58/44/1 57/3/1 2/2/1
f 19/38/1 18/45/1 55/39/1
f 53/34/1 20/43/1 19/38/1
f 59/46/1 58/44/1 2/2/1
f 17/47/1 16/41/1 55/39/1
f 55/39/1 18/45/1 17/47/1
f 60/48/1 59/46/1 2/2/1
f 16/41/1 15/49/1 56/40/1
f 14/50/1 13/51/1 56/40/1
f 12/42/1 11/52/1 10/53/1
f 10/53/1 9/54/1 8/55/1
f 8/55/1 7/56/1 6/57/1
f 6/57/1 5/58/1 4/59/1
f 4/59/1 3/1/1 10/53/1
f 2/2/1 1/60/1 63/61/1
f 2/2/1 63/61/1 62/62/1
f 6/57/1 4/59/1 8/55/1
f 10/53/1 8/55/1 4/59/1
f 13/51/1 12/42/1 56/40/1
f 56/40/1 15/49/1 14/50/1
f 2/2/1 62/62/1 61/63/1
f 61/63/1 60/48/1 2/2/1
f 12/42/1 3/1/1 57/3/1
f 3/1/1 12/42/1 10/53/1
