# Blender v2.77 (sub 0) OBJ File: ''
# www.blender.org
g Top_Right_WaterDrop
v -0.048515 -0.739692 -0.000000
v 0.051634 -0.740002 -0.000000
v 0.117084 -0.729966 -0.000000
v 0.200987 -0.703594 -0.000000
v 0.272640 -0.660778 -0.000000
v 0.338164 -0.603579 -0.000000
v 0.393441 -0.531987 -0.000000
v 0.422094 -0.482867 -0.000000
v 0.448658 -0.407102 -0.000000
v 0.466993 -0.316990 -0.000000
v 0.462765 -0.235068 -0.000000
v 0.444187 -0.157266 0.000000
v 0.411240 -0.061089 -0.000000
v 0.370112 0.039107 0.000000
v 0.333133 0.122882 0.000000
v 0.294136 0.202512 0.000000
v 0.267456 0.267821 0.000000
v 0.230556 0.341238 0.000000
v 0.189591 0.414597 0.000000
v 0.142514 0.500123 0.000000
v 0.105695 0.569315 0.000000
v 0.048467 0.675052 0.000000
v 0.003549 0.744099 0.000000
v -0.041244 0.668572 0.000000
v -0.083992 0.595104 0.000000
v -0.136906 0.501255 -0.000000
v -0.183701 0.407442 0.000000
v -0.238627 0.307517 0.000000
v -0.283371 0.217814 -0.000000
v -0.315906 0.144437 -0.000000
v -0.354539 0.056801 0.000000
v -0.391134 -0.028789 -0.000000
v -0.421629 -0.108258 0.000000
v -0.443991 -0.187727 -0.000000
v -0.454158 -0.250901 -0.000000
v -0.452131 -0.336520 -0.000000
v -0.444002 -0.401780 0.000000
v -0.419599 -0.469128 -0.000000
v -0.380940 -0.536539 -0.000000
v -0.323927 -0.608119 -0.000000
v -0.242408 -0.677783 0.000000
v -0.160816 -0.714809 -0.000000
v -0.109785 -0.729276 -0.000000
vt 0.860761 0.702989
vt 0.761869 0.564952
vt 0.862795 0.665804
vt 0.863303 0.687202
vt 0.855170 0.722847
vt 0.638667 0.710478
vt 0.847546 0.742704
vt 0.838396 0.764091
vt 0.657189 0.759589
vt 0.828736 0.785991
vt 0.820601 0.804328
vt 0.676187 0.800454
vt 0.795678 0.851719
vt 0.783976 0.875166
vt 0.714101 0.874872
vt 0.682858 0.816786
vt 0.646905 0.734531
vt 0.860762 0.649493
vt 0.854659 0.632656
vt 0.844992 0.615801
vt 0.810351 0.580468
vt 0.830735 0.597898
vt 0.789949 0.571196
vt 0.777189 0.567569
vt 0.736827 0.564853
vt 0.699482 0.573923
vt 0.720462 0.567348
vt 0.681566 0.584613
vt 0.665181 0.598900
vt 0.644194 0.629065
vt 0.651359 0.616789
vt 0.637551 0.648005
vt 0.632966 0.670535
vt 0.634022 0.691020
vt 0.666435 0.780540
vt 0.692085 0.835144
vt 0.809412 0.826745
vt 0.702329 0.853487
vt 0.723309 0.892171
vt 0.760054 0.916989
vt 0.748853 0.935868
vt 0.737620 0.918606
vt 0.770744 0.898624
vn 0.000000 0.000000 -1.000000
s 1
f 34/1/1 1/2/1 36/3/1
f 36/3/1 35/4/1 34/1/1
f 34/1/1 33/5/1 12/6/1
f 32/7/1 31/8/1 14/9/1
f 30/10/1 29/11/1 16/12/1
f 27/13/1 26/14/1 20/15/1
f 29/11/1 17/16/1 16/12/1
f 33/5/1 32/7/1 13/17/1
f 37/18/1 36/3/1 38/19/1
f 39/20/1 38/19/1 36/3/1
f 41/21/1 40/22/1 42/23/1
f 43/24/1 42/23/1 40/22/1
f 2/25/1 1/2/1 34/1/1
f 4/26/1 3/27/1 5/28/1
f 6/29/1 5/28/1 3/27/1
f 8/30/1 7/31/1 9/32/1
f 10/33/1 9/32/1 11/34/1
f 12/6/1 11/34/1 9/32/1
f 14/9/1 13/17/1 32/7/1
f 16/12/1 15/35/1 30/10/1
f 18/36/1 17/16/1 28/37/1
f 19/38/1 18/36/1 27/13/1
f 15/35/1 14/9/1 31/8/1
f 12/6/1 9/32/1 7/31/1
f 7/31/1 6/29/1 2/25/1
f 3/27/1 2/25/1 6/29/1
f 43/24/1 40/22/1 39/20/1
f 39/20/1 36/3/1 1/2/1
f 31/8/1 30/10/1 15/35/1
f 26/14/1 21/39/1 20/15/1
f 24/40/1 23/41/1 22/42/1
f 22/42/1 25/43/1 24/40/1
f 20/15/1 19/38/1 27/13/1
f 13/17/1 12/6/1 33/5/1
f 7/31/1 2/25/1 12/6/1
f 43/24/1 39/20/1 1/2/1
f 28/37/1 17/16/1 29/11/1
f 22/42/1 21/39/1 25/43/1
f 18/36/1 28/37/1 27/13/1
f 2/25/1 34/1/1 12/6/1
f 25/43/1 21/39/1 26/14/1
