# Blender v2.77 (sub 0) OBJ File: ''
# www.blender.org
mtllib Title Card.mtl
g fill_Mesh.002
v -0.506478 -0.001000 -0.015533
v -0.506478 -0.001000 -0.145298
v 0.060306 -0.001000 -0.145298
v 0.627090 -0.001000 -0.145298
v 0.627090 -0.001000 -0.015533
v 0.627090 -0.001000 0.114231
v 0.060306 -0.001000 0.114231
v -0.506478 -0.001000 0.114231
vt 0.000000 0.000000
vt 1.000000 0.000000
vt 1.000000 1.000000
vt 1.000000 0.000000
vt 1.000000 1.000000
vt 1.000000 0.000000
vt 1.000000 1.000000
vt 0.000000 0.000000
vt 1.000000 1.000000
vt 1.000000 0.000000
vt 1.000000 1.000000
vt 0.000000 0.000000
vt 1.000000 1.000000
vn 0.000000 1.000000 0.000000
vn 0.000000 0.000000 1.000000
usemtl SVGMat.004
s off
f 1/1/1 3/2/1 2/3/1
f 1/1/1 4/4/1 3/5/1
f 1/1/1 5/6/1 4/7/1
f 8/8/1 5/6/1 1/9/1
f 8/8/1 6/10/1 5/11/1
f 7/12/2 6/10/2 8/13/2
g Title_card_Mesh.001
v -0.508340 0.000000 0.131381
v -0.509830 0.000000 0.130951
v -0.511297 0.000000 0.130338
v -0.512728 0.000000 0.129558
v -0.514106 0.000000 0.128627
v -0.515418 0.000000 0.127560
v -0.516648 0.000000 0.126372
v -0.517783 0.000000 0.125079
v -0.518806 0.000000 0.123697
v -0.519703 0.000000 0.122240
v -0.520460 0.000000 0.120725
v -0.521062 0.000000 0.119167
v -0.521494 0.000000 0.117581
v -0.521832 0.000000 0.111047
v -0.522108 0.000000 0.096012
v -0.522323 0.000000 0.074176
v -0.522476 0.000000 0.047240
v -0.522568 0.000000 0.016903
v -0.522599 0.000000 -0.015134
v -0.522568 0.000000 -0.047171
v -0.522476 0.000000 -0.077508
v -0.522323 0.000000 -0.104445
v -0.522108 0.000000 -0.126281
v -0.521832 0.000000 -0.141315
v -0.521494 0.000000 -0.147850
v -0.521045 0.000000 -0.149520
v -0.520433 0.000000 -0.151132
v -0.519667 0.000000 -0.152675
v -0.518759 0.000000 -0.154138
v -0.517719 0.000000 -0.155511
v -0.516557 0.000000 -0.156784
v -0.515284 0.000000 -0.157945
v -0.513911 0.000000 -0.158985
v -0.512448 0.000000 -0.159893
v -0.510904 0.000000 -0.160658
v -0.509292 0.000000 -0.161271
v -0.507621 0.000000 -0.161720
v -0.484008 0.000000 -0.162061
v -0.421789 0.000000 -0.162340
v -0.328685 0.000000 -0.162557
v -0.212417 0.000000 -0.162713
v -0.080707 0.000000 -0.162806
v 0.058724 0.000000 -0.162837
v 0.198156 0.000000 -0.162806
v 0.329866 0.000000 -0.162713
v 0.446134 0.000000 -0.162557
v 0.539238 0.000000 -0.162340
v 0.601457 0.000000 -0.162061
v 0.625070 0.000000 -0.161720
v 0.626741 0.000000 -0.161271
v 0.628353 0.000000 -0.160658
v 0.629896 0.000000 -0.159893
v 0.631360 0.000000 -0.158985
v 0.632733 0.000000 -0.157945
v 0.634006 0.000000 -0.156784
v 0.635168 0.000000 -0.155511
v 0.636208 0.000000 -0.154138
v 0.637116 0.000000 -0.152675
v 0.637881 0.000000 -0.151132
v 0.638494 0.000000 -0.149520
v 0.638943 0.000000 -0.147850
v 0.639281 0.000000 -0.141316
v 0.639557 0.000000 -0.126281
v 0.639772 0.000000 -0.104445
v 0.639925 0.000000 -0.077508
v 0.640017 0.000000 -0.047172
v 0.640048 0.000000 -0.015135
v 0.640017 0.000000 0.016902
v 0.639925 0.000000 0.047239
v 0.639772 0.000000 0.074176
v 0.639557 0.000000 0.096012
v 0.639281 0.000000 0.111047
v 0.638943 0.000000 0.117581
v 0.638494 0.000000 0.119251
v 0.637881 0.000000 0.120863
v 0.637116 0.000000 0.122406
v 0.636208 0.000000 0.123869
v 0.635168 0.000000 0.125242
v 0.634006 0.000000 0.126515
v 0.632733 0.000000 0.127676
v 0.631360 0.000000 0.128716
v 0.629896 0.000000 0.129624
v 0.628353 0.000000 0.130389
v 0.626741 0.000000 0.131002
v 0.625070 0.000000 0.131451
v 0.601545 0.000000 0.131763
v 0.539322 0.000000 0.132016
v 0.446143 0.000000 0.132210
v 0.329748 0.000000 0.132346
v 0.197878 0.000000 0.132424
v 0.058272 0.000000 0.132444
v -0.081329 0.000000 0.132406
v -0.213184 0.000000 0.132313
v -0.329553 0.000000 0.132163
v -0.422696 0.000000 0.131957
v -0.484871 0.000000 0.131696
v -0.508340 0.000000 0.131381
v -0.508340 0.000000 0.131381
v -0.508340 0.000000 0.131381
v -0.508340 0.000000 0.131381
v -0.508340 0.000000 0.131381
v -0.508340 0.000000 0.131381
v -0.508340 0.000000 0.131381
v -0.508340 0.000000 0.131381
v -0.508340 0.000000 0.131381
v -0.508340 0.000000 0.131381
v -0.508340 0.000000 0.131381
v -0.508340 0.000000 0.131381
v 0.621236 0.000000 -0.015134
v 0.621236 0.000000 -0.144016
v 0.058724 0.000000 -0.144016
v -0.503787 0.000000 -0.144016
v -0.503787 0.000000 -0.015134
v -0.503787 0.000000 0.113747
v 0.058724 0.000000 0.113747
v 0.621236 0.000000 0.113747
vt 0.000000 0.000000
vt 1.000000 0.000000
vt 1.000000 1.000000
vt 0.000000 0.000000
vt 1.000000 1.000000
vt 1.000000 0.000000
vt 1.000000 1.000000
vt 0.000000 0.000000
vt 1.000000 1.000000
vt 1.000000 0.000000
vt 1.000000 1.000000
vt 0.000000 0.000000
vt 1.000000 1.000000
vt 1.000000 0.000000
vt 1.000000 1.000000
vt 0.000000 0.000000
vt 1.000000 1.000000
vt 1.000000 0.000000
vt 1.000000 1.000000
vt 0.000000 0.000000
vt 1.000000 1.000000
vt 1.000000 0.000000
vt 1.000000 1.000000
vt 0.000000 0.000000
vt 1.000000 1.000000
vt 1.000000 0.000000
vt 1.000000 1.000000
vt 0.000000 0.000000
vt 1.000000 1.000000
vt 1.000000 0.000000
vt 1.000000 1.000000
vt 0.000000 0.000000
vt 1.000000 1.000000
vt 1.000000 0.000000
vt 1.000000 1.000000
vt 0.000000 0.000000
vt 1.000000 1.000000
vt 1.000000 0.000000
vt 1.000000 1.000000
vt 0.000000 0.000000
vt 1.000000 1.000000
vt 1.000000 0.000000
vt 1.000000 1.000000
vt 0.000000 0.000000
vt 1.000000 1.000000
vt 1.000000 0.000000
vt 1.000000 1.000000
vt 0.000000 0.000000
vt 1.000000 1.000000
vt 1.000000 0.000000
vt 1.000000 1.000000
vt 0.000000 0.000000
vt 1.000000 1.000000
vt 1.000000 0.000000
vt 1.000000 1.000000
vt 0.000000 0.000000
vt 1.000000 1.000000
vt 1.000000 0.000000
vt 1.000000 1.000000
vt 0.000000 0.000000
vt 1.000000 1.000000
vt 1.000000 0.000000
vt 1.000000 1.000000
vt 0.000000 0.000000
vt 1.000000 1.000000
vt 1.000000 0.000000
vt 1.000000 1.000000
vt 0.000000 0.000000
vt 1.000000 1.000000
vt 1.000000 0.000000
vt 1.000000 1.000000
vt 0.000000 0.000000
vt 1.000000 0.000000
vt 1.000000 1.000000
vt 0.000000 0.000000
vt 1.000000 0.000000
vt 1.000000 1.000000
vt 0.000000 0.000000
vt 1.000000 0.000000
vt 0.000000 0.000000
vt 1.000000 0.000000
vt 1.000000 0.000000
vt 1.000000 1.000000
vt 0.000000 0.000000
vt 1.000000 1.000000
vt 1.000000 0.000000
vt 1.000000 1.000000
vt 0.000000 0.000000
vt 1.000000 1.000000
vt 1.000000 0.000000
vt 1.000000 1.000000
vt 0.000000 0.000000
vt 1.000000 1.000000
vt 1.000000 0.000000
vt 1.000000 1.000000
vt 0.000000 0.000000
vt 1.000000 1.000000
vt 1.000000 0.000000
vt 1.000000 1.000000
vt 0.000000 0.000000
vt 1.000000 1.000000
vt 1.000000 0.000000
vt 1.000000 1.000000
vt 0.000000 0.000000
vt 1.000000 1.000000
vt 1.000000 0.000000
vt 1.000000 1.000000
vt 0.000000 0.000000
vt 1.000000 1.000000
vt 1.000000 0.000000
vt 1.000000 1.000000
vt 0.000000 0.000000
vt 1.000000 1.000000
vt 1.000000 0.000000
vt 1.000000 1.000000
vt 0.000000 0.000000
vt 1.000000 1.000000
vt 1.000000 0.000000
vt 1.000000 1.000000
vt 0.000000 0.000000
vt 1.000000 1.000000
vt 1.000000 0.000000
vt 1.000000 1.000000
vt 0.000000 0.000000
vt 1.000000 1.000000
vt 1.000000 0.000000
vt 1.000000 1.000000
vt 0.000000 0.000000
vt 1.000000 1.000000
vt 1.000000 0.000000
vt 1.000000 1.000000
vt 0.000000 0.000000
vt 1.000000 1.000000
vt 1.000000 0.000000
vt 1.000000 1.000000
vt 1.000000 0.000000
vt 1.000000 1.000000
vt 1.000000 1.000000
vt 0.000000 0.000000
vt 1.000000 1.000000
vt 1.000000 0.000000
vt 1.000000 1.000000
vt 0.000000 0.000000
vt 1.000000 1.000000
vt 1.000000 0.000000
vt 1.000000 1.000000
vt 0.000000 0.000000
vt 1.000000 1.000000
vt 1.000000 0.000000
vt 1.000000 1.000000
vt 0.000000 0.000000
vt 1.000000 1.000000
vt 1.000000 0.000000
vt 1.000000 1.000000
vt 0.000000 0.000000
vt 1.000000 1.000000
vt 1.000000 0.000000
vt 1.000000 1.000000
vt 0.000000 0.000000
vt 1.000000 1.000000
vt 1.000000 0.000000
vt 1.000000 1.000000
vt 0.000000 0.000000
vt 1.000000 1.000000
vt 1.000000 0.000000
vt 1.000000 1.000000
vt 0.000000 0.000000
vt 1.000000 1.000000
vt 1.000000 0.000000
vt 1.000000 1.000000
vt 0.000000 0.000000
vt 1.000000 1.000000
vt 1.000000 0.000000
vt 1.000000 1.000000
vt 0.000000 0.000000
vt 1.000000 1.000000
vt 1.000000 0.000000
vt 1.000000 1.000000
vt 0.000000 0.000000
vt 1.000000 1.000000
vt 1.000000 0.000000
vt 1.000000 1.000000
vt 0.000000 0.000000
vt 1.000000 1.000000
vt 1.000000 0.000000
vt 1.000000 1.000000
vt 0.000000 0.000000
vt 1.000000 1.000000
vt 1.000000 0.000000
vt 1.000000 1.000000
vt 0.000000 0.000000
vt 1.000000 1.000000
vt 1.000000 0.000000
vt 1.000000 1.000000
vt 0.000000 0.000000
vt 1.000000 1.000000
vt 1.000000 0.000000
vt 1.000000 1.000000
vt 0.000000 0.000000
vt 1.000000 1.000000
vt 1.000000 0.000000
vt 1.000000 1.000000
vt 0.000000 0.000000
vt 1.000000 1.000000
vt 1.000000 0.000000
vt 1.000000 1.000000
vt 0.000000 0.000000
vt 1.000000 1.000000
vn 0.000000 1.000000 0.000000
usemtl SVGMat.003
s off
f 50/14/3 52/15/3 51/16/3
f 49/17/3 52/15/3 50/18/3
f 49/17/3 53/19/3 52/20/3
f 48/21/3 53/19/3 49/22/3
f 48/21/3 54/23/3 53/24/3
f 47/25/3 54/23/3 48/26/3
f 47/25/3 55/27/3 54/28/3
f 46/29/3 55/27/3 47/30/3
f 46/29/3 56/31/3 55/32/3
f 45/33/3 56/31/3 46/34/3
f 45/33/3 57/35/3 56/36/3
f 44/37/3 57/35/3 45/38/3
f 44/37/3 58/39/3 57/40/3
f 43/41/3 58/39/3 44/42/3
f 43/41/3 59/43/3 58/44/3
f 42/45/3 59/43/3 43/46/3
f 42/45/3 60/47/3 59/48/3
f 41/49/3 60/47/3 42/50/3
f 41/49/3 61/51/3 60/52/3
f 40/53/3 61/51/3 41/54/3
f 40/53/3 62/55/3 61/56/3
f 39/57/3 62/55/3 40/58/3
f 39/57/3 63/59/3 62/60/3
f 38/61/3 63/59/3 39/62/3
f 38/61/3 64/63/3 63/64/3
f 37/65/3 64/63/3 38/66/3
f 37/65/3 65/67/3 64/68/3
f 36/69/3 65/67/3 37/70/3
f 36/69/3 66/71/3 65/72/3
f 35/73/3 66/71/3 36/74/3
f 35/73/3 67/75/3 66/76/3
f 34/77/3 67/75/3 35/78/3
f 34/77/3 68/79/3 67/80/3
f 33/81/3 68/79/3 34/82/3
f 33/81/3 69/83/3 68/84/3
f 32/85/3 120/86/3 33/87/3
f 120/88/3 69/83/3 33/87/3
f 120/88/3 119/89/3 69/90/3
f 119/91/3 118/92/3 69/90/3
f 118/93/3 70/94/3 69/90/3
f 32/85/3 121/95/3 120/96/3
f 117/97/3 70/94/3 118/98/3
f 117/97/3 71/99/3 70/100/3
f 31/101/3 121/95/3 32/102/3
f 117/97/3 72/103/3 71/104/3
f 30/105/3 121/95/3 31/106/3
f 117/97/3 73/107/3 72/108/3
f 29/109/3 121/95/3 30/110/3
f 117/97/3 74/111/3 73/112/3
f 28/113/3 121/95/3 29/114/3
f 117/97/3 75/115/3 74/116/3
f 27/117/3 121/95/3 28/118/3
f 117/97/3 76/119/3 75/120/3
f 26/121/3 121/95/3 27/122/3
f 26/121/3 122/123/3 121/124/3
f 124/125/3 76/119/3 117/126/3
f 124/125/3 77/127/3 76/128/3
f 25/129/3 122/123/3 26/130/3
f 124/125/3 78/131/3 77/132/3
f 24/133/3 122/123/3 25/134/3
f 124/125/3 79/135/3 78/136/3
f 23/137/3 122/123/3 24/138/3
f 124/125/3 80/139/3 79/140/3
f 22/141/3 122/123/3 23/142/3
f 124/125/3 81/143/3 80/144/3
f 21/145/3 122/123/3 22/146/3
f 21/145/3 123/147/3 122/148/3
f 21/145/3 124/149/3 123/150/3
f 21/145/3 81/143/3 124/151/3
f 20/152/3 81/143/3 21/153/3
f 20/152/3 82/154/3 81/155/3
f 19/156/3 82/154/3 20/157/3
f 19/156/3 83/158/3 82/159/3
f 18/160/3 83/158/3 19/161/3
f 18/160/3 84/162/3 83/163/3
f 17/164/3 84/162/3 18/165/3
f 17/164/3 85/166/3 84/167/3
f 16/168/3 85/166/3 17/169/3
f 16/168/3 86/170/3 85/171/3
f 15/172/3 86/170/3 16/173/3
f 15/172/3 87/174/3 86/175/3
f 14/176/3 87/174/3 15/177/3
f 14/176/3 88/178/3 87/179/3
f 13/180/3 88/178/3 14/181/3
f 13/180/3 89/182/3 88/183/3
f 12/184/3 89/182/3 13/185/3
f 12/184/3 90/186/3 89/187/3
f 11/188/3 90/186/3 12/189/3
f 11/188/3 91/190/3 90/191/3
f 10/192/3 91/190/3 11/193/3
f 10/192/3 92/194/3 91/195/3
f 105/196/3 92/194/3 10/197/3
f 105/196/3 93/198/3 92/199/3
f 104/200/3 93/198/3 105/201/3
f 104/200/3 94/202/3 93/203/3
f 103/204/3 94/202/3 104/205/3
f 103/204/3 95/206/3 94/207/3
f 102/208/3 95/206/3 103/209/3
f 102/208/3 96/210/3 95/211/3
f 101/212/3 96/210/3 102/213/3
f 101/212/3 97/214/3 96/215/3
f 100/216/3 97/214/3 101/217/3
f 100/216/3 98/218/3 97/219/3
f 99/220/3 98/218/3 100/221/3
