# Blender v2.77 (sub 0) OBJ File: ''
# www.blender.org
g MiddleRightJigsaw3x3
v 0.515603 0.235295 -0.000001
v 0.115032 0.337404 -0.000001
v 0.128878 0.375824 0.000000
v -0.234855 -0.497423 0.000002
v -0.206092 -0.534405 -0.000002
v -0.226392 -0.559057 -0.000001
v -0.207048 -0.549904 -0.000001
v -0.638715 -0.563819 -0.000001
v -0.636615 0.563633 0.000000
v -0.222617 0.301410 0.000000
v -0.246073 0.563579 0.000001
v -0.218040 0.559934 0.000000
v -0.215100 0.527912 0.000000
v -0.206370 0.550186 -0.000001
v -0.235717 0.491031 0.000001
v -0.247586 -0.441155 -0.000003
v -0.247605 0.453538 0.000004
v -0.253850 -0.383544 -0.000001
v -0.235574 -0.324564 -0.000000
v -0.253448 0.402111 -0.000004
v -0.246574 0.349676 -0.000002
v -0.204373 -0.278836 -0.000002
v -0.160284 -0.243846 -0.000002
v -0.181087 0.261080 -0.000005
v -0.143758 0.236239 0.000003
v -0.109542 -0.223343 -0.000001
v -0.083617 0.218171 -0.000001
v -0.055888 -0.217043 -0.000001
v -0.020652 0.221240 -0.000001
v -0.001079 -0.226833 -0.000001
v 0.035069 0.236615 0.000005
v 0.051274 -0.254826 -0.000001
v 0.530621 -0.134122 -0.000003
v 0.097698 -0.297328 -0.000001
v 0.517216 -0.174975 -0.000000
v 0.525672 0.143575 -0.000018
v 0.124608 -0.346637 -0.000000
v 0.087419 0.283026 0.000000
v 0.129797 -0.398904 -0.000002
v 0.520716 0.173633 -0.000006
v 0.537604 0.120368 -0.000001
v 0.086579 -0.548039 0.000007
v 0.088905 -0.534825 0.000008
v 0.104884 -0.556587 0.000023
v 0.127316 -0.565100 0.000002
v 0.101512 -0.517167 -0.000015
v 0.517246 -0.561671 -0.000000
v 0.112204 -0.488788 0.000019
v 0.539269 -0.116768 -0.000001
v 0.122975 -0.449943 -0.000001
v 0.515501 0.210382 -0.000001
v 0.563616 -0.114799 -0.000000
v 0.554105 0.116718 -0.000002
v 0.113792 0.333972 -0.000001
v 0.688386 -0.160754 -0.000000
v 0.625403 -0.145461 -0.000000
v 0.651425 0.149982 0.000000
v 0.594260 -0.126259 -0.000000
v 0.579198 0.121962 -0.000001
v 0.111805 0.503625 0.000000
v 0.089693 0.531100 0.000000
v 0.105951 0.557730 0.000000
v 0.751684 -0.154746 -0.000000
v 0.843108 -0.093374 -0.000001
v 0.802024 -0.131523 -0.000000
v 0.862631 -0.046424 -0.000000
v 0.875133 -0.005695 -0.000001
v 0.866407 0.047246 0.000000
v 0.840928 0.088713 0.000000
v 0.780620 0.144002 -0.000001
v 0.818475 0.119079 -0.000001
v 0.691781 0.162077 -0.000001
v 0.745593 0.158258 -0.000001
v 0.608912 0.139597 0.000000
v 0.088409 0.550134 0.000000
v 0.132057 0.563584 0.000001
v 0.121648 0.468025 -0.000001
v 0.516925 0.563331 0.000000
v 0.129580 0.417269 0.000001
vt 0.672970 0.568712
vt 0.786804 0.598424
vt 0.782873 0.609592
vt 0.886191 0.355741
vt 0.878031 0.344987
vt 0.883807 0.337831
vt 0.878312 0.340484
vt 1.000938 0.336442
vt 1.000342 0.664189
vt 0.882720 0.587959
vt 0.889393 0.664174
vt 0.881428 0.663114
vt 0.880593 0.653806
vt 0.878113 0.660280
vt 0.886448 0.643083
vt 0.889879 0.372092
vt 0.889831 0.632186
vt 0.891560 0.388844
vt 0.886428 0.405983
vt 0.891490 0.617236
vt 0.889531 0.601991
vt 0.877542 0.419282
vt 0.865050 0.429470
vt 0.870930 0.576237
vt 0.860322 0.569015
vt 0.850561 0.435417
vt 0.843237 0.563763
vt 0.835284 0.437231
vt 0.825351 0.564656
vt 0.819724 0.434387
vt 0.809517 0.569124
vt 0.804902 0.426258
vt 0.668555 0.461295
vt 0.791706 0.413900
vt 0.672561 0.449465
vt 0.670107 0.542049
vt 0.784105 0.399567
vt 0.794646 0.582615
vt 0.782643 0.384368
vt 0.671515 0.550787
vt 0.666711 0.535300
vt 0.794895 0.341024
vt 0.794229 0.344871
vt 0.789697 0.338540
vt 0.783325 0.336066
vt 0.790652 0.350000
vt 0.672534 0.337069
vt 0.787600 0.358247
vt 0.666155 0.466352
vt 0.784554 0.369542
vt 0.672996 0.561470
vt 0.659142 0.466903
vt 0.662019 0.534238
vt 0.787156 0.597426
vt 0.623746 0.453552
vt 0.641763 0.458026
vt 0.634366 0.543901
vt 0.650493 0.463575
vt 0.654891 0.535762
vt 0.787722 0.646743
vt 0.794002 0.654732
vt 0.789374 0.662473
vt 0.605432 0.455222
vt 0.579902 0.473157
vt 0.591500 0.462052
vt 0.574355 0.486801
vt 0.570800 0.498637
vt 0.573274 0.514022
vt 0.580515 0.526079
vt 0.597656 0.542154
vt 0.586896 0.534906
vt 0.622899 0.547414
vt 0.607608 0.546300
vt 0.646443 0.540883
vt 0.794368 0.660264
vt 0.781966 0.664175
vt 0.784928 0.636395
vt 0.672622 0.664099
vt 0.782671 0.621641
vn -0.000000 0.000000 -1.000000
vn -0.000100 0.000000 -1.000000
vn 0.000000 -0.000100 -1.000000
vn 0.000000 0.000100 -1.000000
vn 0.000100 0.000000 -1.000000
vn 0.000200 0.000100 -1.000000
vn 0.000100 0.000300 -1.000000
vn 0.000900 -0.000000 -1.000000
vn 0.000800 -0.000100 -1.000000
vn -0.000000 -0.000700 -1.000000
vn -0.000800 -0.000900 -1.000000
vn -0.000300 -0.000200 -1.000000
vn 0.000100 -0.000400 -1.000000
vn -0.000200 0.000200 -1.000000
vn 0.000200 -0.000000 -1.000000
vn -0.000100 0.000100 -1.000000
s 1
f 1/1/1 2/2/1 3/3/1
f 4/4/1 5/5/2 6/6/1
f 7/7/3 6/6/1 5/5/2
f 8/8/1 9/9/1 10/10/1
f 11/11/1 12/12/2 13/13/1
f 14/14/2 13/13/1 12/12/2
f 11/11/1 13/13/1 15/15/2
f 4/4/1 6/6/1 8/8/1
f 16/16/1 4/4/1 8/8/1
f 9/9/1 11/11/1 17/17/4
f 11/11/1 15/15/2 17/17/4
f 18/18/1 16/16/1 8/8/1
f 19/19/1 18/18/1 8/8/1
f 9/9/1 17/17/4 20/20/1
f 9/9/1 20/20/1 21/21/3
f 22/22/1 19/19/1 10/10/1
f 23/23/1 22/22/1 24/24/1
f 9/9/1 21/21/3 10/10/1
f 8/8/1 10/10/1 19/19/1
f 22/22/1 10/10/1 24/24/1
f 23/23/1 24/24/1 25/25/5
f 26/26/1 23/23/1 25/25/5
f 26/26/1 25/25/5 27/27/1
f 28/28/1 26/26/1 27/27/1
f 28/28/1 27/27/1 29/29/5
f 30/30/1 28/28/1 29/29/5
f 30/30/1 29/29/5 31/31/1
f 32/32/1 30/30/1 31/31/1
f 32/32/1 31/31/1 33/33/1
f 34/34/1 32/32/1 35/35/1
f 31/31/1 36/36/6 33/33/1
f 37/37/1 34/34/1 35/35/1
f 38/38/1 36/36/6 31/31/1
f 39/39/1 37/37/1 35/35/1
f 40/40/7 36/36/6 38/38/1
f 36/36/6 41/41/8 33/33/1
f 42/42/9 43/43/10 44/44/11
f 45/45/12 44/44/11 46/46/13
f 35/35/1 47/47/1 39/39/1
f 33/33/1 35/35/1 32/32/1
f 44/44/11 43/43/10 46/46/13
f 45/45/12 46/46/13 48/48/14
f 49/49/15 33/33/1 41/41/8
f 47/47/1 45/45/12 50/50/2
f 45/45/12 48/48/14 50/50/2
f 47/47/1 50/50/2 39/39/1
f 40/40/7 38/38/1 51/51/4
f 52/52/1 49/49/15 53/53/1
f 38/38/1 54/54/1 51/51/4
f 55/55/1 56/56/1 57/57/1
f 58/58/1 52/52/1 59/59/1
f 60/60/1 61/61/1 62/62/1
f 54/54/1 1/1/1 51/51/4
f 63/63/1 55/55/1 57/57/1
f 64/64/16 65/65/1 66/66/1
f 67/67/2 66/66/1 68/68/1
f 69/69/1 68/68/1 66/66/1
f 70/70/1 71/71/3 69/69/1
f 72/72/3 73/73/1 57/57/1
f 59/59/1 74/74/4 57/57/1
f 57/57/1 73/73/1 70/70/1
f 70/70/1 69/69/1 57/57/1
f 66/66/1 65/65/1 63/63/1
f 56/56/1 58/58/1 57/57/1
f 61/61/1 75/75/1 62/62/1
f 62/62/1 76/76/1 60/60/1
f 77/77/1 60/60/1 76/76/1
f 78/78/1 77/77/1 76/76/1
f 2/2/1 1/1/1 54/54/1
f 69/69/1 66/66/1 63/63/1
f 59/59/1 57/57/1 58/58/1
f 53/53/1 59/59/1 52/52/1
f 79/79/1 77/77/1 78/78/1
f 79/79/1 78/78/1 1/1/1
f 57/57/1 69/69/1 63/63/1
f 79/79/1 1/1/1 3/3/1
f 41/41/8 53/53/1 49/49/15
