# Blender v2.77 (sub 0) OBJ File: ''
# www.blender.org
mtllib TLCircle.mtl
g Top_Left_Circle
v 0.287013 -0.692909 -0.000000
v -0.692910 -0.287012 -0.000000
v 0.692909 0.287013 0.000000
v -0.287012 0.692910 0.000000
v -0.146317 0.735589 0.000000
v -0.735589 0.146317 0.000000
v 0.000000 0.750000 0.000000
v 0.146317 0.735590 0.000000
v 0.287012 0.692910 0.000000
v 0.416677 0.623603 0.000000
v 0.530329 0.530331 0.000000
v 0.623602 0.416678 0.000000
v 0.735589 0.146318 0.000000
v 0.750000 0.000001 0.000000
v 0.735589 -0.146317 -0.000000
v 0.692910 -0.287012 -0.000000
v 0.623603 -0.416678 -0.000000
v 0.530330 -0.530329 -0.000000
v 0.416678 -0.623602 -0.000000
v 0.146318 -0.735589 -0.000000
v 0.000000 -0.750000 -0.000000
v -0.146317 -0.735589 -0.000000
v -0.287012 -0.692910 -0.000000
v -0.416678 -0.623603 -0.000000
v -0.530330 -0.530330 -0.000000
v -0.623603 -0.416678 -0.000000
v -0.735589 -0.146317 -0.000000
v -0.750000 0.000000 0.000000
v -0.692910 0.287012 0.000000
v -0.623603 0.416678 0.000000
v -0.530330 0.530330 0.000000
v -0.416678 0.623603 0.000000
vt 0.178247 0.576772
vt 0.423227 0.678247
vt 0.076773 0.821753
vt 0.321753 0.923228
vt 0.286580 0.933897
vt 0.433897 0.786579
vt 0.250000 0.937500
vt 0.213421 0.933897
vt 0.178247 0.923228
vt 0.145831 0.905900
vt 0.117417 0.882583
vt 0.094100 0.854170
vt 0.066103 0.786580
vt 0.062500 0.750000
vt 0.066103 0.713421
vt 0.076773 0.678247
vt 0.094099 0.645830
vt 0.117417 0.617417
vt 0.145830 0.594100
vt 0.213420 0.566103
vt 0.250000 0.562500
vt 0.286580 0.566103
vt 0.321753 0.576772
vt 0.354170 0.594099
vt 0.382583 0.617417
vt 0.405901 0.645830
vt 0.433897 0.713420
vt 0.437500 0.750000
vt 0.423227 0.821753
vt 0.405901 0.854169
vt 0.382583 0.882583
vt 0.354170 0.905900
vn 0.000000 0.000000 -1.000000
usemtl Material.003
s 1
f 1/1/1 2/2/1 3/3/1
f 4/4/1 5/5/1 6/6/1
f 7/7/1 8/8/1 9/9/1
f 9/9/1 10/10/1 3/3/1
f 11/11/1 12/12/1 3/3/1
f 3/3/1 13/13/1 14/14/1
f 14/14/1 15/15/1 3/3/1
f 16/16/1 17/17/1 18/18/1
f 18/18/1 19/19/1 1/1/1
f 1/1/1 20/20/1 21/21/1
f 21/21/1 22/22/1 1/1/1
f 23/23/1 24/24/1 25/25/1
f 25/25/1 26/26/1 23/23/1
f 2/2/1 27/27/1 5/5/1
f 28/28/1 6/6/1 27/27/1
f 29/29/1 30/30/1 31/31/1
f 31/31/1 32/32/1 29/29/1
f 5/5/1 7/7/1 9/9/1
f 10/10/1 11/11/1 3/3/1
f 3/3/1 15/15/1 1/1/1
f 16/16/1 18/18/1 15/15/1
f 1/1/1 22/22/1 2/2/1
f 23/23/1 26/26/1 2/2/1
f 27/27/1 6/6/1 5/5/1
f 29/29/1 32/32/1 4/4/1
f 5/5/1 9/9/1 3/3/1
f 15/15/1 18/18/1 1/1/1
f 22/22/1 23/23/1 2/2/1
f 6/6/1 29/29/1 4/4/1
f 5/5/1 3/3/1 2/2/1
