# Blender v2.77 (sub 0) OBJ File: ''
# www.blender.org
g Top_Left_Decagon
v 0.231367 0.750000 0.000000
v -0.237173 0.750000 0.000000
v -0.229888 -0.750000 -0.000000
v 0.228375 -0.750000 -0.000000
v -0.750000 -0.003769 -0.000000
v 0.750000 -0.001932 -0.000000
v 0.614891 -0.461982 0.000000
v 0.607944 0.459390 0.000000
v -0.605398 0.464678 0.000000
v -0.607681 -0.459801 0.000000
vt 0.401920 0.635050
vt 0.437500 0.749058
vt 0.062500 0.749517
vt 0.309293 0.937500
vt 0.192158 0.937500
vt 0.401349 0.866169
vt 0.098014 0.864848
vt 0.096277 0.634504
vt 0.192906 0.562500
vt 0.307472 0.562500
vn 0.000000 0.000000 -1.000000
s 1
f 10/1/1 5/2/1 6/3/1
f 2/4/1 1/5/1 9/6/1
f 8/7/1 6/3/1 5/2/1
f 7/8/1 4/9/1 10/1/1
f 3/10/1 10/1/1 4/9/1
f 5/2/1 9/6/1 8/7/1
f 1/5/1 8/7/1 9/6/1
f 7/8/1 10/1/1 6/3/1
