# Blender v2.77 (sub 0) OBJ File: ''
# www.blender.org
mtllib TLDoubleArrow.mtl
g Top_Left_DoubleArrow
v -0.695818 -0.175608 -0.000099
v -0.749979 0.750091 -0.000099
v -0.630985 -0.140955 -0.000099
v 0.695842 0.175716 -0.000099
v 0.750003 0.220165 -0.000099
v 0.750021 -0.749910 -0.000099
v -0.220127 -0.749910 -0.000099
v -0.175625 -0.695695 -0.000099
v -0.140972 -0.630863 -0.000099
v 0.631010 0.141063 -0.000099
v 0.560662 0.119723 -0.000099
v -0.119632 -0.560515 -0.000099
v -0.112426 -0.487356 -0.000099
v 0.487503 0.112518 -0.000099
v 0.414345 0.119723 -0.000099
v -0.119685 -0.414251 -0.000099
v 0.343965 0.141002 -0.000128
v 0.279165 0.175716 -0.000099
v -0.175672 -0.279072 -0.000099
v -0.141018 -0.343905 -0.000099
v 0.222339 0.222353 -0.000099
v 0.175702 0.279179 -0.000099
v -0.222308 -0.222246 -0.000099
v -0.279135 -0.175610 -0.000099
v 0.140998 0.343990 -0.000076
v -0.343967 -0.140956 -0.000099
v 0.119655 0.414348 -0.000076
v -0.414267 -0.119562 -0.000099
v 0.112449 0.487518 -0.000076
v 0.119655 0.560688 -0.000076
v -0.487426 -0.112356 -0.000099
v 0.141015 0.631118 -0.000076
v -0.560638 -0.119615 -0.000099
v 0.220095 0.750067 -0.000099
v 0.175674 0.695960 -0.000076
v -0.749926 -0.220004 -0.000099
vt 0.423911 0.706064
vt 0.437451 0.937489
vt 0.407703 0.714727
vt 0.075996 0.793895
vt 0.062456 0.805007
vt 0.062451 0.562488
vt 0.304988 0.562488
vt 0.293863 0.576042
vt 0.285199 0.592250
vt 0.092204 0.785231
vt 0.109791 0.779897
vt 0.279865 0.609837
vt 0.278063 0.628127
vt 0.128081 0.778095
vt 0.146370 0.779897
vt 0.279878 0.646403
vt 0.163965 0.785216
vt 0.180165 0.793895
vt 0.293875 0.680198
vt 0.285212 0.663989
vt 0.194371 0.805554
vt 0.206031 0.819761
vt 0.305533 0.694404
vt 0.319740 0.706064
vt 0.214707 0.835964
vt 0.335948 0.714727
vt 0.220042 0.853553
vt 0.353523 0.720076
vt 0.221844 0.871845
vt 0.220042 0.890138
vt 0.371813 0.721877
vt 0.214703 0.907745
vt 0.390116 0.720062
vt 0.194933 0.937483
vt 0.206038 0.923956
vt 0.437438 0.694965
vn 0.000000 0.000000 -1.000000
vn 0.000100 -0.000100 -1.000000
vn -0.000200 0.000200 -1.000000
vn -0.000100 0.000100 -1.000000
vn -0.000000 -0.000400 -1.000000
vn 0.000000 -0.000300 -1.000000
usemtl Material.015
s 1
f 1/1/1 2/2/1 3/3/1
f 4/4/1 5/5/1 6/6/1
f 6/6/1 7/7/1 8/8/1
f 6/6/1 8/8/1 9/9/1
f 10/10/1 4/4/1 6/6/1
f 11/11/1 10/10/1 6/6/1
f 6/6/1 9/9/1 12/12/1
f 6/6/1 12/12/1 13/13/1
f 14/14/1 11/11/1 6/6/1
f 15/15/2 14/14/1 6/6/1
f 6/6/1 13/13/1 16/16/1
f 6/6/1 16/16/1 15/15/2
f 17/17/2 15/15/2 16/16/1
f 18/18/3 17/17/2 19/19/1
f 16/16/1 20/20/1 17/17/2
f 20/20/1 19/19/1 17/17/2
f 21/21/1 18/18/3 19/19/1
f 22/22/4 21/21/1 23/23/1
f 19/19/1 23/23/1 21/21/1
f 22/22/4 23/23/1 24/24/1
f 25/25/4 22/22/4 24/24/1
f 25/25/4 24/24/1 26/26/1
f 27/27/1 25/25/4 28/28/1
f 25/25/4 26/26/1 28/28/1
f 29/29/1 27/27/1 2/2/1
f 27/27/1 28/28/1 2/2/1
f 30/30/1 29/29/1 2/2/1
f 28/28/1 31/31/1 2/2/1
f 32/32/1 30/30/1 2/2/1
f 31/31/1 33/33/1 2/2/1
f 2/2/1 34/34/5 35/35/6
f 35/35/6 32/32/1 2/2/1
f 1/1/1 36/36/1 2/2/1
f 33/33/1 3/3/1 2/2/1
