# Blender v2.77 (sub 0) OBJ File: ''
# www.blender.org
g Top_Left_Hexagon
v 0.247024 0.750000 0.000000
v -0.236091 0.750000 0.000000
v -0.750000 0.000045 0.000000
v -0.243490 -0.750000 -0.000000
v 0.236259 -0.750000 -0.000000
v 0.750000 0.003283 0.000000
v 0.354051 0.750000 0.000000
v -0.375012 0.750000 0.000000
v -0.374642 -0.750000 -0.000000
v 0.354443 -0.750000 -0.000000
vt 0.437500 0.750011
vt 0.062500 0.750821
vt 0.190935 0.562500
vt 0.161389 0.562500
vt 0.310872 0.562500
vt 0.343661 0.562500
vt 0.343753 0.937500
vt 0.309023 0.937500
vt 0.188244 0.937500
vt 0.161487 0.937500
vn -0.000000 0.000000 -1.000000
s 1
f 3/1/1 6/2/1 5/3/1
f 10/4/1 5/3/1 6/2/1
f 4/5/1 9/6/1 3/1/1
f 3/1/1 8/7/1 2/8/1
f 1/9/1 7/10/1 6/2/1
f 3/1/1 2/8/1 6/2/1
f 5/3/1 4/5/1 3/1/1
f 1/9/1 6/2/1 2/8/1
