# Blender v2.77 (sub 0) OBJ File: ''
# www.blender.org
g Top_Left_Nonagon
v 0.003821 0.750000 -0.001000
v -0.750000 0.112600 -0.001000
v -0.260899 -0.750000 -0.001000
v 0.258208 -0.750000 -0.001000
v 0.750000 0.107277 -0.001000
v -0.657163 -0.409966 -0.001000
v -0.484479 0.569113 -0.001000
v 0.495960 0.565723 -0.001000
v 0.654370 -0.414663 -0.001000
vt 0.062500 0.776819
vt 0.414291 0.647508
vt 0.437500 0.778150
vt 0.086408 0.646334
vt 0.371120 0.892278
vt 0.249045 0.937500
vt 0.126010 0.891431
vt 0.185448 0.562500
vt 0.315225 0.562500
vn 0.000000 0.000000 -1.000000
s 1
f 5/1/1 6/2/1 2/3/1
f 6/2/1 5/1/1 9/4/1
f 7/5/1 1/6/1 8/7/1
f 8/7/1 5/1/1 7/5/1
f 9/4/1 4/8/1 6/2/1
f 3/9/1 6/2/1 4/8/1
f 7/5/1 5/1/1 2/3/1
