# Blender v2.77 (sub 0) OBJ File: ''
# www.blender.org
mtllib TLTorus.mtl
g Top_Left_Torus
v 0.382683 0.923880 0.000000
v 0.195090 0.980785 0.000000
v -0.382682 0.923880 0.000000
v 0.555570 0.831470 0.000000
v 0.000000 1.000000 0.000000
v -0.195089 0.980786 0.000000
v 0.707107 0.707107 0.000000
v -0.707106 0.707108 0.000000
v 0.831470 0.555570 0.000000
v -0.831469 0.555571 0.000000
v -0.225512 0.555571 0.000000
v -0.117053 0.588471 0.000000
v 0.000000 0.600000 0.000000
v 0.117054 0.588471 0.000000
v 0.229610 0.554328 0.000000
v -0.923879 0.382684 0.000000
v -0.413702 0.432932 0.000000
v -0.333341 0.498882 0.000000
v 0.321293 0.505322 0.000000
v 0.923880 0.382683 0.000000
v 0.333342 0.498882 0.000000
v 0.424264 0.424264 0.000000
v 0.458388 0.382684 0.000000
v -0.458388 0.382684 0.000000
v -0.980785 0.195091 0.000000
v -0.554327 0.229611 0.000000
v -0.498881 0.333343 0.000000
v -0.424264 0.424265 0.000000
v 0.498882 0.333342 0.000000
v 0.980785 0.195090 0.000000
v 0.554328 0.229610 0.000000
v 0.564799 0.195091 0.000000
v -0.564799 0.195091 0.000000
v -1.000000 0.000001 0.000000
v -0.596082 0.039783 0.000000
v -0.588471 0.117055 0.000000
v 0.576867 0.155308 0.000000
v 1.000000 0.000000 0.000000
v 0.588471 0.117054 0.000000
v 0.600000 0.000000 0.000000
v -0.600000 0.000001 0.000000
v -0.980785 -0.195089 -0.000000
v -0.576867 -0.155307 -0.000000
v -0.588471 -0.117054 -0.000000
v 0.596082 -0.039782 -0.000000
v 0.980785 -0.195090 -0.000000
v 0.588471 -0.117054 -0.000000
v 0.564799 -0.195090 -0.000000
v -0.564799 -0.195090 -0.000000
v -0.923880 -0.382683 -0.000000
v -0.493201 -0.340265 -0.000000
v -0.554328 -0.229610 -0.000000
v 0.550106 -0.237508 -0.000000
v 0.923880 -0.382683 -0.000000
v 0.498882 -0.333342 -0.000000
v 0.458389 -0.382683 -0.000000
v -0.458389 -0.382683 -0.000000
v -0.831470 -0.555570 -0.000000
v -0.321294 -0.505322 -0.000000
v -0.333342 -0.498882 -0.000000
v -0.424264 -0.424264 -0.000000
v 0.424264 -0.424264 -0.000000
v 0.413703 -0.432931 -0.000000
v 0.831470 -0.555570 -0.000000
v 0.333342 -0.498882 -0.000000
v 0.229610 -0.554328 -0.000000
v 0.117054 -0.588471 -0.000000
v 0.000000 -0.600000 -0.000000
v -0.117054 -0.588471 -0.000000
v -0.225515 -0.555570 -0.000000
v -0.707107 -0.707106 -0.000000
v 0.707107 -0.707107 -0.000000
v -0.555571 -0.831469 -0.000000
v 0.555570 -0.831470 -0.000000
v -0.382684 -0.923879 -0.000000
v 0.382683 -0.923880 -0.000000
v 0.195090 -0.980785 -0.000000
v -0.195091 -0.980785 -0.000000
v 0.000000 -1.000000 -0.000000
v -0.555569 0.831470 0.000000
vt 0.179181 0.995895
vt 0.227480 1.005502
vt 0.370522 0.977049
vt 0.133684 0.977049
vt 0.276726 1.005502
vt 0.092737 0.949690
vt 0.446291 0.914868
vt 0.057915 0.914868
vt 0.266877 0.905502
vt 0.473650 0.873921
vt 0.366188 0.853548
vt 0.347722 0.872014
vt 0.208350 0.899738
vt 0.184222 0.889744
vt 0.181051 0.888430
vt 0.156483 0.872015
vt 0.492495 0.828424
vt 0.396338 0.799255
vt 0.385031 0.826554
vt 0.368616 0.851121
vt 0.030556 0.873922
vt 0.146929 0.862460
vt 0.135590 0.851121
vt 0.119174 0.826554
vt 0.115707 0.818182
vt 0.502103 0.780125
vt 0.402103 0.750770
vt 0.402103 0.770276
vt 0.398106 0.790367
vt 0.011710 0.828424
vt 0.111710 0.808533
vt 0.107867 0.799255
vt 0.102103 0.770276
vt 0.492495 0.682580
vt 0.392495 0.702471
vt 0.396338 0.711748
vt 0.502103 0.730879
vt 0.402103 0.740728
vt 0.002103 0.780125
vt 0.102103 0.760234
vt 0.102103 0.740728
vt 0.002103 0.730880
vt 0.473650 0.637082
vt 0.367025 0.658291
vt 0.385031 0.684450
vt 0.388499 0.692822
vt 0.106099 0.720637
vt 0.108728 0.709670
vt 0.119174 0.684451
vt 0.011710 0.682580
vt 0.446290 0.596136
vt 0.319984 0.621260
vt 0.323154 0.622573
vt 0.357277 0.648544
vt 0.135590 0.659883
vt 0.138017 0.657456
vt 0.156483 0.638989
vt 0.030555 0.637083
vt 0.237329 0.605502
vt 0.266876 0.605502
vt 0.411468 0.561314
vt 0.294802 0.611057
vt 0.057915 0.596136
vt 0.370522 0.533955
vt 0.092737 0.561314
vt 0.325025 0.515109
vt 0.133683 0.533955
vt 0.179180 0.515109
vt 0.276725 0.505502
vt 0.227480 0.505502
vt 0.411468 0.949690
vt 0.325025 0.995895
vt 0.322161 0.888842
vt 0.295856 0.899737
vt 0.237329 0.905502
vt 0.376123 0.839886
vt 0.128083 0.671118
vt 0.347722 0.638989
vt 0.181051 0.622574
vt 0.208349 0.611266
vn 0.000000 -0.000000 1.000000
usemtl Material.017
s 1
f 1/1/1 2/2/1 3/3/1
f 4/4/1 1/1/1 3/3/1
f 5/5/1 3/3/1 2/2/1
f 7/6/1 4/4/1 8/7/1
f 9/8/1 7/6/1 8/7/1
f 13/9/1 9/8/1 8/7/1
f 10/10/1 17/11/1 18/12/1
f 9/8/1 15/13/1 19/14/1
f 9/8/1 21/15/1 22/16/1
f 16/17/1 26/18/1 27/19/1
f 16/17/1 28/20/1 17/11/1
f 20/21/1 23/22/1 29/23/1
f 20/21/1 31/24/1 32/25/1
f 25/26/1 35/27/1 36/28/1
f 26/18/1 25/26/1 33/29/1
f 30/30/1 32/25/1 37/31/1
f 30/30/1 39/32/1 40/33/1
f 42/34/1 43/35/1 44/36/1
f 35/27/1 34/37/1 41/38/1
f 38/39/1 40/33/1 45/40/1
f 45/40/1 47/41/1 46/42/1
f 50/43/1 51/44/1 52/45/1
f 43/35/1 42/34/1 49/46/1
f 46/42/1 48/47/1 53/48/1
f 53/48/1 55/49/1 54/50/1
f 58/51/1 59/52/1 60/53/1
f 51/44/1 50/43/1 57/54/1
f 54/50/1 62/55/1 63/56/1
f 63/56/1 65/57/1 64/58/1
f 68/59/1 69/60/1 71/61/1
f 59/52/1 58/51/1 70/62/1
f 72/63/1 64/58/1 71/61/1
f 72/63/1 71/61/1 73/64/1
f 74/65/1 72/63/1 73/64/1
f 74/65/1 73/64/1 75/66/1
f 76/67/1 74/65/1 77/68/1
f 78/69/1 77/68/1 75/66/1
f 77/68/1 74/65/1 75/66/1
f 77/68/1 78/69/1 79/70/1
f 4/4/1 80/71/1 8/7/1
f 5/5/1 6/72/1 3/3/1
f 8/7/1 10/10/1 11/73/1
f 8/7/1 11/73/1 12/74/1
f 14/75/1 15/13/1 9/8/1
f 8/7/1 12/74/1 13/9/1
f 13/9/1 14/75/1 9/8/1
f 18/12/1 11/73/1 10/10/1
f 10/10/1 16/17/1 17/11/1
f 23/22/1 20/21/1 9/8/1
f 9/8/1 19/14/1 21/15/1
f 22/16/1 23/22/1 9/8/1
f 27/19/1 24/76/1 16/17/1
f 16/17/1 25/26/1 26/18/1
f 16/17/1 24/76/1 28/20/1
f 32/25/1 30/30/1 20/21/1
f 20/21/1 29/23/1 31/24/1
f 36/28/1 33/29/1 25/26/1
f 25/26/1 34/37/1 35/27/1
f 40/33/1 38/39/1 30/30/1
f 30/30/1 37/31/1 39/32/1
f 44/36/1 41/38/1 34/37/1
f 34/37/1 42/34/1 44/36/1
f 48/47/1 46/42/1 47/41/1
f 38/39/1 45/40/1 46/42/1
f 52/45/1 49/46/1 50/43/1
f 42/34/1 50/43/1 49/46/1
f 56/77/1 54/50/1 55/49/1
f 46/42/1 53/48/1 54/50/1
f 61/78/1 57/54/1 58/51/1
f 50/43/1 58/51/1 57/54/1
f 60/53/1 61/78/1 58/51/1
f 54/50/1 56/77/1 62/55/1
f 66/79/1 64/58/1 65/57/1
f 54/50/1 63/56/1 64/58/1
f 64/58/1 66/79/1 67/80/1
f 64/58/1 67/80/1 68/59/1
f 70/62/1 58/51/1 71/61/1
f 69/60/1 70/62/1 71/61/1
f 71/61/1 64/58/1 68/59/1
f 4/4/1 3/3/1 80/71/1
