# Blender v2.77 (sub 0) OBJ File: ''
# www.blender.org
mtllib TLTorus.mtl
o Circle_Circle.001
v -0.382683 0.923880 0.000000
v -0.195090 0.980785 0.000000
v 0.382682 0.923880 0.000000
v -0.555570 0.831470 0.000000
v 0.000000 1.000000 0.000000
v 0.195089 0.980786 0.000000
v -0.707107 0.707107 0.000000
v 0.707106 0.707108 0.000000
v -0.831470 0.555570 0.000000
v 0.831469 0.555571 -0.000000
v 0.225512 0.555571 0.000000
v 0.117053 0.588471 0.000000
v 0.000000 0.600000 0.000000
v -0.117054 0.588471 0.000000
v -0.229610 0.554328 0.000000
v 0.923879 0.382684 -0.000000
v 0.413702 0.432932 0.000000
v 0.333341 0.498882 0.000000
v -0.321293 0.505322 0.000000
v -0.923880 0.382683 0.000000
v -0.333342 0.498882 0.000000
v -0.424264 0.424264 0.000000
v -0.458388 0.382684 0.000000
v 0.458388 0.382684 -0.000000
v 0.980785 0.195091 -0.000000
v 0.554327 0.229611 -0.000000
v 0.498881 0.333343 -0.000000
v 0.424264 0.424265 0.000000
v -0.498882 0.333342 0.000000
v -0.980785 0.195090 0.000000
v -0.554328 0.229610 0.000000
v -0.564799 0.195091 0.000000
v 0.564799 0.195091 -0.000000
v 1.000000 0.000001 -0.000000
v 0.596082 0.039783 -0.000000
v 0.588471 0.117055 -0.000000
v -0.576867 0.155308 0.000000
v -1.000000 0.000000 0.000000
v -0.588471 0.117054 0.000000
v -0.600000 0.000000 0.000000
v 0.600000 0.000001 -0.000000
v 0.980785 -0.195089 -0.000000
v 0.576867 -0.155307 -0.000000
v 0.588471 -0.117054 -0.000000
v -0.596082 -0.039782 0.000000
v -0.980785 -0.195090 0.000000
v -0.588471 -0.117054 0.000000
v -0.564799 -0.195090 0.000000
v 0.564799 -0.195090 -0.000000
v 0.923880 -0.382683 -0.000000
v 0.493201 -0.340265 -0.000000
v 0.554328 -0.229610 -0.000000
v -0.550106 -0.237508 0.000000
v -0.923880 -0.382683 0.000000
v -0.498882 -0.333342 0.000000
v -0.458389 -0.382683 0.000000
v 0.458389 -0.382683 -0.000000
v 0.831470 -0.555570 -0.000000
v 0.321294 -0.505322 -0.000000
v 0.333342 -0.498882 -0.000000
v 0.424264 -0.424264 -0.000000
v -0.424264 -0.424264 0.000000
v -0.413703 -0.432931 -0.000000
v -0.831470 -0.555570 0.000000
v -0.333342 -0.498882 -0.000000
v -0.229610 -0.554328 -0.000000
v -0.117054 -0.588471 -0.000000
v -0.000000 -0.600000 -0.000000
v 0.117054 -0.588471 -0.000000
v 0.225515 -0.555570 -0.000000
v 0.707107 -0.707106 -0.000000
v -0.707107 -0.707107 0.000000
v 0.555571 -0.831469 -0.000000
v -0.555570 -0.831470 -0.000000
v 0.382684 -0.923879 -0.000000
v -0.382683 -0.923880 -0.000000
v -0.195090 -0.980785 -0.000000
v 0.195091 -0.980785 -0.000000
v -0.000000 -1.000000 -0.000000
v 0.555569 0.831470 0.000000
vt 0.346384 0.981280
vt 0.299486 0.995507
vt 0.155043 0.981281
vt 0.389606 0.958178
vt 0.250713 1.000311
vt 0.201941 0.995507
vt 0.427490 0.927087
vt 0.073937 0.927087
vt 0.458581 0.889203
vt 0.042846 0.889203
vt 0.194335 0.889203
vt 0.221450 0.897428
vt 0.250713 0.900311
vt 0.279977 0.897428
vt 0.307091 0.889203
vt 0.019743 0.845982
vt 0.147288 0.858544
vt 0.167378 0.875031
vt 0.308116 0.888892
vt 0.331036 0.876641
vt 0.481683 0.845981
vt 0.334049 0.875031
vt 0.356779 0.856377
vt 0.365310 0.845981
vt 0.136116 0.845982
vt 0.005517 0.799083
vt 0.113187 0.809688
vt 0.125993 0.833646
vt 0.144647 0.856377
vt 0.374013 0.835377
vt 0.495909 0.799083
vt 0.375434 0.833646
vt 0.389295 0.807713
vt 0.391913 0.799083
vt 0.109513 0.799083
vt 0.000713 0.750311
vt 0.101693 0.760256
vt 0.103595 0.779574
vt 0.394930 0.789138
vt 0.500713 0.750311
vt 0.397831 0.779574
vt 0.400713 0.750311
vt 0.100713 0.750311
vt 0.005517 0.701538
vt 0.106496 0.711484
vt 0.103595 0.721047
vt 0.399734 0.740365
vt 0.495910 0.701538
vt 0.397831 0.721047
vt 0.391913 0.701538
vt 0.109513 0.701538
vt 0.019743 0.654640
vt 0.125993 0.666975
vt 0.112131 0.692908
vt 0.388240 0.690933
vt 0.481683 0.654640
vt 0.375434 0.666975
vt 0.365310 0.654640
vt 0.136116 0.654640
vt 0.042846 0.611418
vt 0.170390 0.623980
vt 0.167378 0.625590
vt 0.144647 0.644245
vt 0.127413 0.665244
vt 0.356779 0.644245
vt 0.354139 0.642078
vt 0.458581 0.611418
vt 0.334049 0.625590
vt 0.307092 0.611418
vt 0.279977 0.603193
vt 0.250713 0.600311
vt 0.221450 0.603193
vt 0.194334 0.611418
vt 0.073936 0.573534
vt 0.193311 0.611729
vt 0.427490 0.573534
vt 0.111821 0.542443
vt 0.389606 0.542443
vt 0.155042 0.519341
vt 0.346384 0.519341
vt 0.299486 0.505114
vt 0.201940 0.505114
vt 0.250713 0.500311
vt 0.111821 0.958178
vn -0.000000 0.000000 -1.000000
usemtl Material.014
s 1
f 1/1/1 2/2/1 3/3/1
f 4/4/1 1/1/1 3/3/1
f 2/2/1 5/5/1 6/6/1 3/3/1
f 7/7/1 4/4/1 8/8/1
f 9/9/1 7/7/1 8/8/1
f 10/10/1 11/11/1 12/12/1 13/13/1 14/14/1 15/15/1 9/9/1 8/8/1
f 11/11/1 10/10/1 16/16/1 17/17/1 18/18/1
f 9/9/1 15/19/1 19/20/1
f 20/21/1 9/9/1 19/20/1 21/22/1 22/23/1 23/24/1
f 24/25/1 16/16/1 25/26/1 26/27/1 27/28/1
f 17/17/1 16/16/1 24/25/1 28/29/1
f 20/21/1 23/24/1 29/30/1
f 30/31/1 20/21/1 29/32/1 31/33/1 32/34/1
f 33/35/1 25/26/1 34/36/1 35/37/1 36/38/1
f 26/27/1 25/26/1 33/35/1
f 30/31/1 32/34/1 37/39/1
f 38/40/1 30/31/1 37/39/1 39/41/1 40/42/1
f 41/43/1 34/36/1 42/44/1 43/45/1 44/46/1
f 35/37/1 34/36/1 41/43/1
f 38/40/1 40/42/1 45/47/1
f 46/48/1 38/40/1 45/47/1 47/49/1 48/50/1
f 49/51/1 42/44/1 50/52/1 51/53/1 52/54/1
f 43/45/1 42/44/1 49/51/1
f 46/48/1 48/50/1 53/55/1
f 54/56/1 46/48/1 53/55/1 55/57/1 56/58/1
f 57/59/1 50/52/1 58/60/1 59/61/1 60/62/1 61/63/1
f 51/64/1 50/52/1 57/59/1
f 54/56/1 56/58/1 62/65/1 63/66/1
f 64/67/1 54/56/1 63/66/1 65/68/1 66/69/1
f 64/67/1 66/69/1 67/70/1 68/71/1 69/72/1 70/73/1 58/60/1 71/74/1
f 59/61/1 58/60/1 70/75/1
f 72/76/1 64/67/1 71/74/1
f 72/76/1 71/74/1 73/77/1
f 74/78/1 72/76/1 73/77/1
f 74/78/1 73/77/1 75/79/1
f 76/80/1 74/78/1 77/81/1
f 78/82/1 77/81/1 75/79/1
f 77/81/1 74/78/1 75/79/1
f 77/81/1 78/82/1 79/83/1
f 4/4/1 3/3/1 80/84/1 8/8/1
