# Blender v2.77 (sub 0) OBJ File: ''
# www.blender.org
g BottomMiddleJigsaw3x3
v -0.182162 0.596400 0.000000
v -0.170953 0.537628 0.000000
v -0.155048 0.561751 0.000000
v 0.580826 0.197942 -0.000001
v 0.575282 0.597457 -0.000001
v 0.194175 0.429055 -0.000001
v 0.197773 0.596254 -0.000004
v 0.179776 0.596064 -0.000005
v 0.169890 0.541130 -0.000001
v 0.161784 0.595872 -0.000005
v 0.149860 0.587367 -0.000004
v 0.153046 0.566366 -0.000003
v 0.146914 0.580340 -0.000004
v 0.193631 0.466890 0.000001
v 0.587300 0.172867 -0.000001
v 0.138139 0.306512 0.000000
v 0.185457 0.507110 0.000001
v 0.599804 0.154009 -0.000001
v 0.598367 -0.089804 -0.000000
v 0.185537 0.384804 0.000002
v 0.167384 0.347412 0.000000
v 0.099141 0.277302 0.000000
v 0.584879 -0.111928 -0.000000
v 0.614577 0.149371 -0.000001
v 0.612587 -0.079585 0.000001
v 0.709501 0.186445 0.000000
v 0.681030 -0.107916 0.000001
v 0.735681 -0.124605 -0.000002
v 0.576745 -0.140985 -0.000002
v 0.756922 0.193114 0.000000
v 0.801850 0.191910 0.000000
v 0.841863 0.176495 0.000000
v 0.874532 0.156188 0.000000
v 0.900543 0.124520 0.000000
v 0.923541 0.092545 0.000000
v 0.930978 0.055279 0.000000
v 0.933754 0.015952 0.000000
v 0.920066 -0.023905 -0.000001
v 0.902559 -0.060838 -0.000000
v 0.879803 -0.081215 -0.000000
v 0.844450 -0.110280 -0.000000
v 0.795725 -0.124228 -0.000000
v 0.641213 -0.086147 -0.000001
v 0.640030 0.152743 0.000000
v 0.675325 0.173575 0.000000
v 0.048907 0.258521 0.000000
v -0.006084 0.253451 0.000000
v -0.513171 -0.532673 0.000001
v 0.577459 -0.532673 0.000001
v -0.578694 -0.124386 -0.000000
v -0.051476 0.259191 0.000000
v -0.574783 -0.532200 0.000001
v -0.101137 0.277083 0.000000
v -0.587827 0.166536 0.000000
v -0.597108 -0.092526 -0.000000
v -0.140634 0.311586 -0.000001
v -0.620803 -0.084311 -0.000000
v -0.601915 0.150758 0.000000
v -0.584092 0.189943 0.000000
v -0.745753 -0.125442 -0.000000
v -0.690357 -0.111602 -0.000000
v -0.659108 -0.092929 -0.000000
v -0.627035 0.152125 0.000000
v -0.575974 0.227106 0.000000
v -0.800970 -0.122416 -0.000000
v -0.769995 0.196167 0.000000
v -0.883793 -0.081032 -0.000000
v -0.846282 -0.105881 -0.000000
v -0.913768 -0.038139 -0.000000
v -0.930114 0.007604 0.000000
v -0.887979 0.143771 0.000000
v -0.916547 0.107276 0.000000
v -0.931738 0.065731 0.000000
v -0.852844 0.172194 0.000000
v -0.814611 0.189603 0.000000
v -0.682626 0.178251 0.000000
v -0.726641 0.191877 0.000000
v -0.652600 0.164451 0.000000
v -0.182826 0.385798 0.000001
v -0.164321 0.344388 -0.000001
v -0.190586 0.422440 -0.000001
v -0.576115 0.597759 0.000000
v -0.207464 0.597522 0.000000
v -0.149961 0.578618 -0.000001
v -0.152510 0.591150 0.000000
v -0.165798 0.595183 0.000000
v -0.188792 0.467462 0.000000
v -0.181425 0.500559 0.000000
vt 0.551900 0.328215
vt 0.548710 0.311132
vt 0.544201 0.318147
vt 0.335134 0.212395
vt 0.336690 0.328526
vt 0.445000 0.279563
vt 0.443961 0.328162
vt 0.449066 0.328106
vt 0.451868 0.312187
vt 0.454172 0.328048
vt 0.457560 0.325580
vt 0.456657 0.319471
vt 0.458398 0.323547
vt 0.445128 0.290555
vt 0.333289 0.205098
vt 0.460908 0.243942
vt 0.447449 0.302251
vt 0.329734 0.199623
vt 0.330190 0.128468
vt 0.447579 0.266730
vt 0.452713 0.255858
vt 0.471962 0.235438
vt 0.333944 0.121618
vt 0.325537 0.198237
vt 0.326105 0.131618
vt 0.298606 0.209066
vt 0.306569 0.123534
vt 0.290880 0.118538
vt 0.336238 0.113242
vt 0.285100 0.210986
vt 0.272332 0.210635
vt 0.260976 0.206160
vt 0.251683 0.200254
vt 0.244288 0.191040
vt 0.237759 0.181745
vt 0.235643 0.170911
vt 0.234848 0.159478
vt 0.238746 0.147920
vt 0.243709 0.137173
vt 0.250167 0.131238
vt 0.260209 0.122772
vt 0.274009 0.118670
vt 0.317953 0.129889
vt 0.318315 0.199250
vt 0.308320 0.205319
vt 0.486226 0.229989
vt 0.501859 0.228521
vt 0.645909 0.000000
vt 0.336071 0.000000
vt 0.664519 0.118692
vt 0.514746 0.230191
vt 0.663414 0.000138
vt 0.528854 0.235388
vt 0.667014 0.203243
vt 0.669770 0.127946
vt 0.540078 0.245417
vt 0.676496 0.130340
vt 0.671096 0.198687
vt 0.666051 0.210053
vt 0.712013 0.118360
vt 0.696249 0.122382
vt 0.687391 0.127812
vt 0.678272 0.199041
vt 0.663766 0.220852
vt 0.727650 0.119321
vt 0.718854 0.211863
vt 0.751333 0.131227
vt 0.740549 0.124050
vt 0.759733 0.143741
vt 0.764365 0.157028
vt 0.752363 0.196633
vt 0.760500 0.186046
vt 0.764816 0.173943
vt 0.742523 0.204858
vt 0.731560 0.209948
vt 0.694058 0.206657
vt 0.706560 0.210634
vt 0.685475 0.202640
vt 0.552067 0.266992
vt 0.546807 0.254953
vt 0.554278 0.277641
vt 0.663780 0.328616
vt 0.559085 0.328541
vt 0.542751 0.323046
vt 0.543476 0.326688
vt 0.547250 0.327861
vt 0.553766 0.290732
vt 0.551678 0.300352
vn -0.000000 -0.000000 1.000000
vn -0.000000 0.000100 1.000000
vn -0.000100 0.000000 1.000000
vn 0.000100 0.000000 1.000000
vn -0.000000 -0.000100 1.000000
s 1
f 1/1/1 2/2/1 3/3/1
f 4/4/1 5/5/1 6/6/1
f 7/7/2 8/8/2 9/9/2
f 10/10/2 11/11/2 12/12/2
f 13/13/3 12/12/2 11/11/2
f 10/10/2 12/12/2 8/8/2
f 5/5/1 7/7/2 14/14/1
f 15/15/1 4/4/1 16/16/1
f 12/12/2 9/9/2 8/8/2
f 7/7/2 9/9/2 17/17/4
f 18/18/1 15/15/1 19/19/1
f 7/7/2 17/17/4 14/14/1
f 5/5/1 14/14/1 6/6/1
f 4/4/1 6/6/1 20/20/1
f 4/4/1 20/20/1 21/21/1
f 4/4/1 21/21/1 16/16/1
f 15/15/1 16/16/1 22/22/1
f 15/15/1 23/23/1 19/19/1
f 24/24/1 18/18/1 25/25/1
f 22/22/1 23/23/1 15/15/1
f 26/26/1 27/27/1 28/28/1
f 29/29/1 23/23/1 22/22/1
f 30/30/1 26/26/1 28/28/1
f 31/31/1 30/30/1 32/32/1
f 33/33/1 32/32/1 34/34/1
f 35/35/1 34/34/1 36/36/1
f 37/37/3 36/36/1 38/38/1
f 39/39/1 38/38/1 40/40/1
f 41/41/1 40/40/1 42/42/1
f 28/28/1 42/42/1 30/30/1
f 43/43/1 27/27/1 44/44/1
f 27/27/1 45/45/1 44/44/1
f 40/40/1 38/38/1 34/34/1
f 36/36/1 34/34/1 38/38/1
f 32/32/1 30/30/1 34/34/1
f 45/45/1 27/27/1 26/26/1
f 40/40/1 34/34/1 30/30/1
f 25/25/1 43/43/1 44/44/1
f 42/42/1 40/40/1 30/30/1
f 25/25/1 44/44/1 24/24/1
f 19/19/1 25/25/1 18/18/1
f 46/46/1 29/29/1 22/22/1
f 46/46/1 47/47/1 29/29/1
f 47/47/1 48/48/1 29/29/1
f 48/48/1 49/49/1 29/29/1
f 47/47/1 50/50/1 48/48/1
f 47/47/1 51/51/1 50/50/1
f 50/50/1 52/52/1 48/48/1
f 50/50/1 51/51/1 53/53/1
f 50/50/1 53/53/1 54/54/1
f 55/55/1 50/50/1 54/54/1
f 53/53/1 56/56/1 54/54/1
f 57/57/1 55/55/1 58/58/1
f 56/56/1 59/59/1 54/54/1
f 60/60/1 61/61/1 62/62/1
f 62/62/1 57/57/1 63/63/1
f 64/64/1 59/59/1 56/56/1
f 65/65/1 60/60/1 66/66/1
f 67/67/1 68/68/1 69/69/1
f 70/70/1 69/69/1 71/71/1
f 72/72/1 73/73/1 70/70/1
f 74/74/1 68/68/1 65/65/1
f 66/66/1 75/75/1 74/74/1
f 76/76/1 77/77/1 62/62/1
f 63/63/1 78/78/1 62/62/1
f 78/78/1 76/76/1 62/62/1
f 66/66/1 74/74/1 65/65/1
f 72/72/1 70/70/1 71/71/1
f 68/68/1 71/71/1 69/69/1
f 79/79/1 64/64/1 80/80/1
f 81/81/1 64/64/1 79/79/1
f 68/68/1 74/74/1 71/71/1
f 77/77/1 60/60/1 62/62/1
f 58/58/1 63/63/1 57/57/1
f 82/82/1 64/64/1 81/81/1
f 2/2/1 1/1/1 83/83/1
f 84/84/4 85/85/5 86/86/1
f 86/86/1 1/1/1 3/3/1
f 83/83/1 87/87/1 88/88/1
f 64/64/1 56/56/1 80/80/1
f 66/66/1 60/60/1 77/77/1
f 82/82/1 87/87/1 83/83/1
f 54/54/1 58/58/1 55/55/1
f 82/82/1 81/81/1 87/87/1
f 84/84/4 86/86/1 3/3/1
f 83/83/1 88/88/1 2/2/1
